<svg width="108" height="43" viewBox="0 0 108 43" fill="none" xmlns="http://www.w3.org/2000/svg">
<path d="M57.6699 21.8099V15.1154H58.578V20.9941H61.8079V15.1154H62.716V20.9941H63.5117V21.8099H57.6699Z" fill="#292F3C"/>
<path d="M65.5433 21.0035H69.0072V21.8099H64.6352V15.1154H68.8762V15.9124H65.5433V17.947H68.6702V18.7252H65.5433V21.0035Z" fill="#292F3C"/>
<path d="M70.449 21.8099H69.4566L72.2746 15.1154H73.1921L76.01 21.8099H74.9989L72.724 16.3155L70.449 21.8099Z" fill="#292F3C"/>
<path d="M77.6671 20.4972L81.2808 15.1154H82.3762V21.8099H81.4681V16.3999H81.4493L77.845 21.8099H76.7403V15.1154H77.6484V20.4972H77.6671Z" fill="#292F3C"/>
<path d="M85.0911 21.2473C85.0911 21.4067 85.0256 21.5567 84.9039 21.6786C84.7916 21.8005 84.6324 21.8661 84.4545 21.8661C84.2767 21.8661 84.1269 21.8099 84.0052 21.6786C83.8835 21.5567 83.8179 21.4161 83.8179 21.2567C83.8179 21.0785 83.8835 20.9379 83.9958 20.816C84.1175 20.6941 84.2673 20.6285 84.4545 20.6285C84.6324 20.6285 84.7916 20.6847 84.9039 20.8066C85.0256 20.9285 85.0911 21.0692 85.0911 21.2473Z" fill="#292F3C"/>
<path d="M92.225 20.7691C91.9629 21.1254 91.6258 21.4254 91.1952 21.6411C90.7739 21.8661 90.2683 21.9786 89.6785 21.9786C89.1636 21.9786 88.6955 21.8942 88.2649 21.7161C87.8342 21.5473 87.4597 21.3036 87.1508 20.9941C86.8418 20.6754 86.5984 20.3097 86.4206 19.8784C86.2427 19.4471 86.1584 18.9689 86.1584 18.4533C86.1584 17.9282 86.2427 17.45 86.4206 17.0187C86.6078 16.5874 86.8512 16.2124 87.1695 15.9124C87.4878 15.603 87.8623 15.3686 88.3023 15.1998C88.733 15.031 89.2104 14.9373 89.716 14.9373C89.9407 14.9373 90.1747 14.9654 90.4088 15.0029C90.6428 15.0498 90.8581 15.1154 91.0735 15.2092C91.2888 15.2935 91.4854 15.4061 91.6633 15.5279C91.8411 15.6592 91.9909 15.8092 92.1126 15.978L91.3824 16.5499C91.2139 16.3249 90.9798 16.1374 90.6803 15.9874C90.39 15.8374 90.0624 15.7623 89.716 15.7623C89.3228 15.7623 88.9764 15.8374 88.6581 15.978C88.3491 16.1186 88.087 16.3155 87.8623 16.5593C87.647 16.8031 87.4691 17.0937 87.3568 17.4125C87.235 17.7407 87.1789 18.0876 87.1789 18.4533C87.1789 18.8283 87.235 19.1846 87.3474 19.5127C87.4691 19.8409 87.6282 20.1222 87.8529 20.366C88.0683 20.6097 88.3304 20.7973 88.6393 20.9379C88.9577 21.0785 89.304 21.1442 89.6879 21.1442C90.0624 21.1442 90.4088 21.0692 90.7177 20.9191C91.0267 20.7691 91.2794 20.5535 91.4854 20.2628L92.225 20.7691Z" fill="#292F3C"/>
<path d="M104.545 20.2628H104.573L106.539 15.1154H108V21.8099H107.064V16.2124H107.045L104.826 21.8099H104.227L102.018 16.2124H101.999V21.8099H101.091V15.1154H102.551L104.545 20.2628Z" fill="#292F3C"/>
<path fill-rule="evenodd" clip-rule="evenodd" d="M98.8814 18.6402C98.872 18.6778 98.872 18.7246 98.8626 18.7715C98.8626 18.7996 98.8533 18.8278 98.8533 18.8559C98.8439 18.9122 98.8346 18.959 98.8158 19.0153C98.8158 19.034 98.8065 19.0622 98.7971 19.0809C98.7877 19.1372 98.769 19.1841 98.7503 19.2403C98.7409 19.2591 98.7409 19.2778 98.7316 19.3059C98.7129 19.3528 98.6941 19.3997 98.666 19.4466C98.6567 19.4747 98.6473 19.4935 98.6286 19.5216C98.6099 19.5591 98.5911 19.606 98.5724 19.6435C98.5537 19.6716 98.535 19.7091 98.5069 19.7372C98.4882 19.7654 98.4694 19.8029 98.4507 19.831C98.4226 19.8685 98.3945 19.906 98.3665 19.9435C98.3477 19.9623 98.3384 19.981 98.3196 19.9998C98.2822 20.0466 98.2448 20.0842 98.2073 20.1217C98.1979 20.1404 98.1792 20.1498 98.1605 20.1685C98.123 20.206 98.0856 20.2435 98.0388 20.281C98.0201 20.2904 98.0013 20.3092 97.9826 20.3279C97.9452 20.3561 97.9077 20.3842 97.8609 20.4217C97.8422 20.4311 97.8141 20.4498 97.786 20.4686C97.7486 20.4873 97.7111 20.5154 97.6737 20.5342C97.6362 20.553 97.6081 20.5717 97.5707 20.5905C97.5332 20.6092 97.5052 20.628 97.4677 20.6467C97.4303 20.6561 97.3834 20.6748 97.346 20.6936C97.3086 20.703 97.2805 20.7217 97.243 20.7311C97.2056 20.7405 97.1681 20.7498 97.1213 20.7686C97.0839 20.778 97.0464 20.7874 97.009 20.7967C96.9715 20.8061 96.9341 20.8061 96.8966 20.8155C96.8592 20.8249 96.8124 20.8249 96.7749 20.8342C96.7375 20.8342 96.7 20.8436 96.6626 20.8436C96.6251 20.8436 96.5783 20.853 96.5409 20.853C96.4941 20.853 96.4566 20.853 96.4192 20.853C96.3817 20.8436 96.3443 20.8436 96.3068 20.8436C96.26 20.8342 96.2132 20.8342 96.1664 20.8249C96.1383 20.8249 96.1102 20.8155 96.0821 20.8155C96.0353 20.8061 95.9792 20.7967 95.9323 20.7874C95.9043 20.778 95.8855 20.7686 95.8668 20.7686C95.8106 20.7498 95.7545 20.7311 95.7077 20.7217C95.6889 20.7123 95.6608 20.703 95.6421 20.6936C95.5953 20.6748 95.5485 20.6561 95.4923 20.6373C95.4736 20.6186 95.4455 20.6092 95.4174 20.5998C95.38 20.5717 95.3425 20.553 95.2957 20.5342C95.2676 20.5154 95.2396 20.4967 95.2021 20.4779C95.174 20.4592 95.1459 20.4311 95.1178 20.4123C95.0804 20.3842 95.043 20.3561 95.0055 20.3279C94.9868 20.3186 94.9587 20.2998 94.94 20.281C94.9025 20.2435 94.8651 20.206 94.8276 20.1685C94.8089 20.1592 94.7902 20.1404 94.7715 20.1217C94.734 20.0842 94.6966 20.0466 94.6685 19.9998C94.6497 19.9904 94.631 19.9716 94.6217 19.9529C94.5842 19.906 94.5561 19.8685 94.528 19.8216C94.5093 19.8029 94.4906 19.7747 94.4812 19.756C94.4531 19.7185 94.4344 19.6716 94.4063 19.6341C94.3876 19.606 94.3689 19.5685 94.3502 19.531C94.3408 19.5028 94.3221 19.4653 94.3034 19.4278C94.2846 19.3903 94.2659 19.3528 94.2565 19.3059C94.2378 19.2778 94.2285 19.2403 94.2191 19.2028C94.2004 19.1653 94.191 19.1278 94.1816 19.0903C94.1723 19.0528 94.1629 19.0153 94.1536 18.9684C94.1442 18.9309 94.1348 18.8934 94.1348 18.8559C94.1255 18.8184 94.1161 18.7809 94.1161 18.734C94.1068 18.6965 94.1068 18.659 94.1068 18.6215C94.0974 18.584 94.0974 18.5371 94.0974 18.4996C94.0974 18.4621 94.0974 18.4152 94.0974 18.3777C94.0974 18.3402 94.0974 18.3027 94.1068 18.2652C94.1068 18.2183 94.1068 18.1714 94.1161 18.1246C94.1255 18.0964 94.1255 18.0683 94.1348 18.0402C94.1442 17.9933 94.1536 17.937 94.1629 17.8902C94.1723 17.8714 94.1723 17.8433 94.1816 17.8245C94.191 17.7683 94.2097 17.7214 94.2285 17.6651C94.2378 17.6464 94.2472 17.6183 94.2472 17.5995C94.2659 17.5526 94.294 17.5058 94.3127 17.4589C94.3221 17.4307 94.3314 17.4026 94.3502 17.3839C94.3689 17.337 94.3876 17.2995 94.4157 17.262C94.4344 17.2245 94.4531 17.1963 94.4719 17.1682C94.4906 17.1307 94.5093 17.1026 94.528 17.0745C94.5561 17.037 94.5842 16.9994 94.6123 16.9619C94.631 16.9432 94.6497 16.9244 94.6685 16.8963C94.6966 16.8588 94.734 16.8213 94.7715 16.7838C94.7902 16.765 94.7995 16.7463 94.8183 16.7369C94.8557 16.6994 94.9025 16.6619 94.94 16.6244C94.9587 16.6057 94.9774 16.5963 94.9961 16.5775C95.0336 16.5494 95.0804 16.5119 95.1178 16.4838C95.1459 16.465 95.1647 16.4556 95.1927 16.4369C95.2302 16.4088 95.2676 16.39 95.3051 16.3619C95.3425 16.3431 95.3706 16.3244 95.4081 16.315C95.4455 16.2962 95.483 16.2775 95.5111 16.2587C95.5579 16.24 95.5953 16.2306 95.6328 16.2119C95.6702 16.2025 95.6983 16.1837 95.7357 16.1744C95.7732 16.1556 95.82 16.1462 95.8574 16.1369C95.8949 16.1275 95.9323 16.1181 95.9698 16.1087C96.0072 16.0994 96.0447 16.09 96.0821 16.09C96.1289 16.0806 96.1664 16.0712 96.2038 16.0712C96.2413 16.0619 96.2787 16.0619 96.3162 16.0619C96.363 16.0525 96.4004 16.0525 96.4473 16.0525C96.4847 16.0525 96.5221 16.0525 96.5596 16.0525C96.597 16.0525 96.6345 16.0525 96.6719 16.0619C96.7187 16.0619 96.7656 16.0712 96.8124 16.0712C96.8405 16.0806 96.8685 16.0806 96.8966 16.09C96.9528 16.0994 96.9996 16.1087 97.0558 16.1181C97.0745 16.1275 97.0932 16.1275 97.1213 16.1369C97.1681 16.1556 97.2243 16.165 97.2805 16.1837C97.2992 16.1931 97.3179 16.2025 97.3366 16.2119C97.3834 16.2306 97.4396 16.2494 97.4864 16.2681C97.5145 16.2775 97.5332 16.2962 97.5613 16.3056C97.5988 16.3244 97.6456 16.3431 97.683 16.3713C97.7111 16.39 97.7392 16.4088 97.7767 16.4275C97.8047 16.4463 97.8328 16.465 97.8703 16.4838C97.9077 16.5119 97.9358 16.54 97.9733 16.5682C98.0013 16.5869 98.0201 16.6057 98.0388 16.6244C98.0762 16.6525 98.123 16.69 98.1605 16.7275C98.1699 16.7463 98.1886 16.765 98.2073 16.7744C98.2448 16.8119 98.2822 16.8588 98.3196 16.8963C98.329 16.9151 98.3477 16.9338 98.3571 16.9526C98.3945 16.9901 98.4226 17.037 98.4507 17.0745C98.4694 17.1026 98.4882 17.1213 98.5069 17.1495C98.5256 17.187 98.5537 17.2245 98.5724 17.2714C98.5911 17.2995 98.6099 17.337 98.6286 17.3651C98.6473 17.4026 98.666 17.4401 98.6754 17.4776C98.6941 17.5151 98.7129 17.5526 98.7222 17.5901C98.7409 17.6276 98.7503 17.6651 98.769 17.6933C98.7784 17.7402 98.7877 17.7777 98.7971 17.8152C98.8065 17.8527 98.8158 17.8902 98.8252 17.9277C98.8346 17.9652 98.8439 18.0027 98.8533 18.0402C98.8533 18.0871 98.8626 18.1246 98.872 18.1621C98.872 18.1996 98.872 18.2371 98.8814 18.2746C98.8814 18.3215 98.8814 18.359 98.8814 18.4058C98.8814 18.4434 98.8814 18.4809 98.8814 18.5184C98.8814 18.5652 98.8814 18.6027 98.8814 18.6402ZM99.0873 20.9749C99.1435 20.9186 99.1997 20.853 99.2465 20.7967C99.2746 20.7686 99.3027 20.7311 99.3307 20.703C99.3682 20.6467 99.415 20.5905 99.4524 20.5342C99.4805 20.4873 99.518 20.4404 99.5461 20.3936C99.5742 20.3467 99.6022 20.2998 99.6303 20.2529C99.6678 20.1967 99.6959 20.131 99.7239 20.0654C99.7427 20.0279 99.7614 19.9904 99.7801 19.9529C99.8176 19.8873 99.8457 19.8122 99.8737 19.7372C99.8831 19.6997 99.9018 19.6716 99.9112 19.6341C99.9393 19.5591 99.958 19.4841 99.9861 19.3997C99.9954 19.3716 100.005 19.3341 100.005 19.2966C100.024 19.2216 100.042 19.1466 100.061 19.0715C100.061 19.0247 100.07 18.9778 100.08 18.9403C100.089 18.8653 100.089 18.7996 100.098 18.734C100.108 18.6778 100.108 18.6121 100.108 18.5559C100.108 18.5184 100.117 18.4902 100.117 18.4527C100.117 18.4246 100.108 18.4058 100.108 18.3777C100.108 18.3121 100.108 18.2558 100.098 18.1902C100.098 18.1339 100.089 18.0777 100.089 18.0214C100.08 17.9558 100.07 17.8995 100.061 17.8339C100.042 17.7777 100.033 17.7214 100.024 17.6651C100.014 17.6089 99.9954 17.5526 99.9767 17.4964C99.9674 17.4307 99.9486 17.3745 99.9299 17.3089C99.9112 17.262 99.8925 17.2057 99.8737 17.1495C99.8457 17.0932 99.8269 17.037 99.7988 16.9807C99.7895 16.9526 99.7801 16.9338 99.7708 16.9057C99.752 16.8776 99.7333 16.8401 99.7146 16.8026C99.6959 16.765 99.6678 16.7182 99.6491 16.6807C99.6116 16.615 99.5742 16.5494 99.5273 16.4838C99.5086 16.4556 99.4899 16.4275 99.4712 16.3994C99.4244 16.3244 99.3682 16.2494 99.312 16.1837C99.3027 16.165 99.2839 16.1462 99.2652 16.1275C99.209 16.0525 99.1435 15.9868 99.078 15.9212C99.0686 15.9025 99.0499 15.8931 99.0405 15.8743C98.975 15.8087 98.9095 15.7524 98.8346 15.6962C98.8158 15.6774 98.7971 15.6587 98.7784 15.6399C98.7129 15.5931 98.6567 15.5462 98.5911 15.4993C98.5537 15.4805 98.5256 15.4524 98.4975 15.4337C98.4507 15.3962 98.4039 15.3774 98.3571 15.3493C97.8703 15.0492 97.3086 14.8711 96.7187 14.8336H96.6907C96.6719 14.8242 96.6439 14.8336 96.6251 14.8336C96.5783 14.8242 96.5315 14.8242 96.4941 14.8242C96.4379 14.8242 96.3911 14.8242 96.3349 14.8336C96.2975 14.8336 96.2506 14.8336 96.2132 14.8336C96.0821 14.843 95.9604 14.8617 95.8387 14.8805C95.8294 14.8899 95.82 14.8899 95.8106 14.8899C95.6796 14.9086 95.5485 14.9461 95.4268 14.9836C95.3893 15.0024 95.3519 15.0117 95.3145 15.0211C95.2115 15.0586 95.1178 15.0961 95.0242 15.143C94.9961 15.1524 94.9774 15.1524 94.9493 15.1711C94.94 15.1711 94.9212 15.1805 94.9119 15.1899C94.8557 15.218 94.8089 15.2461 94.7527 15.2743C94.6966 15.3024 94.6497 15.3305 94.5936 15.3587C94.5749 15.3774 94.5561 15.3868 94.5468 15.3962C94.0225 15.7337 93.6106 16.1837 93.3203 16.7088L93.3016 16.7275C93.2923 16.7557 93.2829 16.7838 93.2642 16.8119C93.2361 16.8776 93.1986 16.9432 93.1706 17.0182C93.1425 17.0745 93.1237 17.1307 93.0957 17.187C93.0676 17.262 93.0488 17.337 93.0301 17.412C93.002 17.4964 92.974 17.5808 92.9552 17.6651C92.9365 17.7589 92.9178 17.8433 92.9084 17.937C92.8991 17.9839 92.8991 18.0402 92.8897 18.0964C92.8803 18.1808 92.871 18.2746 92.871 18.3683C92.871 18.3965 92.871 18.4246 92.871 18.4527C92.871 18.4715 92.871 18.4996 92.871 18.5184C92.871 18.584 92.8803 18.6496 92.8803 18.7153C92.8897 18.7715 92.8897 18.8278 92.8991 18.884C92.8991 18.9403 92.9178 19.0059 92.9271 19.0715C92.9365 19.1278 92.9459 19.1841 92.9552 19.2403C92.974 19.2966 92.9833 19.3528 93.002 19.4091C93.0208 19.4747 93.0301 19.531 93.0582 19.5872C93.0676 19.6435 93.0957 19.6997 93.1144 19.7466C93.1331 19.8122 93.1612 19.8685 93.1799 19.9248C93.1986 19.9435 93.1986 19.9716 93.208 19.9904C93.2267 20.0279 93.2455 20.056 93.2642 20.0842C93.2923 20.1404 93.311 20.1873 93.3391 20.2342C93.3765 20.2998 93.414 20.3561 93.4514 20.4217C93.4701 20.4498 93.4982 20.4873 93.5263 20.5248C93.5731 20.5905 93.6199 20.6561 93.6667 20.7123C93.6855 20.7405 93.7136 20.7686 93.7323 20.7967C93.7884 20.8624 93.8446 20.9186 93.9008 20.9842C93.9195 21.003 93.9476 21.0311 93.9757 21.0499C94.0319 21.1061 94.088 21.1624 94.1442 21.2186C94.1816 21.2374 94.2097 21.2655 94.2472 21.2937C94.3034 21.3405 94.3595 21.378 94.4157 21.4155C94.4531 21.453 94.5 21.4812 94.5468 21.5093C94.5936 21.5374 94.6404 21.5656 94.6872 21.5937C94.7527 21.6312 94.8089 21.6593 94.8744 21.6968C94.9119 21.7156 94.9493 21.7343 94.9868 21.7437C95.0617 21.7812 95.1366 21.8093 95.2115 21.8375C95.2396 21.8562 95.2676 21.8656 95.3051 21.875C95.38 21.9031 95.4642 21.9218 95.5391 21.95C95.5766 21.9594 95.6047 21.9687 95.6421 21.9781C95.717 21.9969 95.7919 22.0062 95.8762 22.025C95.9136 22.025 95.9604 22.0344 96.0072 22.0437C96.0728 22.0531 96.1383 22.0625 96.2132 22.0625C96.2694 22.0719 96.3255 22.0719 96.3817 22.0719C96.4192 22.0719 96.4566 22.0812 96.4941 22.0812C96.5128 22.0812 96.5409 22.0719 96.5596 22.0719C96.6251 22.0719 96.6907 22.0719 96.7562 22.0625C96.8124 22.0625 96.8685 22.0531 96.9247 22.0531C96.9809 22.0437 97.0464 22.0344 97.1026 22.025C97.1588 22.0156 97.2243 22.0062 97.2805 21.9875C97.3366 21.9781 97.3928 21.9594 97.449 21.95C97.5052 21.9312 97.5707 21.9125 97.6269 21.8937C97.683 21.875 97.7298 21.8562 97.786 21.8375C97.8422 21.8093 97.9077 21.7906 97.9639 21.7625C97.9826 21.7531 98.0107 21.7437 98.0294 21.7343C98.0669 21.7156 98.095 21.6968 98.123 21.6874C98.1792 21.6593 98.226 21.6312 98.2728 21.6031C98.3384 21.5656 98.3945 21.5374 98.4507 21.4999C98.4882 21.4718 98.5256 21.4437 98.5631 21.4249C98.6286 21.378 98.6941 21.3312 98.7503 21.2843C98.7784 21.2562 98.8065 21.2374 98.8346 21.2093C98.9001 21.1624 98.9563 21.1061 99.0124 21.0499C99.0405 21.0218 99.0686 20.9936 99.0873 20.9749Z" fill="#1047D6"/>
<path fill-rule="evenodd" clip-rule="evenodd" d="M25.5302 42.9712H25.5114C25.3523 42.9619 25.1931 42.9525 25.034 42.9337H24.9684C24.8467 42.9244 24.725 42.915 24.6033 42.9056H24.5378C24.4161 42.8869 24.2944 42.8775 24.1727 42.8681C24.0697 42.8587 23.9761 42.8494 23.8825 42.84V42.8306H23.8637C23.7795 42.8212 23.6952 42.8119 23.611 42.8025H23.5735C23.4986 42.7931 23.4237 42.7837 23.3488 42.7743V42.765H23.3114C23.2365 42.7556 23.1616 42.7462 23.0867 42.7368H23.0773C22.8058 42.6993 22.5343 42.6525 22.2628 42.6056H22.2254C22.1692 42.5962 22.113 42.5868 22.0662 42.5775V42.5681H22.0381C21.9913 42.5587 21.9445 42.5493 21.8977 42.5399H21.8696L21.7011 42.5024H21.6917C21.4858 42.4649 21.2798 42.4181 21.0739 42.3712H21.0551C21.0083 42.3618 20.9521 42.3524 20.9053 42.3431C20.8585 42.3337 20.8211 42.3243 20.7743 42.3149V42.3055H20.7555C20.7181 42.2962 20.6807 42.2868 20.6432 42.2774V42.268H20.6151C20.3623 42.2118 20.1002 42.1462 19.8474 42.0805V42.0711H19.8381C19.7632 42.0524 19.6883 42.0336 19.6134 42.0149V42.0055H19.5947C19.5572 41.9961 19.5198 41.9868 19.4823 41.9774H19.473C19.4449 41.968 19.4168 41.9586 19.3887 41.9493V41.9399H19.3606C19.3232 41.9305 19.2951 41.9211 19.2576 41.9118L19.1546 41.8836V41.8743H19.1453C18.7989 41.7711 18.4619 41.668 18.1342 41.5555V41.5461H18.1155L18.0312 41.518V41.5086H18.0218L17.9376 41.4805H17.9282L17.8346 41.443C17.7129 41.4055 17.5912 41.3586 17.4695 41.3117C17.3759 41.2836 17.2916 41.2461 17.2073 41.2179C17.1512 41.1898 17.095 41.1711 17.0388 41.1523H17.0295C16.9827 41.1242 16.9265 41.1054 16.8797 41.0867V41.0773H16.8703C16.8141 41.0585 16.7673 41.0398 16.7112 41.021V41.0117C16.655 40.9929 16.5988 40.9742 16.5426 40.946C16.3929 40.8898 16.2337 40.8148 16.0839 40.7491L16.0184 40.721H16.009C15.9341 40.6835 15.8592 40.6554 15.7843 40.6179L15.7188 40.5897H15.7094C15.5877 40.5335 15.4754 40.4772 15.3537 40.421C15.1571 40.3272 14.9605 40.2335 14.7639 40.1303V40.1209H14.7451L14.6983 40.0928H14.6796L14.6328 40.0647V40.0553H14.6141L14.5673 40.0272H14.5579L14.5017 39.9897H14.4924L14.4362 39.9616H14.4268L14.3707 39.924C14.2209 39.849 14.0804 39.774 13.94 39.6896H13.9307C13.8558 39.6521 13.7809 39.6053 13.706 39.5678V39.5584H13.6966L13.6404 39.5303C13.5843 39.4927 13.5281 39.4646 13.4719 39.4365V39.4271H13.4626L13.4064 39.399C13.3502 39.3615 13.294 39.3334 13.2472 39.2959H13.2379C13.0787 39.2021 12.9102 39.099 12.751 38.9958C12.6574 38.9396 12.5732 38.8927 12.4795 38.8364C12.4515 38.8083 12.414 38.7895 12.3859 38.7708H12.3766C12.3485 38.7427 12.3204 38.7239 12.2829 38.7052V38.6958H12.2736C12.0489 38.5551 11.8148 38.3958 11.5902 38.2457V38.2364L11.4965 38.1707H11.4872C11.4123 38.1145 11.3374 38.0676 11.2625 38.0113V38.002H11.2531C11.1782 37.9551 11.1033 37.8988 11.0284 37.8426C10.8506 37.7113 10.6727 37.58 10.5042 37.4488V37.4394C10.448 37.4019 10.3918 37.3644 10.3356 37.3175V37.3081H10.3263L10.2046 37.2144C10.1484 37.1675 10.0922 37.1206 10.0361 37.0831C9.97989 37.0362 9.93308 36.9894 9.87691 36.9519C9.74584 36.8393 9.60541 36.7268 9.47434 36.6143L9.44625 36.5862H9.43689C9.37136 36.5299 9.31519 36.4737 9.24965 36.4174L9.21221 36.3893C9.11859 36.3049 9.03433 36.2299 8.95007 36.1549C8.82836 36.0424 8.70666 35.9392 8.58495 35.8267L8.55686 35.7892H8.5475L8.51942 35.7611C8.07004 35.3392 7.64875 34.9173 7.23682 34.4766V34.4672H7.22746L7.19938 34.4391V34.4297L7.17129 34.4016H7.16193C7.05895 34.2797 6.9466 34.1578 6.83426 34.0359C6.75936 33.9515 6.68447 33.8672 6.60957 33.7734H6.60021L6.57212 33.7453V33.7359C6.51595 33.6796 6.45978 33.614 6.40361 33.5484V33.539L6.37552 33.5109C6.26318 33.3796 6.15083 33.2483 6.04785 33.1077C6.00104 33.0608 5.95423 33.0046 5.90742 32.9483C5.86997 32.892 5.82316 32.8358 5.77635 32.7795L5.68273 32.6576V32.6483H5.67337C5.63592 32.592 5.58911 32.5358 5.55166 32.4795H5.5423C5.41123 32.3107 5.28017 32.1326 5.1491 31.9544C5.09293 31.8794 5.03675 31.8044 4.98994 31.7294V31.72H4.98058C4.92441 31.645 4.8776 31.57 4.82143 31.495V31.4856L4.75589 31.3919C4.59674 31.1669 4.44695 30.9325 4.29716 30.7074V30.6981H4.28779C4.26907 30.6699 4.25035 30.6324 4.23162 30.6043V30.5949H4.22226C4.20354 30.5668 4.18481 30.5293 4.15673 30.5012C4.10055 30.4074 4.05374 30.323 3.99757 30.2386V30.2293C3.89459 30.0699 3.79161 29.9105 3.69799 29.7417V29.7323C3.66054 29.6855 3.63245 29.6292 3.60437 29.5729H3.59501L3.56692 29.5167V29.5073H3.55756C3.52947 29.4511 3.50139 29.3948 3.46394 29.3385L3.43585 29.2823V29.2729H3.42649C3.38904 29.1979 3.34223 29.1229 3.30478 29.0479V29.0385C3.22053 28.8979 3.14563 28.7572 3.07073 28.6166L3.04265 28.551V28.5416H3.03329L3.0052 28.4853V28.476L2.96775 28.4197V28.4103L2.93967 28.3634V28.3447H2.93031L2.90222 28.2978V28.2791L2.87413 28.2322V28.2134H2.86477C2.77115 28.0165 2.66817 27.8196 2.57455 27.6227C2.51838 27.5009 2.46221 27.3883 2.4154 27.2665V27.2571H2.40603L2.37795 27.1914C2.3405 27.1164 2.31241 27.0414 2.27497 26.9664V26.957L2.24688 26.8914C2.18135 26.7414 2.11581 26.582 2.05028 26.432C2.02219 26.3757 2.00347 26.3195 1.98474 26.2726V26.2632H1.97538C1.95666 26.207 1.93793 26.1601 1.91921 26.1038V26.0945H1.90985C1.89112 26.0476 1.8724 25.9913 1.85368 25.9444V25.9351H1.84431C1.82559 25.8788 1.80687 25.8225 1.77878 25.7663C1.75069 25.6819 1.71325 25.5975 1.68516 25.5038C1.63835 25.3819 1.59154 25.26 1.55409 25.1475V25.1381L1.51664 25.0537V25.0443L1.48856 24.96V24.9412H1.4792L1.45111 24.8662V24.8381H1.44175C1.3294 24.5099 1.22642 24.1724 1.12344 23.8255V23.8161L1.08599 23.7223V23.7129C1.07663 23.6848 1.06727 23.6473 1.05791 23.6098V23.5817H1.04854C1.03918 23.5536 1.02982 23.5254 1.02046 23.4973V23.4879C1.0111 23.4504 1.00173 23.4129 0.992372 23.3754V23.3567H0.98301C0.964286 23.2817 0.945562 23.2066 0.926838 23.1316V23.1223H0.917476C0.851942 22.8691 0.786408 22.6066 0.730236 22.3534V22.3253H0.720874C0.711512 22.2878 0.70215 22.2503 0.692788 22.2128V22.194C0.683426 22.1565 0.674064 22.1097 0.664702 22.0628H0.65534C0.645978 22.0159 0.636616 21.9596 0.627254 21.9128V21.894C0.580444 21.6877 0.533634 21.4815 0.496186 21.2752V21.2658L0.458738 21.1064V21.0689C0.449376 21.022 0.440014 20.9752 0.430652 20.9283V20.9095H0.42129C0.411928 20.8533 0.402566 20.797 0.393204 20.7408V20.7033C0.346394 20.4313 0.299584 20.1594 0.262136 19.8875V19.8782C0.252774 19.8032 0.243412 19.7281 0.23405 19.6531V19.6156H0.224688C0.215326 19.5406 0.205964 19.4656 0.196602 19.3906V19.3531C0.18724 19.2687 0.177878 19.1843 0.168516 19.1V19.0906H0.159154C0.149792 18.9874 0.14043 18.8937 0.131068 18.7905C0.121706 18.6687 0.112344 18.5468 0.102982 18.4249V18.3593H0.09362C0.084258 18.2374 0.074896 18.1155 0.065534 17.9936V17.928C0.04681 17.7686 0.037448 17.6092 0.037448 17.4498V17.431H0.028086C0.009362 16.9997 0 16.5591 0 16.1184C0 15.7715 0.009362 15.4246 0.018724 15.087H0.037448V14.7682C0.037448 14.5901 0.056172 14.4026 0.065534 14.2244C0.074896 14.1119 0.084258 13.9994 0.09362 13.8963H0.102982V13.7931C0.102982 13.7181 0.112344 13.6431 0.121706 13.5587H0.131068V13.4369L0.149792 13.2306H0.168516V13.1181C0.177878 13.0431 0.177878 12.9774 0.18724 12.9024H0.196602V12.8368C0.215326 12.6774 0.23405 12.5274 0.262136 12.368V12.3305L0.290222 12.1711H0.299584V12.1055L0.318308 11.9461H0.32767V11.8898L0.355756 11.7398H0.365118V11.6835L0.383842 11.5429H0.393204V11.4866L0.42129 11.346H0.430652V11.2991L0.458738 11.1491V11.121C0.486824 11.0085 0.505548 10.896 0.524272 10.7834L0.552358 10.6522H0.56172V10.6241L0.589806 10.4834V10.4647L0.617892 10.3522H0.627254V10.3146L0.645978 10.2209H0.664702V10.1646L0.683426 10.0521H0.692788V10.024L0.711512 9.92086H0.730236V9.88335L0.74896 9.78959H0.758322V9.74271L0.786408 9.6302H0.79577V9.60207L0.823856 9.48956V9.47081L0.851942 9.3583H0.861304V9.34892C0.880028 9.26454 0.898752 9.18015 0.926838 9.09577C0.945562 9.02076 0.964286 8.94575 0.992372 8.86137V8.85199L1.02046 8.76761V8.73948L1.05791 8.63635V8.62697L1.08599 8.53321V8.51446L1.11408 8.43945H1.12344V8.40195L1.15153 8.29881V8.28943L1.17961 8.20505H1.18897V8.17692L1.21706 8.10191H1.22642V8.07379L1.25451 7.97065L1.28259 7.87689H1.29196V7.86751L1.32004 7.77375V7.76438C1.36685 7.63311 1.4043 7.50185 1.45111 7.37996V7.37059L1.48856 7.27683L1.54473 7.10806H1.55409V7.08931L1.58218 7.0143V6.99555L1.61026 6.91116H1.61963V6.90179L1.63835 6.84553H1.64771V6.8174L1.6758 6.75177H1.68516V6.72364L1.71325 6.64863V6.63926L1.74133 6.583H1.75069V6.5455L1.77878 6.47987V6.46111L1.81623 6.38611V6.37673L1.88176 6.21734V6.20796C1.92857 6.10483 1.96602 5.99231 2.01283 5.88918V5.8798L2.07836 5.72041L2.10645 5.65478H2.11581V5.6454L2.13454 5.58915H2.1439V5.57039L2.18135 5.49539V5.48601L2.20943 5.42976V5.411L2.23752 5.35475H2.24688V5.33599L2.2656 5.28911H2.27497V5.26099L2.31241 5.19536V5.18598L2.3405 5.12972V5.11097L2.36859 5.06409H2.37795V5.03596L2.39667 4.99846H2.4154V4.97033L2.44348 4.89532L2.47157 4.82969H2.48093V4.82032L2.50902 4.76406V4.75468L2.5371 4.69843H2.54646V4.67968C2.67753 4.3984 2.81796 4.11712 2.95839 3.83584H2.96775V3.80771L2.99584 3.7702H3.0052V3.74208L3.02393 3.70457H3.04265V3.68582L3.06137 3.63894H3.07073V3.62019L3.09882 3.57331H3.10818V3.55456L3.12691 3.50768H3.13627V3.4983L3.16436 3.44204H3.17372V3.43267L3.2018 3.37641C3.25797 3.27328 3.31415 3.17952 3.36096 3.07638H3.37032V3.067L3.3984 3.01075L3.43585 2.95449L3.52947 2.77635L3.58564 2.68259H3.60437V2.66384L3.63245 2.61696V2.60758L3.68863 2.51382H3.69799V2.49507L3.72607 2.44819H3.73544V2.43881L3.78225 2.34505H3.80097V2.3263L3.81969 2.27942H3.82906V2.27004L3.88523 2.18566H3.89459V2.15753L3.92268 2.12003H3.93204V2.11065L3.9414 2.08252H3.96012V2.0544L3.98821 2.01689H3.99757V1.99814L4.02566 1.95126V1.94188L4.04438 1.92313H4.06311V1.895L4.09119 1.8575V1.83875L4.14736 1.75436H4.15673V1.73561L4.19417 1.68873V1.67936L4.25035 1.5856H4.25971V1.57622L4.31588 1.49184H4.32524V1.47308C4.4095 1.3512 4.49376 1.21993 4.57802 1.08867H4.58738V1.07929L4.64355 0.994909H4.65291V0.976157L4.71845 0.891773V0.882397L4.73717 0.863645H4.75589V0.835517L4.78398 0.798013H4.79334V0.788637L4.81207 0.760509H4.82143V0.741757L4.84951 0.694877H4.85888L4.8776 0.666749H4.88696V0.647997L4.89632 0.629245H4.92441V0.601117L4.94313 0.563613H4.9525V0.554237L4.97122 0.526109H4.98994V0.507357L5.01803 0.460477L5.03675 0.432349H5.05548V0.413597L5.06484 0.394845H5.08356V0.366717L5.11165 0.329213H5.12101V0.319837L5.13974 0.301085H5.1491V0.272957L5.18655 0.235453L5.20527 0.197949H5.21463V0.188573L5.23336 0.169821H5.25208V0.141693L5.28017 0.104189V0.0948132L5.30825 0.0666853H5.31761V0.0573093L5.38315 -0.0364507L5.40187 -0.0645787H5.4206V-0.0739547L5.48613 -0.167715L5.56103 -0.261475H5.57975L8.95007 1.68873C8.14494 2.69196 7.4147 3.76083 6.78745 4.89532C4.91505 8.21443 3.85714 12.0492 3.85714 16.1184C3.85714 28.8135 14.1741 39.1365 26.8408 39.1365C33.8249 39.1365 40.0974 35.9955 44.3197 31.0544L47.7181 33.0233C47.6619 33.0889 47.6151 33.1452 47.5589 33.2108L47.5309 33.239H47.5215V33.2483C47.484 33.3046 47.4372 33.3515 47.3904 33.4077L47.3623 33.4452L47.3436 33.4734H47.3249V33.4921C47.2874 33.539 47.2406 33.5859 47.1938 33.6421L47.1657 33.6703V33.6796L47.1377 33.7078H47.1283V33.7171C47.0815 33.7734 47.044 33.8203 46.9972 33.8672L46.9691 33.9047L46.9411 33.9328H46.9317V33.9422C46.8568 34.0359 46.7819 34.1203 46.6976 34.2047L46.6696 34.2328V34.2422C46.5385 34.3828 46.4074 34.5235 46.267 34.6641L46.2389 34.7016L46.2108 34.7297H46.2015L46.1734 34.7672L46.1453 34.7954H46.1359V34.8048L46.0797 34.861H46.0704V34.8704L46.0517 34.8985H46.0423V34.9079L46.0142 34.9266H46.0049V34.936C45.8551 35.0954 45.7053 35.2454 45.5555 35.3954H45.5461L45.518 35.4236H45.5087V35.4329L45.4525 35.4892H45.4431V35.4986L45.415 35.5267L45.3776 35.5548C45.2653 35.6673 45.1436 35.7799 45.0312 35.8924H45.0125V35.9017L44.9938 35.9205H44.9844V35.9299L44.9563 35.958H44.9469L44.9189 35.9861V35.9955C44.8065 36.0893 44.6942 36.1924 44.5912 36.2862C44.5257 36.3424 44.4601 36.3987 44.404 36.4549H44.3852V36.4643L44.3571 36.4831V36.4924L44.3197 36.5206C44.2729 36.5581 44.2167 36.6049 44.1699 36.6518H44.1605V36.6612L44.1325 36.6799H44.1231V36.6893C44.0763 36.7268 44.0201 36.7737 43.9733 36.8112H43.9546V36.8206L43.9265 36.8487C43.8703 36.8956 43.8235 36.9331 43.7673 36.98H43.758V36.9894L43.7299 37.0175C43.5801 37.1394 43.4209 37.2613 43.2712 37.3738H43.2618V37.3831C43.2243 37.4113 43.1869 37.4488 43.1401 37.4769H43.1307V37.4863L43.009 37.58H42.9997C42.9622 37.6175 42.9154 37.6457 42.8779 37.6738H42.8686V37.6832L42.7469 37.7769H42.7375L42.6065 37.8707V37.8801L42.4754 37.9738C42.363 38.0488 42.2601 38.1239 42.1477 38.2082H42.1383L42.0541 38.2739H42.0447L41.9511 38.3395H41.9417L41.8575 38.4051H41.8481V38.4145L41.7545 38.4708H41.7451V38.4801L41.6609 38.5364H41.6515V38.5458L41.5579 38.602H41.5485V38.6114L41.4549 38.6677H41.4456V38.677L41.3519 38.7333L41.249 38.7989C41.1647 38.8552 41.0804 38.9114 40.9868 38.9677C40.9306 38.9958 40.8838 39.0333 40.8277 39.0615H40.8183V39.0708C40.7715 39.099 40.7153 39.1365 40.6685 39.1646H40.6592V39.174L40.5562 39.2302L40.5 39.2583H40.4906V39.2677C40.4345 39.2959 40.3877 39.3334 40.3315 39.3615H40.3221C40.2753 39.399 40.2191 39.4271 40.163 39.4646L40.1068 39.4927H40.0974V39.5021C39.9196 39.5959 39.7417 39.699 39.5638 39.7928L39.5076 39.8209H39.4983V39.8303L39.4421 39.8584H39.4327V39.8678L39.3859 39.8865H39.3672V39.8959L39.3204 39.924H39.3017V39.9334L39.2549 39.9616H39.2361V39.9709C38.9178 40.1397 38.5901 40.2991 38.2625 40.4491H38.2438V40.4585L38.1876 40.4866H38.1782L38.1127 40.5241C38.0472 40.5522 37.9723 40.5897 37.8974 40.6179H37.8786V40.6272L37.8318 40.6554H37.8131L37.7569 40.6835H37.7476C37.6727 40.721 37.6071 40.7491 37.5322 40.7866H37.5229C37.3637 40.8523 37.2139 40.9179 37.0641 40.9835H37.0548C37.008 41.0023 36.9518 41.0304 36.8956 41.0492C36.8395 41.0773 36.7833 41.096 36.7365 41.1148H36.7271L36.6522 41.1523H36.6241V41.1617L36.568 41.1804H36.5586L36.4837 41.2179H36.465L36.3058 41.2836H36.2965L36.2216 41.3117H36.1935V41.3211C36.1467 41.3398 36.0905 41.3586 36.0437 41.3773H36.0343V41.3867C35.8845 41.4336 35.7254 41.4898 35.5756 41.5461H35.5662L35.482 41.5742H35.4726V41.5836L35.379 41.6117H35.3696L35.276 41.6399V41.6492L35.1824 41.6774H35.173L35.0794 41.7149C35.0045 41.7336 34.939 41.7524 34.8734 41.7805H34.8454L34.7611 41.8086H34.7424V41.818L34.6581 41.8461H34.6488C34.5364 41.8743 34.4334 41.9118 34.3211 41.9399H34.3117C34.2368 41.968 34.1619 41.9868 34.087 42.0055L33.9747 42.043H33.956L33.853 42.0711H33.8155V42.0805L33.7313 42.1087H33.6845V42.118L33.6002 42.1368H33.5908V42.1462L33.4691 42.1743H33.4598L33.3381 42.2024H33.3287V42.2118L33.207 42.2399H33.1883L33.0666 42.268H33.0572V42.2774L32.9261 42.3055C32.8793 42.3149 32.8325 42.3243 32.7857 42.3431H32.767L32.6359 42.3712H32.6266C32.5797 42.3806 32.5329 42.3899 32.4861 42.4087H32.4674L32.327 42.4368H32.2989V42.4462L32.1678 42.4743H32.1397L31.9993 42.5024H31.9712V42.5118L31.8308 42.5399H31.8027L31.6436 42.5681C31.5125 42.5962 31.3908 42.615 31.2597 42.6337H31.241V42.6431C31.1848 42.6525 31.1193 42.6618 31.0631 42.6712H31.0163V42.6806L30.8478 42.6993H30.7822V42.7087L30.6231 42.7368H30.5482V42.7462C30.492 42.7556 30.4359 42.765 30.3797 42.765H30.3235V42.7743C30.155 42.8025 29.9958 42.8212 29.8273 42.8306V42.84C29.7243 42.8494 29.6214 42.8587 29.5184 42.8681H29.4248V42.8775C29.3405 42.8869 29.2469 42.8962 29.1626 42.9056H29.0596C28.9567 42.915 28.8443 42.9244 28.732 42.9337H28.6664V42.9431C28.5073 42.9525 28.3388 42.9619 28.1702 42.9712H28.0111C27.6179 42.99 27.234 42.9994 26.8408 42.9994C26.4008 42.9994 25.9608 42.99 25.5302 42.9712Z" fill="url(#paint0_linear_1725_2821)"/>
<path fill-rule="evenodd" clip-rule="evenodd" d="M48.2798 24.4255L44.8908 22.4659C45.5836 20.4782 45.9674 18.3405 45.9674 16.1184C45.9674 15.5089 45.9393 14.9089 45.8831 14.3182H42.0073C42.0728 14.9089 42.1103 15.5089 42.1103 16.1184C42.1103 24.5474 35.2573 31.4106 26.8408 31.4106C18.4244 31.4106 11.5714 24.5474 11.5714 16.1184C11.5714 14.8339 11.7399 13.5869 12.0395 12.3961L8.58495 10.399C8.02323 12.2086 7.71429 14.1213 7.71429 16.1184C7.71429 26.6758 16.2992 35.2735 26.8408 35.2735C33.7968 35.2735 39.8915 31.5419 43.2337 25.9726L46.5759 27.904L49.9275 29.8355C50.5829 28.7385 51.1633 27.5852 51.6595 26.3851L48.2798 24.4255Z" fill="url(#paint1_linear_1725_2821)"/>
<path fill-rule="evenodd" clip-rule="evenodd" d="M26.8408 8.55196C31.0069 8.55196 34.396 11.9461 34.396 16.1184C34.396 20.2907 31.0069 23.6754 26.8408 23.6754C22.6748 23.6754 19.2951 20.2907 19.2951 16.1184C19.2951 11.9461 22.6748 8.55196 26.8408 8.55196ZM16.8048 10.6897C15.9341 12.3024 15.4379 14.1588 15.4379 16.1184C15.4379 22.4191 20.5496 27.5477 26.8408 27.5477C33.1321 27.5477 38.2531 22.4191 38.2531 16.1184C38.2531 9.81772 33.1321 4.68905 26.8408 4.68905C23.9199 4.68905 21.2424 5.80479 19.2202 7.62374L15.7562 5.61727L12.3391 3.64832C11.4965 4.62342 10.7569 5.69228 10.1203 6.82678L16.8048 10.6897Z" fill="url(#paint2_linear_1725_2821)"/>
<defs>
<linearGradient id="paint0_linear_1725_2821" x1="-5.18204e-07" y1="7.96968" x2="46.3781" y2="35.1001" gradientUnits="userSpaceOnUse">
<stop stop-color="#1047D6"/>
<stop offset="1" stop-color="#001B7C"/>
</linearGradient>
<linearGradient id="paint1_linear_1725_2821" x1="-5.18204e-07" y1="7.96968" x2="46.3781" y2="35.1001" gradientUnits="userSpaceOnUse">
<stop stop-color="#1047D6"/>
<stop offset="1" stop-color="#001B7C"/>
</linearGradient>
<linearGradient id="paint2_linear_1725_2821" x1="-5.18204e-07" y1="7.96968" x2="46.3781" y2="35.1001" gradientUnits="userSpaceOnUse">
<stop stop-color="#1047D6"/>
<stop offset="1" stop-color="#001B7C"/>
</linearGradient>
</defs>
</svg>
