<svg width="52" height="44" viewBox="0 0 52 44" fill="none" xmlns="http://www.w3.org/2000/svg">
  <path fill-rule="evenodd" clip-rule="evenodd" d="M25.5302 43.9712H25.5114C25.3523 43.9619 25.1931 43.9525 25.034 43.9337H24.9684C24.8467 43.9244 24.725 43.915 24.6033 43.9056H24.5378C24.4161 43.8869 24.2944 43.8775 24.1727 43.8681C24.0697 43.8587 23.9761 43.8494 23.8825 43.84V43.8306H23.8637C23.7795 43.8212 23.6952 43.8119 23.611 43.8025H23.5735C23.4986 43.7931 23.4237 43.7837 23.3488 43.7743V43.765H23.3114C23.2365 43.7556 23.1616 43.7462 23.0867 43.7368H23.0773C22.8058 43.6993 22.5343 43.6525 22.2628 43.6056H22.2254C22.1692 43.5962 22.113 43.5868 22.0662 43.5775V43.5681H22.0381C21.9913 43.5587 21.9445 43.5493 21.8977 43.5399H21.8696L21.7011 43.5024H21.6917C21.4858 43.4649 21.2798 43.4181 21.0739 43.3712H21.0551C21.0083 43.3618 20.9521 43.3524 20.9053 43.3431C20.8585 43.3337 20.8211 43.3243 20.7743 43.3149V43.3055H20.7555C20.7181 43.2962 20.6807 43.2868 20.6432 43.2774V43.268H20.6151C20.3623 43.2118 20.1002 43.1462 19.8474 43.0805V43.0711H19.8381C19.7632 43.0524 19.6883 43.0336 19.6134 43.0149V43.0055H19.5947C19.5572 42.9961 19.5198 42.9868 19.4823 42.9774H19.473C19.4449 42.968 19.4168 42.9586 19.3887 42.9493V42.9399H19.3606C19.3232 42.9305 19.2951 42.9211 19.2576 42.9118L19.1546 42.8836V42.8743H19.1453C18.7989 42.7711 18.4619 42.668 18.1342 42.5555V42.5461H18.1155L18.0312 42.518V42.5086H18.0218L17.9376 42.4805H17.9282L17.8346 42.443C17.7129 42.4055 17.5912 42.3586 17.4695 42.3117C17.3759 42.2836 17.2916 42.2461 17.2073 42.2179C17.1512 42.1898 17.095 42.1711 17.0388 42.1523H17.0295C16.9827 42.1242 16.9265 42.1054 16.8797 42.0867V42.0773H16.8703C16.8141 42.0585 16.7673 42.0398 16.7112 42.021V42.0117C16.655 41.9929 16.5988 41.9742 16.5426 41.946C16.3929 41.8898 16.2337 41.8148 16.0839 41.7491L16.0184 41.721H16.009C15.9341 41.6835 15.8592 41.6554 15.7843 41.6179L15.7188 41.5897H15.7094C15.5877 41.5335 15.4754 41.4772 15.3537 41.421C15.1571 41.3272 14.9605 41.2335 14.7639 41.1303V41.1209H14.7451L14.6983 41.0928H14.6796L14.6328 41.0647V41.0553H14.6141L14.5673 41.0272H14.5579L14.5017 40.9897H14.4924L14.4362 40.9616H14.4268L14.3707 40.924C14.2209 40.849 14.0804 40.774 13.94 40.6896H13.9307C13.8558 40.6521 13.7809 40.6053 13.706 40.5678V40.5584H13.6966L13.6404 40.5303C13.5843 40.4927 13.5281 40.4646 13.4719 40.4365V40.4271H13.4626L13.4064 40.399C13.3502 40.3615 13.294 40.3334 13.2472 40.2959H13.2379C13.0787 40.2021 12.9102 40.099 12.751 39.9958C12.6574 39.9396 12.5732 39.8927 12.4795 39.8364C12.4515 39.8083 12.414 39.7895 12.3859 39.7708H12.3766C12.3485 39.7427 12.3204 39.7239 12.2829 39.7052V39.6958H12.2736C12.0489 39.5551 11.8148 39.3958 11.5902 39.2457V39.2364L11.4965 39.1707H11.4872C11.4123 39.1145 11.3374 39.0676 11.2625 39.0113V39.002H11.2531C11.1782 38.9551 11.1033 38.8988 11.0284 38.8426C10.8506 38.7113 10.6727 38.58 10.5042 38.4488V38.4394C10.448 38.4019 10.3918 38.3644 10.3356 38.3175V38.3081H10.3263L10.2046 38.2144C10.1484 38.1675 10.0922 38.1206 10.0361 38.0831C9.97989 38.0362 9.93308 37.9894 9.87691 37.9519C9.74584 37.8393 9.60541 37.7268 9.47434 37.6143L9.44625 37.5862H9.43689C9.37136 37.5299 9.31519 37.4737 9.24965 37.4174L9.2122 37.3893C9.11859 37.3049 9.03433 37.2299 8.95007 37.1549C8.82836 37.0424 8.70666 36.9392 8.58495 36.8267L8.55686 36.7892H8.5475L8.51942 36.7611C8.07004 36.3392 7.64875 35.9173 7.23682 35.4766V35.4672H7.22746L7.19938 35.4391V35.4297L7.17129 35.4016H7.16193C7.05895 35.2797 6.9466 35.1578 6.83426 35.0359C6.75936 34.9515 6.68447 34.8671 6.60957 34.7734H6.60021L6.57212 34.7453V34.7359C6.51595 34.6796 6.45978 34.614 6.40361 34.5484V34.539L6.37552 34.5109C6.26318 34.3796 6.15083 34.2483 6.04785 34.1077C6.00104 34.0608 5.95423 34.0046 5.90742 33.9483C5.86997 33.892 5.82316 33.8358 5.77635 33.7795L5.68273 33.6576V33.6483H5.67337C5.63592 33.592 5.58911 33.5358 5.55166 33.4795H5.5423C5.41123 33.3107 5.28017 33.1326 5.1491 32.9544C5.09293 32.8794 5.03675 32.8044 4.98994 32.7294V32.72H4.98058C4.92441 32.645 4.8776 32.57 4.82143 32.495V32.4856L4.75589 32.3919C4.59674 32.1669 4.44695 31.9325 4.29716 31.7074V31.6981H4.28779C4.26907 31.6699 4.25035 31.6324 4.23162 31.6043V31.5949H4.22226C4.20354 31.5668 4.18481 31.5293 4.15673 31.5012C4.10055 31.4074 4.05374 31.323 3.99757 31.2386V31.2293C3.89459 31.0699 3.79161 30.9105 3.69799 30.7417V30.7323C3.66054 30.6855 3.63245 30.6292 3.60437 30.5729H3.59501L3.56692 30.5167V30.5073H3.55756C3.52947 30.4511 3.50139 30.3948 3.46394 30.3385L3.43585 30.2823V30.2729H3.42649C3.38904 30.1979 3.34223 30.1229 3.30478 30.0479V30.0385C3.22053 29.8979 3.14563 29.7572 3.07073 29.6166L3.04265 29.551V29.5416H3.03329L3.0052 29.4853V29.476L2.96775 29.4197V29.4103L2.93967 29.3634V29.3447H2.93031L2.90222 29.2978V29.2791L2.87413 29.2322V29.2134H2.86477C2.77115 29.0165 2.66817 28.8196 2.57455 28.6227C2.51838 28.5009 2.46221 28.3883 2.4154 28.2665V28.2571H2.40603L2.37795 28.1914C2.3405 28.1164 2.31241 28.0414 2.27497 27.9664V27.957L2.24688 27.8914C2.18135 27.7414 2.11581 27.582 2.05028 27.432C2.02219 27.3757 2.00347 27.3195 1.98474 27.2726V27.2632H1.97538C1.95666 27.207 1.93793 27.1601 1.91921 27.1038V27.0944H1.90985C1.89112 27.0476 1.8724 26.9913 1.85368 26.9444V26.9351H1.84431C1.82559 26.8788 1.80687 26.8225 1.77878 26.7663C1.75069 26.6819 1.71325 26.5975 1.68516 26.5038C1.63835 26.3819 1.59154 26.26 1.55409 26.1475V26.1381L1.51664 26.0537V26.0443L1.48856 25.96V25.9412H1.4792L1.45111 25.8662V25.8381H1.44175C1.3294 25.5099 1.22642 25.1724 1.12344 24.8255V24.8161L1.08599 24.7223V24.7129C1.07663 24.6848 1.06727 24.6473 1.05791 24.6098V24.5817H1.04854C1.03918 24.5536 1.02982 24.5254 1.02046 24.4973V24.4879C1.0111 24.4504 1.00173 24.4129 0.992372 24.3754V24.3567H0.98301C0.964286 24.2817 0.945562 24.2066 0.926838 24.1316V24.1223H0.917476C0.851942 23.8691 0.786408 23.6066 0.730236 23.3534V23.3253H0.720874C0.711512 23.2878 0.70215 23.2503 0.692788 23.2128V23.194C0.683426 23.1565 0.674064 23.1097 0.664702 23.0628H0.65534C0.645978 23.0159 0.636616 22.9596 0.627254 22.9128V22.894C0.580444 22.6877 0.533634 22.4815 0.496186 22.2752V22.2658L0.458738 22.1064V22.0689C0.449376 22.022 0.440014 21.9752 0.430652 21.9283V21.9095H0.42129C0.411928 21.8533 0.402566 21.797 0.393204 21.7408V21.7033C0.346394 21.4313 0.299584 21.1594 0.262136 20.8875V20.8782C0.252774 20.8032 0.243412 20.7281 0.23405 20.6531V20.6156H0.224688C0.215326 20.5406 0.205964 20.4656 0.196602 20.3906V20.3531C0.18724 20.2687 0.177878 20.1843 0.168516 20.1V20.0906H0.159154C0.149792 19.9874 0.14043 19.8937 0.131068 19.7905C0.121706 19.6687 0.112344 19.5468 0.102982 19.4249V19.3593H0.09362C0.084258 19.2374 0.074896 19.1155 0.065534 18.9936V18.928C0.04681 18.7686 0.037448 18.6092 0.037448 18.4498V18.431H0.028086C0.009362 17.9997 0 17.5591 0 17.1184C0 16.7715 0.009362 16.4246 0.018724 16.087H0.037448V15.7682C0.037448 15.5901 0.056172 15.4026 0.065534 15.2244C0.074896 15.1119 0.084258 14.9994 0.09362 14.8963H0.102982V14.7931C0.102982 14.7181 0.112344 14.6431 0.121706 14.5587H0.131068V14.4369L0.149792 14.2306H0.168516V14.1181C0.177878 14.0431 0.177878 13.9774 0.18724 13.9024H0.196602V13.8368C0.215326 13.6774 0.23405 13.5274 0.262136 13.368V13.3305L0.290222 13.1711H0.299584V13.1055L0.318308 12.9461H0.32767V12.8898L0.355756 12.7398H0.365118V12.6835L0.383842 12.5429H0.393204V12.4866L0.42129 12.346H0.430652V12.2991L0.458738 12.1491V12.121C0.486824 12.0085 0.505548 11.896 0.524272 11.7834L0.552358 11.6522H0.56172V11.6241L0.589806 11.4834V11.4647L0.617892 11.3522H0.627254V11.3146L0.645978 11.2209H0.664702V11.1646L0.683426 11.0521H0.692788V11.024L0.711512 10.9209H0.730236V10.8834L0.74896 10.7896H0.758322V10.7427L0.786408 10.6302H0.79577V10.6021L0.823856 10.4896V10.4708L0.851942 10.3583H0.861304V10.3489C0.880028 10.2645 0.898752 10.1802 0.926838 10.0958C0.945562 10.0208 0.964286 9.94575 0.992372 9.86137V9.85199L1.02046 9.76761V9.73948L1.05791 9.63635V9.62697L1.08599 9.53321V9.51446L1.11408 9.43945H1.12344V9.40195L1.15153 9.29881V9.28943L1.17961 9.20505H1.18897V9.17692L1.21706 9.10191H1.22642V9.07379L1.25451 8.97065L1.28259 8.87689H1.29196V8.86751L1.32004 8.77375V8.76438C1.36685 8.63311 1.4043 8.50185 1.45111 8.37996V8.37059L1.48856 8.27683L1.54473 8.10806H1.55409V8.08931L1.58218 8.0143V7.99555L1.61026 7.91116H1.61963V7.90179L1.63835 7.84553H1.64771V7.8174L1.6758 7.75177H1.68516V7.72364L1.71325 7.64863V7.63926L1.74133 7.583H1.75069V7.5455L1.77878 7.47987V7.46111L1.81623 7.38611V7.37673L1.88176 7.21734V7.20796C1.92857 7.10483 1.96602 6.99231 2.01283 6.88918V6.8798L2.07836 6.72041L2.10645 6.65478H2.11581V6.6454L2.13454 6.58915H2.1439V6.57039L2.18135 6.49539V6.48601L2.20943 6.42976V6.411L2.23752 6.35475H2.24688V6.33599L2.2656 6.28911H2.27497V6.26099L2.31241 6.19535V6.18598L2.3405 6.12972V6.11097L2.36859 6.06409H2.37795V6.03596L2.39667 5.99846H2.4154V5.97033L2.44348 5.89532L2.47157 5.82969H2.48093V5.82032L2.50902 5.76406V5.75468L2.5371 5.69843H2.54646V5.67968C2.67753 5.3984 2.81796 5.11712 2.95839 4.83584H2.96775V4.80771L2.99584 4.7702H3.0052V4.74208L3.02393 4.70457H3.04265V4.68582L3.06137 4.63894H3.07073V4.62019L3.09882 4.57331H3.10818V4.55456L3.12691 4.50768H3.13627V4.4983L3.16436 4.44204H3.17372V4.43267L3.2018 4.37641C3.25797 4.27328 3.31415 4.17952 3.36096 4.07638H3.37032V4.067L3.3984 4.01075L3.43585 3.95449L3.52947 3.77635L3.58564 3.68259H3.60437V3.66384L3.63245 3.61696V3.60758L3.68863 3.51382H3.69799V3.49507L3.72607 3.44819H3.73544V3.43881L3.78225 3.34505H3.80097V3.3263L3.81969 3.27942H3.82906V3.27004L3.88523 3.18566H3.89459V3.15753L3.92268 3.12003H3.93204V3.11065L3.9414 3.08252H3.96012V3.0544L3.98821 3.01689H3.99757V2.99814L4.02566 2.95126V2.94188L4.04438 2.92313H4.06311V2.895L4.09119 2.8575V2.83875L4.14736 2.75436H4.15673V2.73561L4.19417 2.68873V2.67936L4.25035 2.5856H4.25971V2.57622L4.31588 2.49184H4.32524V2.47308C4.4095 2.3512 4.49376 2.21993 4.57802 2.08867H4.58738V2.07929L4.64355 1.99491H4.65291V1.97616L4.71845 1.89177V1.8824L4.73717 1.86364H4.75589V1.83552L4.78398 1.79801H4.79334V1.78864L4.81207 1.76051H4.82143V1.74176L4.84951 1.69488H4.85888L4.8776 1.66675H4.88696V1.648L4.89632 1.62925H4.92441V1.60112L4.94313 1.56361H4.9525V1.55424L4.97122 1.52611H4.98994V1.50736L5.01803 1.46048L5.03675 1.43235H5.05548V1.4136L5.06484 1.39485H5.08356V1.36672L5.11165 1.32921H5.12101V1.31984L5.13974 1.30109H5.1491V1.27296L5.18655 1.23545L5.20527 1.19795H5.21463V1.18857L5.23336 1.16982H5.25208V1.14169L5.28017 1.10419V1.09481L5.30825 1.06669H5.31761V1.05731L5.38315 0.963549L5.40187 0.935421H5.4206V0.926045L5.48613 0.832285L5.56103 0.738525H5.57975L8.95007 2.68873C8.14494 3.69196 7.4147 4.76083 6.78745 5.89532C4.91505 9.21443 3.85714 13.0492 3.85714 17.1184C3.85714 29.8135 14.1741 40.1365 26.8408 40.1365C33.8249 40.1365 40.0974 36.9955 44.3197 32.0544L47.7181 34.0233C47.6619 34.0889 47.6151 34.1452 47.5589 34.2108L47.5309 34.239H47.5215V34.2483C47.4841 34.3046 47.4372 34.3515 47.3904 34.4077L47.3623 34.4452L47.3436 34.4734H47.3249V34.4921C47.2874 34.539 47.2406 34.5859 47.1938 34.6421L47.1657 34.6703V34.6796L47.1377 34.7078H47.1283V34.7171C47.0815 34.7734 47.044 34.8203 46.9972 34.8671L46.9691 34.9047L46.9411 34.9328H46.9317V34.9422C46.8568 35.0359 46.7819 35.1203 46.6976 35.2047L46.6696 35.2328V35.2422C46.5385 35.3828 46.4074 35.5235 46.267 35.6641L46.2389 35.7016L46.2108 35.7297H46.2015L46.1734 35.7672L46.1453 35.7954H46.1359V35.8048L46.0798 35.861H46.0704V35.8704L46.0517 35.8985H46.0423V35.9079L46.0142 35.9266H46.0049V35.936C45.8551 36.0954 45.7053 36.2454 45.5555 36.3954H45.5461L45.518 36.4236H45.5087V36.4329L45.4525 36.4892H45.4431V36.4986L45.415 36.5267L45.3776 36.5548C45.2653 36.6673 45.1436 36.7799 45.0312 36.8924H45.0125V36.9017L44.9938 36.9205H44.9844V36.9299L44.9563 36.958H44.9469L44.9189 36.9861V36.9955C44.8065 37.0893 44.6942 37.1924 44.5912 37.2862C44.5257 37.3424 44.4601 37.3987 44.4039 37.4549H44.3852V37.4643L44.3571 37.4831V37.4924L44.3197 37.5206C44.2729 37.5581 44.2167 37.6049 44.1699 37.6518H44.1605V37.6612L44.1325 37.6799H44.1231V37.6893C44.0763 37.7268 44.0201 37.7737 43.9733 37.8112H43.9546V37.8206L43.9265 37.8487C43.8703 37.8956 43.8235 37.9331 43.7673 37.98H43.758V37.9894L43.7299 38.0175C43.5801 38.1394 43.4209 38.2613 43.2712 38.3738H43.2618V38.3831C43.2243 38.4113 43.1869 38.4488 43.1401 38.4769H43.1307V38.4863L43.009 38.58H42.9997C42.9622 38.6175 42.9154 38.6457 42.8779 38.6738H42.8686V38.6832L42.7469 38.7769H42.7375L42.6064 38.8707V38.8801L42.4754 38.9738C42.363 39.0488 42.2601 39.1239 42.1477 39.2082H42.1383L42.0541 39.2739H42.0447L41.9511 39.3395H41.9417L41.8575 39.4051H41.8481V39.4145L41.7545 39.4708H41.7451V39.4801L41.6609 39.5364H41.6515V39.5458L41.5579 39.602H41.5485V39.6114L41.4549 39.6677H41.4456V39.677L41.3519 39.7333L41.249 39.7989C41.1647 39.8552 41.0804 39.9114 40.9868 39.9677C40.9306 39.9958 40.8838 40.0333 40.8277 40.0615H40.8183V40.0708C40.7715 40.099 40.7153 40.1365 40.6685 40.1646H40.6592V40.174L40.5562 40.2302L40.5 40.2584H40.4906V40.2677C40.4345 40.2959 40.3877 40.3334 40.3315 40.3615H40.3221C40.2753 40.399 40.2191 40.4271 40.163 40.4646L40.1068 40.4927H40.0974V40.5021C39.9196 40.5959 39.7417 40.699 39.5638 40.7928L39.5076 40.8209H39.4983V40.8303L39.4421 40.8584H39.4327V40.8678L39.3859 40.8865H39.3672V40.8959L39.3204 40.924H39.3017V40.9334L39.2549 40.9616H39.2361V40.9709C38.9178 41.1397 38.5901 41.2991 38.2625 41.4491H38.2438V41.4585L38.1876 41.4866H38.1782L38.1127 41.5241C38.0472 41.5522 37.9723 41.5897 37.8974 41.6179H37.8786V41.6272L37.8318 41.6554H37.8131L37.7569 41.6835H37.7476C37.6727 41.721 37.6071 41.7491 37.5322 41.7866H37.5229C37.3637 41.8523 37.2139 41.9179 37.0641 41.9835H37.0548C37.008 42.0023 36.9518 42.0304 36.8956 42.0492C36.8395 42.0773 36.7833 42.096 36.7365 42.1148H36.7271L36.6522 42.1523H36.6241V42.1617L36.568 42.1804H36.5586L36.4837 42.2179H36.465L36.3058 42.2836H36.2965L36.2216 42.3117H36.1935V42.3211C36.1467 42.3398 36.0905 42.3586 36.0437 42.3773H36.0343V42.3867C35.8845 42.4336 35.7254 42.4898 35.5756 42.5461H35.5662L35.482 42.5742H35.4726V42.5836L35.379 42.6117H35.3696L35.276 42.6399V42.6492L35.1824 42.6774H35.173L35.0794 42.7149C35.0045 42.7336 34.939 42.7524 34.8734 42.7805H34.8454L34.7611 42.8086H34.7424V42.818L34.6581 42.8461H34.6488C34.5364 42.8743 34.4334 42.9118 34.3211 42.9399H34.3117C34.2368 42.968 34.1619 42.9868 34.087 43.0055L33.9747 43.043H33.956L33.853 43.0711H33.8155V43.0805L33.7313 43.1087H33.6845V43.118L33.6002 43.1368H33.5908V43.1462L33.4691 43.1743H33.4598L33.3381 43.2024H33.3287V43.2118L33.207 43.2399H33.1883L33.0666 43.268H33.0572V43.2774L32.9261 43.3055C32.8793 43.3149 32.8325 43.3243 32.7857 43.3431H32.767L32.6359 43.3712H32.6266C32.5798 43.3806 32.5329 43.3899 32.4861 43.4087H32.4674L32.327 43.4368H32.2989V43.4462L32.1678 43.4743H32.1397L31.9993 43.5024H31.9712V43.5118L31.8308 43.5399H31.8027L31.6436 43.5681C31.5125 43.5962 31.3908 43.615 31.2597 43.6337H31.241V43.6431C31.1848 43.6525 31.1193 43.6618 31.0631 43.6712H31.0163V43.6806L30.8478 43.6993H30.7822V43.7087L30.6231 43.7368H30.5482V43.7462C30.492 43.7556 30.4359 43.765 30.3797 43.765H30.3235V43.7743C30.155 43.8025 29.9958 43.8212 29.8273 43.8306V43.84C29.7243 43.8494 29.6214 43.8587 29.5184 43.8681H29.4248V43.8775C29.3405 43.8869 29.2469 43.8962 29.1626 43.9056H29.0596C28.9567 43.915 28.8443 43.9244 28.732 43.9337H28.6664V43.9431C28.5073 43.9525 28.3388 43.9619 28.1702 43.9712H28.0111C27.6179 43.99 27.234 43.9994 26.8408 43.9994C26.4008 43.9994 25.9608 43.99 25.5302 43.9712Z" fill="url(#paint0_linear_1404_4361)" />
  <path fill-rule="evenodd" clip-rule="evenodd" d="M48.2798 25.4255L44.8908 23.4659C45.5836 21.4782 45.9674 19.3405 45.9674 17.1184C45.9674 16.509 45.9393 15.9089 45.8831 15.3182H42.0073C42.0728 15.9089 42.1103 16.509 42.1103 17.1184C42.1103 25.5474 35.2573 32.4106 26.8408 32.4106C18.4244 32.4106 11.5714 25.5474 11.5714 17.1184C11.5714 15.8339 11.7399 14.5869 12.0395 13.3961L8.58495 11.399C8.02323 13.2086 7.71429 15.1213 7.71429 17.1184C7.71429 27.6758 16.2992 36.2735 26.8408 36.2735C33.7968 36.2735 39.8915 32.5419 43.2337 26.9726L46.5759 28.904L49.9275 30.8355C50.5829 29.7385 51.1633 28.5852 51.6595 27.3851L48.2798 25.4255Z" fill="url(#paint1_linear_1404_4361)" />
  <path fill-rule="evenodd" clip-rule="evenodd" d="M26.8408 9.55196C31.0069 9.55196 34.396 12.9461 34.396 17.1184C34.396 21.2907 31.0069 24.6754 26.8408 24.6754C22.6748 24.6754 19.2951 21.2907 19.2951 17.1184C19.2951 12.9461 22.6748 9.55196 26.8408 9.55196ZM16.8048 11.6897C15.9341 13.3024 15.4379 15.1588 15.4379 17.1184C15.4379 23.4191 20.5496 28.5477 26.8408 28.5477C33.1321 28.5477 38.2531 23.4191 38.2531 17.1184C38.2531 10.8177 33.1321 5.68905 26.8408 5.68905C23.9199 5.68905 21.2424 6.80479 19.2202 8.62374L15.7562 6.61727L12.3391 4.64832C11.4965 5.62342 10.7569 6.69228 10.1203 7.82678L16.8048 11.6897Z" fill="url(#paint2_linear_1404_4361)" />
  <defs>
    <linearGradient id="paint0_linear_1404_4361" x1="-5.18204e-07" y1="8.96968" x2="46.3781" y2="36.1001" gradientUnits="userSpaceOnUse">
      <stop stop-color="#1047D6" />
      <stop offset="1" stop-color="#001B7C" />
    </linearGradient>
    <linearGradient id="paint1_linear_1404_4361" x1="-5.18204e-07" y1="8.96968" x2="46.3781" y2="36.1001" gradientUnits="userSpaceOnUse">
      <stop stop-color="#1047D6" />
      <stop offset="1" stop-color="#001B7C" />
    </linearGradient>
    <linearGradient id="paint2_linear_1404_4361" x1="-5.18204e-07" y1="8.96968" x2="46.3781" y2="36.1001" gradientUnits="userSpaceOnUse">
      <stop stop-color="#1047D6" />
      <stop offset="1" stop-color="#001B7C" />
    </linearGradient>
  </defs>
</svg>
