<svg width="40" height="40" viewBox="0 0 40 40" fill="none" xmlns="http://www.w3.org/2000/svg">
<circle cx="20" cy="20" r="20" fill="#E1E7F3"/>
<path fill-rule="evenodd" clip-rule="evenodd" d="M22.1571 11.3602C21.5816 11.1216 20.965 10.9992 20.3426 11L20.3334 11.0002C19.1533 11.0502 18.0366 11.5529 17.2134 12.4055C16.3902 13.2582 15.9231 14.396 15.9091 15.5849V18.6114C15.9089 18.929 15.9718 19.2433 16.0939 19.5361C16.2159 19.8285 16.3946 20.0933 16.6194 20.3153L16.6202 20.3161L17.3636 21.0624V21.6996C17.362 21.8072 17.3249 21.9115 17.2579 21.9963C17.1905 22.0815 17.0965 22.1421 16.9904 22.1683L16.9886 22.1687C15.8505 22.4591 14.8405 23.1219 14.1181 24.0533C13.3957 24.9847 13.0022 26.132 13 27.3135V28.0385C13 28.2943 13.1012 28.5391 13.2804 28.7192C13.4596 28.8993 13.7021 29 13.9545 29H27.0455C27.2979 29 27.5404 28.8993 27.7196 28.7192C27.8988 28.5391 28 28.2943 28 28.0385V27.3131C27.9977 26.1317 27.6043 24.985 26.882 24.0536C26.1598 23.1223 25.1501 22.4593 24.0122 22.1687L24.0101 22.1682C23.9039 22.1422 23.8098 22.0816 23.7423 21.9964C23.6752 21.9116 23.6381 21.8072 23.6364 21.6995V21.0624L24.3715 20.3244C24.5986 20.102 24.7793 19.8361 24.9029 19.5422C25.0267 19.2478 25.0907 18.9313 25.0909 18.6115V15.7612C25.0901 15.1348 24.9665 14.5148 24.7273 13.9365C24.488 13.3583 24.1378 12.8332 23.6968 12.3911C23.2558 11.9491 22.7325 11.5989 22.1571 11.3602ZM15.6261 25.2323C15.2118 25.7645 14.9663 26.4071 14.9179 27.0769H26.0821C26.0336 26.4073 25.7881 25.765 25.374 25.233C24.9123 24.6398 24.2669 24.2173 23.5393 24.0326C23.0237 23.9015 22.5656 23.6018 22.2374 23.18C21.9091 22.7582 21.7295 22.2383 21.7273 21.7022L21.7273 21.7012V20.6635C21.7273 20.4077 21.8285 20.1629 22.0078 19.9828L23.0369 18.9496C23.0827 18.9056 23.1191 18.8529 23.1439 18.7947C23.1687 18.7366 23.1816 18.6739 23.1818 18.6109V15.7612C23.1829 15.0152 22.891 14.2985 22.3687 13.7668C21.8477 13.2365 21.1395 12.9332 20.397 12.9231C19.7093 12.9523 19.0591 13.2448 18.5797 13.74C18.0993 14.2361 17.8271 14.898 17.8182 15.5891L17.8182 18.6119C17.8181 18.6734 17.8302 18.7342 17.8539 18.791C17.8776 18.8478 17.9124 18.8995 17.9564 18.9428L17.9579 18.9443L18.9922 19.9821C19.1715 20.1622 19.2727 20.407 19.2727 20.6628V21.7005L19.2727 21.7015C19.2705 22.2375 19.091 22.7572 18.7629 23.179C18.4349 23.6008 17.9768 23.9007 17.4613 24.0319C16.7335 24.2165 16.0879 24.639 15.6261 25.2323Z" fill="#616F8A"/>
</svg>
