<svg width="40" height="40" viewBox="0 0 40 40" fill="none" xmlns="http://www.w3.org/2000/svg">
<circle cx="20" cy="20" r="20" fill="#E1E7F3"/>
<path d="M16.0107 20.6319H18.4437V27.6589C18.4437 28.217 18.8964 28.6697 19.4544 28.6697C20.013 28.6697 20.4652 28.217 20.4652 27.6589V20.6319H23.026C23.584 20.6319 24.0368 20.1791 24.0368 19.6211C24.0368 19.0631 23.584 18.6104 23.026 18.6104H20.4652V14.7824C20.4652 13.8117 21.2553 13.0215 22.2266 13.0215H23.5353C24.0933 13.0215 24.546 12.5688 24.546 12.0107C24.546 11.4522 24.0933 11 23.5353 11H22.2266C20.1409 11 18.4437 12.6967 18.4437 14.7824V18.6104H16.0107C15.4527 18.6104 15 19.0631 15 19.6211C15 20.1791 15.4527 20.6319 16.0107 20.6319Z" fill="#616F8A"/>
</svg>
