<svg width="40" height="40" viewBox="0 0 40 40" fill="none" xmlns="http://www.w3.org/2000/svg">
<circle cx="20" cy="20" r="20" fill="#E1E7F3"/>
<path d="M26.1985 11C25.7553 11 25.3966 11.377 25.3966 11.8417V12.2191C24.2663 12.9183 23.078 13.5219 21.8564 14.0159C20.8782 14.4113 19.8678 14.7401 18.8458 14.9974C18.6887 14.8707 18.4932 14.794 18.2802 14.794H14.6085C13.7213 14.794 13 15.5515 13 16.4821V20.9021C13 21.8332 13.7213 22.5903 14.6085 22.5903H15.3423L15.6205 28.2022C15.6426 28.6515 15.9968 29 16.4207 29C16.4345 29 16.4487 28.9996 16.4629 28.9987C16.9052 28.9746 17.2452 28.5787 17.2223 28.1145L16.9483 22.5903H18.2802C18.4928 22.5903 18.6887 22.514 18.8453 22.3873C19.4961 22.5521 20.1435 22.7459 20.7762 22.9664C21.1968 23.1124 21.6504 22.8735 21.7899 22.4325C21.9294 21.991 21.7014 21.5145 21.2812 21.3686C20.6017 21.1318 19.9066 20.9236 19.2075 20.747V16.6382C20.3026 16.3629 21.3848 16.01 22.4327 15.5866C23.446 15.1767 24.4384 14.6967 25.3961 14.1531V23.2334C25.0436 23.0335 24.6873 22.8428 24.3286 22.6617C23.9293 22.4601 23.4502 22.6363 23.2585 23.0554C23.0664 23.4745 23.2343 23.9773 23.6336 24.1789C24.2308 24.4805 24.8214 24.8128 25.3961 25.167V25.5426C25.3961 26.0077 25.7553 26.3843 26.1981 26.3843C26.6408 26.3843 27 26.0077 27 25.5426V11.8417C27.0004 11.377 26.6412 11 26.1985 11V11ZM17.604 20.9065L14.6039 20.9021L14.6085 16.4773H17.604V20.9065Z" fill="#616F8A"/>
</svg>
