<svg width="40" height="40" viewBox="0 0 40 40" fill="none" xmlns="http://www.w3.org/2000/svg">
<circle cx="20" cy="20" r="20" fill="#E1E7F3"/>
<path fill-rule="evenodd" clip-rule="evenodd" d="M21.0905 11.0146C21.0905 10.4586 21.5466 10 22.0995 10C25.9061 10 29 13.1112 29 16.9389C29 17.4949 28.544 17.9535 27.991 17.9535H22.0995C21.5466 17.9535 21.0905 17.4949 21.0905 16.9389V11.0146ZM23.1085 12.1379V15.9243H26.874C26.4764 14.0308 24.9915 12.5376 23.1085 12.1379ZM10 20.3106C10 15.5259 13.875 11.6303 18.6412 11.6303C19.2383 11.6303 19.7478 12.1164 19.7478 12.743V19.1979H26.167C26.7901 19.1979 27.2735 19.7103 27.2735 20.3106C27.2735 25.1034 23.3995 29 18.6412 29C13.8745 29 10 25.1039 10 20.3106ZM17.5347 13.9469C14.5192 14.4773 12.2131 17.135 12.2131 20.3106C12.2131 23.8769 15.0947 26.7746 18.6412 26.7746C21.7993 26.7746 24.4423 24.4556 24.9698 21.4234H18.6412C18.0267 21.4234 17.5347 20.9286 17.5347 20.3106V13.9469Z" fill="#616F8A"/>
</svg>
