<svg width="40" height="40" viewBox="0 0 40 40" fill="none" xmlns="http://www.w3.org/2000/svg">
<circle cx="20" cy="20" r="20" fill="#E1E7F3"/>
<path d="M17.2789 16.1382C15.2725 18.1504 15.7103 21.4897 18.0086 22.969C18.0844 23.0178 18.1851 23.0081 18.2502 22.9465C18.734 22.4882 19.1433 22.0443 19.5017 21.4798C19.5566 21.3934 19.5225 21.2814 19.4305 21.233C19.0799 21.049 18.7311 20.7038 18.5347 20.3391C18.2995 19.8851 18.2191 19.3763 18.3437 18.8506C18.487 18.1777 19.2327 17.5517 19.802 16.9728L19.7984 16.9716L21.9313 14.8615C22.7812 14.0206 24.1793 14.0137 25.0381 14.8461C25.9056 15.67 25.92 17.032 25.07 17.8729L23.7781 19.1606C23.7183 19.2202 23.6989 19.3072 23.7269 19.3858C24.0244 20.2219 24.0975 21.4009 23.8982 22.2916C23.8926 22.3165 23.9243 22.3328 23.9427 22.3146L26.6923 19.5944C28.4488 17.8567 28.4339 15.0274 26.6592 13.3072C24.8481 11.5516 21.8997 11.5663 20.1071 13.3396L17.2899 16.1268C17.2862 16.1306 17.2827 16.1344 17.2789 16.1382Z" fill="#616F8A"/>
<path d="M22.4505 23.8749L22.4555 23.873C23.0168 22.8765 23.1273 21.7335 22.8643 20.6194L22.8631 20.6206L22.8618 20.62C22.612 19.6277 21.9266 18.6423 20.9957 18.0356C20.9157 17.9834 20.7878 17.9894 20.7128 18.0483C20.2413 18.4185 19.7797 18.8931 19.4752 19.4989C19.4274 19.594 19.4632 19.7082 19.5574 19.7613C19.9109 19.9605 20.23 20.2522 20.4437 20.6394C20.6103 20.913 20.7747 21.4318 20.6684 21.9895C20.5693 22.7289 19.8 23.4071 19.1887 24.0182C18.7233 24.4802 17.5406 25.6514 17.067 26.1212C16.2167 26.9637 14.8112 26.9777 13.9434 26.1522C13.0757 25.3267 13.0613 23.962 13.9115 23.1195L15.2076 21.8254C15.2664 21.7668 15.2864 21.6815 15.2602 21.6037C14.9724 20.7464 14.8936 19.5918 15.0753 18.7003C15.0803 18.6755 15.0488 18.6596 15.0306 18.6777L12.3215 21.3622C10.5465 23.1212 10.5615 25.985 12.355 27.7263C14.1666 29.4496 17.101 29.4205 18.876 27.6616C19.4926 26.9919 22.1322 24.6191 22.4505 23.8749Z" fill="#616F8A"/>
</svg>
