<svg width="40" height="40" viewBox="0 0 40 40" fill="none" xmlns="http://www.w3.org/2000/svg">
<circle cx="20" cy="20" r="20" fill="#E1E7F3"/>
<path d="M18.8594 18.4501L21.2594 20.1167C21.3471 20.1777 21.4004 20.2845 21.4004 20.3994C21.4004 20.5143 21.3471 20.6212 21.2594 20.6821L18.8594 22.3487C18.8108 22.3825 18.7557 22.3994 18.7004 22.3994C18.6504 22.3994 18.6003 22.3855 18.555 22.3576C18.4596 22.2989 18.4004 22.1873 18.4004 22.0661V18.7327C18.4004 18.6116 18.4596 18.4999 18.555 18.4412C18.6504 18.3825 18.7669 18.3859 18.8594 18.4501Z" fill="#616F8A"/>
<path fill-rule="evenodd" clip-rule="evenodd" d="M26.0828 13H13.0916C11.3865 13 10 14.3865 10 16.0916V24.7045C10 26.4096 11.3865 27.7961 13.0916 27.7961H26.0828C27.7878 27.7961 29.1744 26.4096 29.1744 24.7045V16.0916C29.1744 14.3865 27.7878 13 26.0828 13ZM26.0828 25.9195C26.7524 25.9195 27.2977 25.3741 27.2977 24.7045V16.0916C27.2977 15.422 26.7524 14.8766 26.0828 14.8766H13.0916C12.422 14.8766 11.8766 15.422 11.8766 16.0916V24.7045C11.8766 25.3741 12.422 25.9195 13.0916 25.9195H26.0828Z" fill="#616F8A"/>
</svg>
