<svg width="40" height="40" viewBox="0 0 40 40" fill="none" xmlns="http://www.w3.org/2000/svg">
<circle cx="20" cy="20" r="20" fill="#E1E7F3"/>
<path fill-rule="evenodd" clip-rule="evenodd" d="M27.3329 13.5996H12.8663C11.6229 13.5996 10.5996 14.6053 10.5996 15.8458V18.5381C10.5996 19.017 10.9929 19.3996 11.4663 19.3996C11.9397 19.3996 12.3329 19.017 12.3329 18.5381V16.3928L16.5877 19.9996L12.3329 23.6065V21.4611C12.3329 20.9822 11.9397 20.5996 11.4663 20.5996C10.9929 20.5996 10.5996 20.9822 10.5996 21.4611V24.1535C10.5996 25.3939 11.6229 26.3996 12.8663 26.3996H27.3329C28.5763 26.3996 29.5996 25.3939 29.5996 24.1535V15.8458C29.5996 14.6053 28.5763 13.5996 27.3329 13.5996ZM20.0421 20.6529L13.7441 15.3227H26.4551L20.1571 20.6529C20.1327 20.6691 20.1131 20.6727 20.0996 20.6727C20.0861 20.6727 20.0665 20.6691 20.0421 20.6529ZM22.2715 21.1258L26.457 24.6765H13.7422L17.9277 21.1258L18.9256 21.9847C19.2589 22.2829 19.6808 22.4304 20.0996 22.4304C20.5184 22.4304 20.9403 22.2829 21.2736 21.9847L22.2715 21.1258ZM23.6115 19.9996L27.8663 23.6065V16.3928L23.6115 19.9996Z" fill="#616F8A"/>
</svg>
