<svg width="40" height="40" viewBox="0 0 40 40" fill="none" xmlns="http://www.w3.org/2000/svg">
<circle cx="20" cy="20" r="20" fill="#E1E7F3"/>
<path d="M14.997 26.4066L19.9697 29.831C20.2942 30.0563 20.7232 30.0563 21.0477 29.831L26.0054 26.4076C27.7276 25.224 28.9996 22.7498 28.9996 20.6517V13.7232C29.01 13.357 28.8094 13.0173 28.4853 12.8508L20.914 9.09962C20.6484 8.96679 20.3366 8.96679 20.071 9.09962L12.5137 12.8404C12.1897 13.0069 11.9896 13.3466 12.0004 13.7128V20.6517C12.0004 22.7498 13.2753 25.224 14.997 26.4066ZM13.9294 14.319L20.5 11.0535L27.0706 14.328V20.6517C27.0706 22.1151 26.1184 23.9765 24.917 24.8014L20.4887 27.852L16.0779 24.8019C14.8765 23.976 13.9294 22.1151 13.9294 20.6517V14.319Z" fill="#616F8A"/>
<path d="M18.8693 22.1194C19.0492 22.3044 19.2951 22.4093 19.5522 22.4107H19.5546C19.8107 22.4097 20.0561 22.3063 20.2365 22.1232L24.0733 18.2572C24.4505 17.8777 24.4505 17.262 24.0737 16.8825C23.6975 16.5025 23.0862 16.5025 22.7094 16.882L19.5579 20.056L18.2981 18.7747C17.9227 18.3933 17.3119 18.3905 16.9333 18.7686C16.5546 19.1466 16.5523 19.7619 16.9272 20.1432L18.8693 22.1194Z" fill="#616F8A"/>
</svg>
