<svg width="40" height="40" viewBox="0 0 40 40" fill="none" xmlns="http://www.w3.org/2000/svg">
<circle cx="20" cy="20" r="20" fill="#E1E7F3"/>
<path d="M21.1137 17.2439L23.0832 17.5091C23.2227 17.5278 23.3387 17.6184 23.3822 17.7426C23.4258 17.8669 23.3895 18.0032 23.2885 18.0944L21.8632 19.3812L22.1964 21.1796C22.2024 21.2042 22.2056 21.2299 22.2056 21.2562C22.2056 21.4455 22.0403 21.5989 21.8361 21.5994H21.8346C21.7756 21.5994 21.7164 21.5864 21.6622 21.56L19.9004 20.7021L18.1388 21.56C18.0139 21.6208 17.8627 21.6106 17.7486 21.5339C17.6345 21.4571 17.5774 21.327 17.6012 21.1982L17.9376 19.3812L16.5123 18.0944C16.4113 18.0032 16.375 17.8668 16.4185 17.7426C16.4621 17.6184 16.5781 17.5278 16.7176 17.5091L18.6872 17.2439L19.5682 15.5907C19.6306 15.4736 19.7594 15.3994 19.9004 15.3994C20.0414 15.3994 20.1702 15.4736 20.2326 15.5907L21.1137 17.2439Z" fill="#616F8A"/>
<path fill-rule="evenodd" clip-rule="evenodd" d="M11 13.2317C11 12.0008 12.0008 11 13.2317 11H26.5682C27.7992 11 28.8 12.0008 28.8 13.2317V24.4344C28.8 25.6653 27.7992 26.6661 26.5683 26.6661H22.4058L20.535 28.5369C20.3665 28.7054 20.1381 28.8 19.9 28.8C19.6617 28.8 19.4333 28.7053 19.2649 28.5369L17.3941 26.6661H13.2317C12.0008 26.6661 11 25.6653 11 24.4344V13.2317ZM13.2317 12.7961C12.9918 12.7961 12.7961 12.9919 12.7961 13.2317V24.4344C12.7961 24.6743 12.9919 24.87 13.2317 24.87H17.7661C18.0044 24.87 18.2328 24.9647 18.4012 25.1331L19.9 26.6319L21.3987 25.1332C21.5672 24.9647 21.7957 24.87 22.0338 24.87H26.5682C26.8081 24.87 27.0039 24.6743 27.0039 24.4344V13.2317C27.0039 12.9919 26.8081 12.7961 26.5683 12.7961H13.2317Z" fill="#616F8A"/>
</svg>
