<svg width="40" height="40" viewBox="0 0 40 40" fill="none" xmlns="http://www.w3.org/2000/svg">
<circle cx="20" cy="20" r="20" fill="#E1E7F3"/>
<path fill-rule="evenodd" clip-rule="evenodd" d="M16.4708 23.0467L16.4632 23.0618C16.4657 23.0567 16.4655 23.0578 16.4639 23.0658C16.46 23.085 16.4479 23.1443 16.4456 23.2561C16.4427 23.3934 16.4428 23.5345 16.4708 23.6895C16.4926 23.8108 16.5331 23.9311 16.5603 24H25.1228C25.6902 24 26.1501 24.46 26.1501 25.0273C26.1501 25.5947 25.6902 26.0547 25.1228 26.0547H16.2474C15.3136 26.0547 14.7744 25.2231 14.5458 24.5077C14.3073 23.7614 14.2863 22.8213 14.6254 22.1429L14.7382 21.9173L12.349 13.5547H10.5273C9.95996 13.5547 9.5 13.0947 9.5 12.5273C9.5 11.96 9.95996 11.5 10.5273 11.5H13.124C13.5826 11.5 13.9858 11.804 14.1118 12.2451L14.5015 13.6093H27.4724C28.1556 13.6093 28.6474 14.2638 28.4602 14.9189L26.3509 22.3016C26.2248 22.7427 25.8217 23.0467 25.363 23.0467H16.4708ZM24.5881 20.992L26.1104 15.664H15.0885L16.6108 20.992H24.5881Z" fill="#616F8A"/>
<path d="M17 28C17 28.5514 17.4486 29 18 29C18.5514 29 19 28.5514 19 28C19 27.4486 18.5514 27 18 27C17.4486 27 17 27.4486 17 28Z" fill="#616F8A"/>
<path d="M22 28C22 28.5514 22.4486 29 23 29C23.5514 29 24 28.5514 24 28C24 27.4486 23.5514 27 23 27C22.4486 27 22 27.4486 22 28Z" fill="#616F8A"/>
</svg>
