<svg width="40" height="40" viewBox="0 0 40 40" fill="none" xmlns="http://www.w3.org/2000/svg">
<circle cx="20" cy="20" r="20" fill="#E1E7F3"/>
<path fill-rule="evenodd" clip-rule="evenodd" d="M18.3291 24.5299C19.0933 24.5309 19.8507 24.3946 20.5648 24.1283L24.1092 28.0729L24.1163 28.0806C24.1405 28.1068 24.183 28.1527 24.2289 28.1957C24.4864 28.45 24.7919 28.6519 25.1281 28.7899C25.4684 28.9296 25.8334 29.001 26.2018 29C26.7694 28.9994 27.3235 28.8283 27.7906 28.5091C28.2578 28.1898 28.6159 27.7376 28.8175 27.2124C29.0191 26.6871 29.0546 26.1136 28.9193 25.568C28.7841 25.0223 28.4844 24.5302 28.0601 24.1569L24.1551 20.7216C24.4058 20.1397 24.5678 19.5193 24.6316 18.8805C24.7755 17.4381 24.4095 15.991 23.5961 14.7856C22.7826 13.5803 21.572 12.6913 20.1705 12.2702C18.769 11.8491 17.2633 11.9219 15.9099 12.4762C14.5565 13.0305 13.4393 14.032 12.7484 15.3101C12.0576 16.5882 11.836 18.0637 12.1213 19.4854C12.4066 20.907 13.1812 22.1868 14.3132 23.1066C15.4451 24.0265 16.8644 24.5295 18.3291 24.5299ZM26.7763 25.5867L23.1164 22.367L22.8068 22.696C22.6405 22.8609 22.4652 23.0161 22.282 23.1611L25.5479 26.7963L25.562 26.8115L25.5727 26.8212L25.5866 26.8353C25.6683 26.9179 25.7659 26.9834 25.8737 27.0278C25.9814 27.0721 26.0971 27.0945 26.2139 27.0936C26.3306 27.0927 26.4459 27.0685 26.553 27.0225C26.6601 26.9764 26.7566 26.9095 26.8369 26.8257C26.9172 26.7418 26.9796 26.6428 27.0203 26.5345C27.0611 26.4263 27.0793 26.311 27.074 26.1956C27.0686 26.0802 27.0398 25.9671 26.9892 25.863C26.9387 25.7589 26.8674 25.6659 26.7797 25.5897L26.7763 25.5867ZM18.3298 13.9114C17.312 13.912 16.3258 14.2618 15.5394 14.9012C14.753 15.5406 14.215 16.4301 14.017 17.418C13.819 18.4059 13.9733 19.4312 14.4535 20.3192C14.9338 21.2072 15.7103 21.903 16.6509 22.288C17.5914 22.6729 18.6377 22.7233 19.6115 22.4304C20.5854 22.1376 21.4265 21.5197 21.9916 20.682C22.5567 19.8443 22.8107 18.8387 22.7106 17.8364C22.6104 16.8341 22.1621 15.8972 21.4421 15.1853C21.0339 14.7808 20.5483 14.4594 20.0144 14.2409C19.4806 14.0224 18.9075 13.9104 18.3298 13.9114Z" fill="#616F8A"/>
</svg>
