<svg width="40" height="40" viewBox="0 0 40 40" fill="none" xmlns="http://www.w3.org/2000/svg">
<circle cx="20" cy="20" r="20" fill="#E1E7F3"/>
<path d="M15.2627 10H24.3823C25.6304 10 26.645 11.0146 26.645 12.2627V27.7032C26.645 28.9513 25.6304 29.9659 24.3823 29.9659H22.7637C22.2442 29.9659 21.823 29.5447 21.823 29.0252C21.823 28.5057 22.2442 28.0845 22.7637 28.0845H24.3823C24.5921 28.0845 24.7637 27.913 24.7637 27.7032V12.2627C24.7637 12.0529 24.5922 11.8814 24.3823 11.8814H15.2627C15.0529 11.8814 14.8814 12.0529 14.8814 12.2627V27.7032C14.8814 27.913 15.0529 28.0845 15.2627 28.0845H16.8662C17.3857 28.0845 17.8069 28.5057 17.8069 29.0252C17.8069 29.5447 17.3857 29.9659 16.8662 29.9659H15.2627C14.0146 29.9659 13 28.9513 13 27.7032V12.2627C13 11.0146 14.0146 10 15.2627 10Z" fill="#616F8A"/>
<path d="M20.7637 15C20.7637 15.5523 20.316 16 19.7637 16C19.2114 16 18.7637 15.5523 18.7637 15C18.7637 14.4477 19.2114 14 19.7637 14C20.316 14 20.7637 14.4477 20.7637 15Z" fill="#616F8A"/>
<path d="M20.7637 24C21.3159 24 21.7637 24.4478 21.7637 25C21.7637 25.5522 21.3159 26 20.7637 26H18.7637C18.2115 26 17.7637 25.5522 17.7637 25C17.7637 24.4478 18.2115 24 18.7637 24H20.7637Z" fill="#616F8A"/>
<path d="M19.7637 30C20.316 30 20.7637 29.5523 20.7637 29C20.7637 28.4477 20.316 28 19.7637 28C19.2114 28 18.7637 28.4477 18.7637 29C18.7637 29.5523 19.2114 30 19.7637 30Z" fill="#616F8A"/>
</svg>
