<svg width="40" height="40" viewBox="0 0 40 40" fill="none" xmlns="http://www.w3.org/2000/svg">
<circle cx="20" cy="20" r="20" fill="#E1E7F3"/>
<path d="M14.8137 23.0287C14.0594 23.0287 13.3221 22.805 12.6949 22.386C12.0678 21.9669 11.5789 21.3713 11.2903 20.6744C11.0017 19.9776 10.9261 19.2108 11.0733 18.471C11.2204 17.7312 11.5836 17.0517 12.117 16.5184C12.6503 15.985 13.3299 15.6218 14.0696 15.4746C14.8094 15.3275 15.5762 15.403 16.2731 15.6917C16.9699 15.9803 17.5655 16.4691 17.9846 17.0963C18.4036 17.7234 18.6273 18.4608 18.6273 19.215C18.6248 20.2257 18.2223 21.1943 17.5076 21.909C16.7929 22.6236 15.8243 23.0262 14.8137 23.0287ZM14.8137 17.2662C14.4282 17.2662 14.0514 17.3805 13.731 17.5947C13.4105 17.8088 13.1607 18.1132 13.0132 18.4693C12.8657 18.8254 12.8271 19.2172 12.9023 19.5952C12.9775 19.9732 13.1631 20.3205 13.4357 20.593C13.7082 20.8656 14.0554 21.0512 14.4335 21.1264C14.8115 21.2016 15.2033 21.163 15.5594 21.0155C15.9155 20.868 16.2199 20.6182 16.434 20.2977C16.6481 19.9772 16.7624 19.6005 16.7624 19.215C16.7619 18.6983 16.5565 18.2029 16.1911 17.8376C15.8257 17.4722 15.3303 17.2667 14.8137 17.2662Z" fill="#616F8A"/>
<path d="M23.874 17.5098C23.1314 17.5098 22.4054 17.2896 21.7879 16.877C21.1704 16.4644 20.6892 15.878 20.405 15.1918C20.1208 14.5057 20.0464 13.7507 20.1913 13.0224C20.3362 12.294 20.6938 11.6249 21.2189 11.0998C21.7441 10.5747 22.4131 10.217 23.1415 10.0722C23.8699 9.92727 24.6249 10.0016 25.311 10.2858C25.9971 10.57 26.5835 11.0513 26.9961 11.6688C27.4087 12.2863 27.6289 13.0123 27.6289 13.7549C27.6279 14.7505 27.232 15.705 26.5281 16.4089C25.8241 17.1129 24.8696 17.5088 23.874 17.5098ZM23.874 11.8649C23.5002 11.8649 23.1348 11.9757 22.824 12.1834C22.5132 12.3911 22.2709 12.6863 22.1279 13.0316C21.9848 13.377 21.9474 13.757 22.0203 14.1236C22.0932 14.4903 22.2733 14.827 22.5376 15.0914C22.8019 15.3557 23.1387 15.5357 23.5053 15.6086C23.8719 15.6815 24.252 15.6441 24.5973 15.5011C24.9427 15.358 25.2379 15.1158 25.4455 14.8049C25.6532 14.4941 25.7641 14.1287 25.7641 13.7549C25.7626 13.2544 25.5629 12.7749 25.2086 12.4214C24.8544 12.0679 24.3745 11.8691 23.874 11.8686V11.8649Z" fill="#616F8A"/>
<path d="M21 14C20.8636 13.9998 20.6056 14.0886 20.6056 14.0886L16.2086 16.0005C16.0977 16.0525 15.9981 16.1258 15.9156 16.2163C15.833 16.3067 15.7691 16.4126 15.7275 16.5277C15.6858 16.6429 15.6673 16.7651 15.6728 16.8874C15.6784 17.0098 15.7081 17.1298 15.76 17.2407C15.812 17.3515 15.8853 17.4511 15.9758 17.5336C16.0662 17.6162 16.1721 17.6801 16.2872 17.7218C16.4024 17.7634 16.5246 17.782 16.647 17.7764C16.7693 17.7708 16.8893 17.7411 17.0002 17.6892L21.3963 15.7763C21.5881 15.6861 21.7435 15.5333 21.8368 15.343C21.9301 15.1527 21.9558 14.9363 21.9097 14.7294C21.8635 14.5225 21.7483 14.3376 21.5829 14.205C21.4176 14.0724 21.212 14.0001 21 14Z" fill="#616F8A"/>
<path d="M23.874 21.2675C23.1314 21.2675 22.4054 21.4878 21.7879 21.9004C21.1704 22.313 20.6892 22.8994 20.405 23.5855C20.1208 24.2716 20.0464 25.0266 20.1913 25.755C20.3362 26.4834 20.6938 27.1524 21.2189 27.6776C21.7441 28.2027 22.4131 28.5603 23.1415 28.7052C23.8699 28.8501 24.6249 28.7757 25.311 28.4915C25.9971 28.2073 26.5835 27.726 26.9961 27.1086C27.4087 26.4911 27.6289 25.7651 27.6289 25.0224C27.6279 24.0269 27.232 23.0724 26.5281 22.3684C25.8241 21.6645 24.8696 21.2685 23.874 21.2675ZM23.874 26.9125C23.5002 26.9125 23.1348 26.8016 22.824 26.594C22.5132 26.3863 22.2709 26.0911 22.1279 25.7457C21.9848 25.4004 21.9474 25.0203 22.0203 24.6537C22.0932 24.2871 22.2733 23.9503 22.5376 23.686C22.8019 23.4217 23.1387 23.2417 23.5053 23.1687C23.8719 23.0958 24.252 23.1332 24.5973 23.2763C24.9427 23.4193 25.2379 23.6616 25.4455 23.9724C25.6532 24.2832 25.7641 24.6486 25.7641 25.0224C25.7626 25.5229 25.5629 26.0024 25.2086 26.3559C24.8544 26.7095 24.3745 26.9083 23.874 26.9088V26.9125Z" fill="#616F8A"/>
<path d="M21 24.7773C20.8636 24.7775 20.6056 24.6888 20.6056 24.6888L16.2086 22.7768C16.0977 22.7248 15.9981 22.6515 15.9156 22.5611C15.833 22.4706 15.7691 22.3648 15.7275 22.2496C15.6858 22.1345 15.6673 22.0122 15.6728 21.8899C15.6784 21.7676 15.7081 21.6476 15.76 21.5367C15.812 21.4258 15.8853 21.3262 15.9758 21.2437C16.0662 21.1612 16.1721 21.0972 16.2872 21.0556C16.4024 21.0139 16.5246 20.9954 16.647 21.001C16.7693 21.0066 16.8893 21.0362 17.0002 21.0882L21.3963 23.0011C21.5881 23.0912 21.7435 23.2441 21.8368 23.4344C21.9301 23.6247 21.9558 23.8411 21.9097 24.0479C21.8635 24.2548 21.7483 24.4398 21.5829 24.5724C21.4176 24.705 21.212 24.7773 21 24.7773Z" fill="#616F8A"/>
</svg>
