<svg width="40" height="40" viewBox="0 0 40 40" fill="none" xmlns="http://www.w3.org/2000/svg">
<circle cx="20" cy="20" r="20" fill="#E1E7F3"/>
<path d="M25.8084 12.7626C25.8084 12.2382 26.2339 11.8126 26.7584 11.8126C27.2828 11.8126 27.7084 12.2382 27.7084 12.7626V15.2346C27.7084 15.7591 27.2828 16.1846 26.7584 16.1846H24.2969C23.7724 16.1846 23.3469 15.7591 23.3469 15.2346C23.3469 14.7102 23.7724 14.2846 24.2969 14.2846H24.4106C23.1894 13.3912 21.7137 12.9 20.1531 12.9C16.1548 12.9 12.9 16.1674 12.9 20.185C12.9 20.7095 12.4745 21.135 11.95 21.135C11.4255 21.135 11 20.7095 11 20.185C11 15.1211 15.1051 11 20.1531 11C22.2438 11 24.215 11.6986 25.8084 12.9614V12.7626Z" fill="#616F8A"/>
<path d="M14.5901 27.5372C14.5901 28.0616 14.1645 28.4872 13.6401 28.4872C13.1156 28.4872 12.6901 28.0616 12.6901 27.5372L12.6901 25.0652C12.6901 24.5407 13.1156 24.1152 13.6401 24.1152H16.1016C16.626 24.1152 17.0516 24.5407 17.0516 25.0652C17.0516 25.5896 16.626 26.0152 16.1016 26.0152H15.9879C17.2091 26.9086 18.6848 27.3998 20.2453 27.3998C24.2437 27.3998 27.4984 24.1324 27.4984 20.1148C27.4984 19.5903 27.924 19.1648 28.4484 19.1648C28.9729 19.1648 29.3984 19.5903 29.3984 20.1148C29.3984 25.1787 25.2933 29.2998 20.2453 29.2998C18.1546 29.2998 16.1834 28.6012 14.5901 27.3384V27.5372Z" fill="#616F8A"/>
</svg>
