<svg width="40" height="40" viewBox="0 0 40 40" fill="none" xmlns="http://www.w3.org/2000/svg">
<circle cx="20" cy="20" r="20" fill="#E1E7F3"/>
<path fill-rule="evenodd" clip-rule="evenodd" d="M22.9004 17.4099C22.9004 16.0367 21.7825 14.9004 20.4004 14.9004C20.3353 14.9004 20.2707 14.9029 20.2069 14.9079C18.917 15.008 17.9004 16.0998 17.9004 17.4099C17.9004 18.6537 18.8183 19.6839 20.0116 19.8703C20.1383 19.8901 20.2682 19.9004 20.4004 19.9004C21.7771 19.9004 22.9004 18.7858 22.9004 17.4099ZM20.144 16.5058C20.2256 16.4819 20.3117 16.4691 20.4004 16.4691C20.908 16.4691 21.329 16.8876 21.329 17.4099C21.329 17.9155 20.9142 18.3317 20.4004 18.3317C20.2856 18.3317 20.1758 18.3109 20.0744 18.273C19.722 18.1413 19.4718 17.8025 19.4718 17.4099C19.4718 16.9788 19.7585 16.6185 20.144 16.5058Z" fill="#616F8A"/>
<path fill-rule="evenodd" clip-rule="evenodd" d="M27.8 17.7451C27.8 13.5166 24.5055 10 20.4 10C16.5287 10 13 13.221 13 17.7451C13 19.1872 13.6687 20.944 14.4892 22.5792C15.3172 24.2294 16.3318 25.8166 17.0832 26.936C17.8351 28.0562 18.4519 28.9098 18.887 29.4912C19.1046 29.782 19.2768 30.0046 19.3977 30.1586C19.4581 30.2355 19.5057 30.2952 19.5397 30.3376L19.5801 30.3879L19.5957 30.4071L19.5969 30.4086C19.7914 30.6535 20.085 30.8 20.4 30.8C20.715 30.8 21.0087 30.6534 21.2032 30.4086C21.3235 30.2571 22.8196 28.3551 23.7228 26.9268L23.8758 26.6849C24.8406 25.1602 25.7938 23.6535 26.5155 22.2051C27.2742 20.6823 27.8 19.1807 27.8 17.7451ZM20.3163 12.1282C20.3442 12.1277 20.3721 12.1274 20.4 12.1274C23.3187 12.1274 25.7273 14.629 25.7273 17.7451C25.7273 18.3712 25.5144 19.1879 25.1371 20.1271C24.7628 21.0587 24.2406 22.0778 23.6526 23.0982C22.5996 24.926 21.3493 26.7347 20.3999 28.0143C20.1888 27.7299 19.9629 27.4193 19.7275 27.0882C18.9043 25.93 17.9662 24.5203 17.1472 23.0991C16.5593 22.0787 16.0371 21.0596 15.6629 20.1279C15.2856 19.1886 15.0727 18.3716 15.0727 17.7451C15.0727 14.3039 17.789 12.1744 20.3163 12.1282Z" fill="#616F8A"/>
</svg>
