<svg width="18" height="18" viewBox="0 0 18 18" fill="none" xmlns="http://www.w3.org/2000/svg">
  <path fill-rule="evenodd" clip-rule="evenodd" d="M0.0757419 8.91913C0.0794915 1.05546 9.62223 -2.98736 15.3884 2.5868L15.3771 2.61605C17.0682 4.30037 17.9981 6.54188 17.9981 8.92363C17.9951 15.7097 10.6789 19.9617 4.75074 16.7595L0 17.9984L1.27186 13.3774C0.487448 12.0238 0.0757419 10.491 0.0757419 8.91913ZM13.1232 10.7865L13.1299 10.7303C13.154 10.7411 13.1772 10.7514 13.1995 10.7613C13.3853 10.8441 13.5078 10.8986 13.5574 10.989C13.6136 11.0902 13.6136 11.5289 13.4224 12.0576C13.2357 12.5863 12.341 13.0588 11.9105 13.127C11.5243 13.1825 11.0361 13.2065 10.5007 13.0363C8.5179 12.3553 7.43352 11.8649 5.39824 9.20117C4.3626 7.74183 4.05738 6.36947 5.26775 5.03912C5.54597 4.74965 5.86169 4.74365 6.29364 4.78114C6.30727 4.78114 6.32134 4.78061 6.33582 4.78006C6.46871 4.775 6.63529 4.76867 6.79759 5.1636C6.87979 5.35629 7.01203 5.67644 7.13936 5.9847C7.30242 6.37947 7.45743 6.75476 7.48901 6.81793C7.54451 6.92966 7.58275 7.0534 7.50776 7.21089C7.33137 7.54471 7.14764 7.74741 7.01057 7.89863C6.82247 8.10616 6.72223 8.21675 6.84933 8.43625C6.98132 8.66123 7.42827 9.3924 8.0942 9.98859C8.80972 10.6288 9.43225 10.8986 9.74814 11.0356C9.80968 11.0622 9.85958 11.0839 9.89626 11.1022C10.119 11.2035 10.2495 11.1922 10.3807 11.046C10.5104 10.8975 10.9409 10.3958 11.0886 10.1746C11.2905 9.87174 11.456 9.95435 12.8773 10.6639C12.9554 10.7028 13.0373 10.7437 13.1232 10.7865Z" fill="#1047D6" />
</svg>
