<svg width="16" height="21" viewBox="0 0 16 21" fill="none" xmlns="http://www.w3.org/2000/svg">
<path fill-rule="evenodd" clip-rule="evenodd" d="M6.58617 20L6.58617 3.41339L1.70711 8.29245C1.31658 8.68298 0.683418 8.68298 0.292893 8.29245C-0.0976308 7.90193 -0.0976314 7.26876 0.292893 6.87824L6.45524 0.715897C6.52926 0.641874 6.612 0.581884 6.70015 0.535923C6.86736 0.217323 7.20139 0 7.58617 0C7.97383 0 8.30997 0.220589 8.47592 0.543091C8.55903 0.588062 8.6371 0.645662 8.70734 0.715897L14.8697 6.87824C15.2602 7.26876 15.2602 7.90193 14.8697 8.29245C14.4792 8.68298 13.846 8.68298 13.4555 8.29245L8.58617 3.42315L8.58617 20C8.58617 20.5523 8.13846 21 7.58617 21C7.03389 21 6.58617 20.5523 6.58617 20Z" fill="#1047D6"/>
</svg>
