<svg width="25" height="25" viewBox="0 0 25 25" fill="none" xmlns="http://www.w3.org/2000/svg">
<path fill-rule="evenodd" clip-rule="evenodd" d="M3.5542 10.9954H20.1408L15.2617 6.11629C14.8712 5.72576 14.8712 5.0926 15.2617 4.70207C15.6523 4.31155 16.2854 4.31155 16.676 4.70207L22.8383 10.8644C22.9123 10.9384 22.9723 11.0212 23.0183 11.1093C23.3369 11.2765 23.5542 11.6106 23.5542 11.9954C23.5542 12.383 23.3336 12.7192 23.0111 12.8851C22.9661 12.9682 22.9085 13.0463 22.8383 13.1165L16.676 19.2789C16.2854 19.6694 15.6523 19.6694 15.2617 19.2789C14.8712 18.8883 14.8712 18.2552 15.2617 17.8646L20.131 12.9954H3.5542C3.00191 12.9954 2.5542 12.5476 2.5542 11.9954C2.5542 11.4431 3.00191 10.9954 3.5542 10.9954Z" fill="#2094FF"/>
</svg>
