<svg width="92" height="91" viewBox="0 0 92 91" fill="none" xmlns="http://www.w3.org/2000/svg">
<path d="M63.7137 90.8661H87.9857C88.8231 90.8661 89.5027 90.1863 89.5027 89.3487V65.0709C89.5027 64.2334 88.8231 63.5536 87.9857 63.5536H63.7137C62.8764 63.5536 62.1968 64.2334 62.1968 65.0709V89.3487C62.1968 90.1863 62.8764 90.8661 63.7137 90.8661ZM74.3327 66.5883H77.3667V72.6578H74.3327V66.5883ZM65.2308 66.5883H71.2987V74.1751C71.2987 75.0127 71.9784 75.6925 72.8157 75.6925H78.8837C79.7211 75.6925 80.4007 75.0127 80.4007 74.1751V66.5883H86.4687V87.8314H65.2308V66.5883Z" fill="#616F8A"/>
<path d="M3.0338 90.8661H27.3058C28.1432 90.8661 28.8228 90.1863 28.8228 89.3487V65.0709C28.8228 64.2334 28.1432 63.5536 27.3058 63.5536H3.0338C2.19642 63.5536 1.51681 64.2334 1.51681 65.0709V89.3487C1.51681 90.1863 2.19642 90.8661 3.0338 90.8661ZM13.6528 66.5883H16.6868V72.6578H13.6528V66.5883ZM4.5508 66.5883H10.6188V74.1751C10.6188 75.0127 11.2984 75.6925 12.1358 75.6925H18.2038C19.0412 75.6925 19.7208 75.0127 19.7208 74.1751V66.5883H25.7888V87.8314H4.5508V66.5883Z" fill="#616F8A"/>
<path d="M11.9744 30.0156C11.8505 29.4774 12.1859 28.9372 12.7311 28.8492C13.1915 28.7748 13.6561 28.7215 14.1229 28.6897C14.674 28.652 15.1234 29.102 15.1248 29.6544L15.1274 30.6881C15.1288 31.2407 14.6809 31.6854 14.1302 31.732C13.8906 31.7522 13.6518 31.7796 13.4144 31.814C12.8676 31.8933 12.3305 31.5618 12.2065 31.0233L11.9744 30.0156Z" fill="#616F8A"/>
<path d="M18.7995 32.2399C18.2721 32.0749 17.9309 31.544 18.0516 31.0048L18.2773 29.9961C18.398 29.4569 18.9345 29.1145 19.4645 29.2709C19.9137 29.4035 20.3569 29.5568 20.792 29.7305C21.3048 29.9352 21.5143 30.5354 21.2761 31.0335L20.8299 31.9665C20.5915 32.4649 19.9954 32.6713 19.479 32.4751C19.2549 32.39 19.0282 32.3115 18.7995 32.2399Z" fill="#616F8A"/>
<path d="M25.3502 32.5787C24.9407 32.2077 24.309 32.2827 23.9658 32.7158L23.3238 33.526C22.981 33.9586 23.0568 34.5845 23.4598 34.9617C23.6359 35.1266 23.8071 35.2966 23.9732 35.4716C24.3534 35.8721 24.9801 35.9435 25.4104 35.5973L26.2159 34.9492C26.6467 34.6026 26.7168 33.9698 26.3424 33.563C26.0267 33.2202 25.6955 32.8915 25.3502 32.5787Z" fill="#616F8A"/>
<path d="M29.6903 39.4258C29.8504 39.9541 29.5126 40.4923 28.975 40.6174L27.9681 40.8516C27.4298 40.9768 26.896 40.6399 26.727 40.1136C26.6536 39.885 26.5734 39.6587 26.4865 39.4349C26.2865 38.92 26.4886 38.3223 26.9852 38.0803L27.9139 37.6277C28.4107 37.3857 29.0128 37.5913 29.2213 38.103C29.3979 38.5363 29.5545 38.9778 29.6903 39.4258Z" fill="#616F8A"/>
<path d="M15.1871 58.0011C15.1871 58.5534 15.6353 59.0046 16.1864 58.9683C16.6528 58.9375 17.1173 58.8853 17.578 58.8119C18.1233 58.725 18.4598 58.1855 18.337 57.6472L18.1069 56.6387C17.984 56.1 17.4476 55.7673 16.9005 55.8452C16.6634 55.879 16.425 55.9058 16.1859 55.9255C15.6355 55.9708 15.1871 56.4142 15.1871 56.9665V58.0011Z" fill="#616F8A"/>
<path d="M11.5152 55.4072C12.0423 55.5737 12.3827 56.1055 12.2608 56.6446L12.033 57.6526C11.9113 58.1915 11.3744 58.5328 10.8449 58.3753C10.3956 58.2416 9.95219 58.087 9.51686 57.912C9.00461 57.706 8.79649 57.1054 9.03581 56.6079L9.48444 55.6752C9.72379 55.1776 10.3199 54.9724 10.8356 55.1699C11.0597 55.2558 11.2864 55.335 11.5152 55.4072Z" fill="#616F8A"/>
<path d="M21.3242 54.2926C20.8488 54.5735 20.638 55.1679 20.8781 55.6651L21.3282 56.5971C21.5684 57.0945 22.1682 57.3057 22.6484 57.0329C23.0541 56.8025 23.4496 56.553 23.8331 56.2858C24.2864 55.9699 24.355 55.3374 24.01 54.9059L23.363 54.0965C23.0187 53.6659 22.393 53.5989 21.9355 53.9067C21.7354 54.0414 21.5315 54.1701 21.3242 54.2926Z" fill="#616F8A"/>
<path d="M8.38399 33.7631C7.9262 34.0724 7.29859 34.0072 6.95284 33.5763L6.30464 32.7685C5.95935 32.3381 6.02608 31.7065 6.478 31.3899C6.86129 31.1215 7.25698 30.8709 7.66324 30.6391C8.14328 30.3651 8.74413 30.5751 8.98549 31.0723L9.43774 32.004C9.67882 32.5006 9.46933 33.0952 8.99437 33.3765C8.78723 33.4993 8.58364 33.6282 8.38399 33.7631Z" fill="#616F8A"/>
<path d="M3.34313 49.549C3.83988 49.3079 4.04297 48.711 3.84401 48.1959C3.75758 47.9721 3.67785 47.7458 3.60501 47.5174C3.43718 46.9911 2.90473 46.6526 2.36621 46.7759L1.35968 47.0062C0.821272 47.1295 0.481498 47.6671 0.640309 48.1961C0.775139 48.6453 0.930986 49.0883 1.10721 49.5232C1.31465 50.0352 1.91634 50.2415 2.41328 50.0003L3.34313 49.549Z" fill="#616F8A"/>
<path d="M2.69125 35.197C3.00554 34.7434 3.63707 34.6737 4.06906 35.0171L4.87845 35.6607C5.31075 36.0044 5.37879 36.6314 5.07212 37.0908C4.93822 37.2913 4.81037 37.4958 4.68876 37.7037C4.41002 38.1803 3.81646 38.393 3.31849 38.1545L2.38582 37.7077C1.88752 37.469 1.67437 36.8695 1.94557 36.3881C2.17538 35.9802 2.42422 35.5825 2.69125 35.197Z" fill="#616F8A"/>
<path d="M4.96508 55.0554C5.3735 55.4271 6.00509 55.3535 6.34916 54.9215L6.9936 54.1124C7.33758 53.6805 7.26327 53.0544 6.86089 52.6764C6.68491 52.5111 6.5138 52.3405 6.34791 52.1651C5.96837 51.7638 5.34175 51.691 4.91063 52.0363L4.1045 52.682C3.67315 53.0275 3.6015 53.6599 3.97464 54.0675C4.28967 54.4117 4.62024 54.7415 4.96508 55.0554Z" fill="#616F8A"/>
<path d="M0.0288273 43.857C0.0129509 43.8572 0 43.8443 0 43.8284C0 43.0366 0.0613686 42.2462 0.183055 41.4684C0.268359 40.9231 0.806409 40.5852 1.3449 40.7061L2.35273 40.9324C2.89214 41.0535 3.22669 41.5892 3.15051 42.1368C3.11811 42.3697 3.09247 42.6039 3.07358 42.839C3.02965 43.3858 2.59205 43.8326 2.0435 43.8379L0.0288273 43.857Z" fill="#616F8A"/>
<path d="M30.3326 44.2859C30.3411 44.0079 30.1162 43.7817 29.8381 43.7792L28.2871 43.809C27.7423 43.8194 27.3105 44.2647 27.2671 44.8077C27.2474 45.055 27.2202 45.3013 27.1857 45.5461C27.1086 46.0927 27.442 46.6276 27.9803 46.7496L28.9898 46.9785C29.528 47.1005 30.0668 46.7638 30.1528 46.2186C30.2524 45.5875 30.3124 44.9439 30.3326 44.2859Z" fill="#616F8A"/>
<path d="M27.6297 52.4826C27.3144 52.936 26.6823 53.0049 26.2506 52.6604L25.4432 52.0161C25.0114 51.6715 24.9446 51.0441 25.2526 50.5854C25.3865 50.3859 25.5144 50.1826 25.636 49.9758C25.9163 49.499 26.5112 49.2866 27.0094 49.5266L27.9394 49.9746C28.437 50.2144 28.6489 50.8141 28.3767 51.2947C28.1463 51.7016 27.8969 52.0982 27.6297 52.4826Z" fill="#616F8A"/>
<path d="M27.8117 13.7502C27.6823 14.287 28.0448 14.8088 28.588 14.9082L29.6054 15.0945C30.1484 15.1939 30.666 14.8334 30.8015 14.2982C30.8669 14.0397 30.9392 13.7829 31.0182 13.5283C31.182 13.0003 30.9283 12.4216 30.4123 12.2231L29.4477 11.8521C28.9324 11.6538 28.3511 11.9101 28.1816 12.4355C28.042 12.8686 27.9184 13.3074 27.8117 13.7502Z" fill="#616F8A"/>
<path d="M54.4532 2.17044C53.9725 1.89876 53.3714 2.10401 53.1267 2.59891L52.6682 3.52594C52.4231 4.02148 52.6285 4.61909 53.1067 4.89656C53.3374 5.03047 53.5649 5.1707 53.7886 5.31686C54.251 5.61897 54.8762 5.53268 55.2078 5.09089L55.8293 4.2626C56.1608 3.82098 56.073 3.19189 55.6139 2.88508C55.2361 2.63252 54.8485 2.39387 54.4532 2.17044Z" fill="#616F8A"/>
<path d="M55.435 29.5072C55.0178 29.8688 54.9287 30.4934 55.2618 30.9337L55.8863 31.7591C56.2195 32.1996 56.8488 32.2885 57.2703 31.9314C57.6167 31.638 57.9524 31.3314 58.2759 31.0131C58.6693 30.6259 58.6378 29.9916 58.2297 29.6199L57.4639 28.9222C57.0557 28.5503 56.4256 28.5823 56.0279 28.9653C55.8351 29.151 55.6373 29.3318 55.435 29.5072Z" fill="#616F8A"/>
<path d="M46.206 36.2281C46.7587 36.2072 47.1642 35.7165 47.1131 35.1658L47.0173 34.1347C46.9663 33.5861 46.4812 33.186 45.9304 33.2008C45.7979 33.2043 45.6647 33.2062 45.531 33.2062C45.3942 33.2048 45.2582 33.2025 45.123 33.1989C44.5721 33.1843 44.087 33.5879 44.0365 34.1367L43.9418 35.1675C43.8912 35.7181 44.2973 36.2056 44.8499 36.2243C45.0701 36.2318 45.2959 36.2367 45.534 36.2409C45.7588 36.2409 45.9829 36.2365 46.206 36.2281Z" fill="#616F8A"/>
<path d="M60.5737 19.8344C60.5091 20.3824 60.8642 20.9034 61.4067 21.0041L62.4241 21.1929C62.9676 21.2938 63.4926 20.9347 63.5632 20.3864C63.6629 19.6115 63.7136 18.8338 63.7136 18.08C63.7136 18.0159 63.6608 17.9643 63.5968 17.9658L61.6566 18.0105C61.1134 18.023 60.683 18.4673 60.6484 19.0095C60.6309 19.2854 60.6059 19.5606 60.5737 19.8344Z" fill="#616F8A"/>
<path d="M60.5692 12.13C60.0549 12.3314 59.8046 12.9107 59.9715 13.4371C60.0524 13.692 60.1265 13.9491 60.1938 14.2079C60.3328 14.7424 60.8531 15.0996 61.3957 14.9964L62.4121 14.8028C62.9546 14.6996 63.3134 14.1754 63.1802 13.6395C63.0705 13.1979 62.9441 12.7603 62.8018 12.3287C62.6288 11.8043 62.0461 11.5516 61.5319 11.753L60.5692 12.13Z" fill="#616F8A"/>
<path d="M57.4207 7.09262C57.014 7.46621 56.9899 8.09676 57.336 8.52707C57.5043 8.73633 57.667 8.94997 57.8239 9.16747C58.1469 9.61522 58.7612 9.75906 59.2292 9.46607L60.1071 8.91639C60.5746 8.62364 60.719 8.00578 60.4014 7.55479C60.1398 7.18342 59.8639 6.82146 59.5751 6.47052C59.2242 6.04404 58.5893 6.01893 58.1826 6.39258L57.4207 7.09262Z" fill="#616F8A"/>
<path d="M37.8599 33.4508C37.6142 33.9453 37.8149 34.5481 38.3222 34.7663C38.7397 34.9459 39.1646 35.1102 39.5948 35.2581C40.1172 35.4378 40.671 35.126 40.8212 34.5945L41.1025 33.5988C41.2527 33.0672 40.942 32.5176 40.4216 32.3322C40.1701 32.2425 39.9209 32.1462 39.6746 32.0435C39.165 31.8309 38.5661 32.0294 38.3204 32.5239L37.8599 33.4508Z" fill="#616F8A"/>
<path d="M30.5557 7.64667C30.2403 8.09985 30.3882 8.71754 30.858 9.00768L31.7385 9.55157C32.2085 9.84182 32.8221 9.69396 33.1425 9.244C33.298 9.0256 33.4593 8.81115 33.6261 8.6011C33.9696 8.16865 33.9418 7.53813 33.5329 7.16694L32.7669 6.47164C32.358 6.10051 31.7235 6.12937 31.3752 6.55788C31.0887 6.91044 30.8151 7.27395 30.5557 7.64667Z" fill="#616F8A"/>
<path d="M31.7639 24.4614C31.5293 23.9608 30.9519 23.7041 30.4369 23.9051L29.4746 24.2807C28.9604 24.4815 28.7036 25.0623 28.9323 25.5648C29.1201 25.9774 29.3238 26.3839 29.5421 26.7824C29.8078 27.2672 30.4277 27.4099 30.8969 27.1177L31.7743 26.5714C32.243 26.2796 32.3833 25.6646 32.123 25.1778C31.9969 24.942 31.8771 24.703 31.7639 24.4614Z" fill="#616F8A"/>
<path d="M35.3115 2.94795C34.8543 3.2576 34.7705 3.88735 35.1047 4.32689L35.7315 5.15106C36.0657 5.59054 36.6912 5.67298 37.1516 5.36822C37.3745 5.22064 37.6012 5.07901 37.831 4.94371C38.307 4.66357 38.5086 4.06549 38.2613 3.57172L37.7981 2.64725C37.5506 2.15329 36.9479 1.95124 36.4686 2.22595C36.0746 2.45175 35.6883 2.69275 35.3115 2.94795Z" fill="#616F8A"/>
<path d="M27.4618 20.4268C27.5338 20.9742 28.0591 21.3311 28.6017 21.2292L29.6191 21.0382C30.1619 20.9363 30.5159 20.4139 30.4501 19.8655C30.4182 19.6 30.3933 19.3333 30.3753 19.0659C30.3383 18.5147 29.893 18.0672 29.3406 18.0683L28.3049 18.0704C27.7534 18.0715 27.3041 18.5192 27.3348 19.0699C27.3601 19.5239 27.4026 19.977 27.4618 20.4268Z" fill="#616F8A"/>
<path d="M32.8124 29.6464C32.4053 30.0193 32.3756 30.6537 32.77 31.04C33.0943 31.3576 33.4306 31.6634 33.7772 31.9559C34.1993 32.312 34.8282 32.2219 35.1606 31.7809L35.7833 30.9547C36.1157 30.5137 36.0253 29.889 35.6072 29.5282C35.4042 29.353 35.2056 29.1723 35.0119 28.9866C34.6133 28.6043 33.9828 28.574 33.5756 28.9471L32.8124 29.6464Z" fill="#616F8A"/>
<path d="M50.627 32.3209C50.1071 32.5071 49.7977 33.0571 49.949 33.5883L50.2325 34.584C50.3838 35.1152 50.9382 35.4258 51.4602 35.2451C51.8894 35.0965 52.3136 34.9315 52.7309 34.7511C53.2378 34.5318 53.4374 33.9284 53.1905 33.4343L52.7284 32.5094C52.4815 32.0152 51.8817 31.8181 51.3722 32.0316C51.1264 32.1346 50.8778 32.2311 50.627 32.3209Z" fill="#616F8A"/>
<path d="M62.1039 25.5292C62.3316 25.0259 62.0735 24.4452 61.5585 24.2455L60.5945 23.8717C60.0795 23.672 59.503 23.9294 59.2697 24.4301C59.1568 24.6726 59.0374 24.9121 58.9119 25.1482C58.653 25.6352 58.7943 26.2493 59.2628 26.5403L60.1423 27.0866C60.6116 27.3781 61.231 27.2349 61.4957 26.7499C61.7135 26.3509 61.9165 25.9434 62.1039 25.5292Z" fill="#616F8A"/>
<path d="M50.1627 1.46031C50.3115 0.928645 50.0017 0.374184 49.4627 0.254698C49.0191 0.15636 48.5714 0.0745979 48.1216 0.00991709C47.5754 -0.068619 47.0902 0.340636 47.0416 0.890301L46.9505 1.92179C46.9019 2.47196 47.3093 2.95409 47.8551 3.03912C48.1192 3.08027 48.3823 3.12841 48.644 3.18334C49.1841 3.29677 49.7348 2.98962 49.8835 2.45811L50.1627 1.46031Z" fill="#616F8A"/>
<path d="M43.8705 0.901505C43.8186 0.351908 43.3306 -0.0544626 42.7847 0.0276288C42.3348 0.0952696 41.8875 0.179901 41.4447 0.280919C40.9059 0.403815 40.5994 0.960922 40.7522 1.49198L41.038 2.48568C41.1907 3.01638 41.7442 3.31954 42.2839 3.20286C42.5444 3.14657 42.8067 3.09708 43.0702 3.05451C43.6154 2.96646 44.0197 2.48203 43.9678 1.93228L43.8705 0.901505Z" fill="#616F8A"/>
<path d="M64.0226 49.5492C64.5193 49.3081 64.7224 48.7112 64.5234 48.1961C64.437 47.9724 64.3573 47.7461 64.2844 47.5176C64.1166 46.9913 63.5841 46.6528 63.0456 46.7761L62.0391 47.0065C61.5007 47.1297 61.1609 47.6674 61.3197 48.1964C61.4546 48.6455 61.6104 49.0885 61.7866 49.5234C61.9941 50.0354 62.5958 50.2418 63.0927 50.0005L64.0226 49.5492Z" fill="#616F8A"/>
<path d="M67.6741 54.1127L67.0297 54.9218C66.6856 55.3538 66.054 55.4274 65.6456 55.0557C65.3008 54.7418 64.9702 54.412 64.6552 54.0679C64.282 53.6602 64.3537 53.0278 64.785 52.6823L65.5912 52.0366C66.0223 51.6913 66.6489 51.7641 67.0284 52.1654C67.1943 52.3409 67.3654 52.5114 67.5414 52.6767C67.9438 53.0548 68.0181 53.6808 67.6741 54.1127Z" fill="#616F8A"/>
<path d="M75.8049 29.6544C75.8035 29.1021 75.3541 28.6521 74.803 28.6897C74.3362 28.7216 73.8716 28.7749 73.4112 28.8492C72.866 28.9373 72.5306 29.4775 72.6545 30.0156L72.8866 31.0233C73.0106 31.5618 73.5477 31.8933 74.0945 31.8141C74.3319 31.7797 74.5707 31.7523 74.8103 31.732C75.361 31.6855 75.8088 31.2408 75.8075 30.6882L75.8049 29.6544Z" fill="#616F8A"/>
<path d="M63.9986 38.1544C64.4966 38.3931 65.0904 38.1804 65.3694 37.7038C65.4913 37.4957 65.6194 37.291 65.7535 37.0902C66.06 36.6313 65.9916 36.005 65.5597 35.6616L64.7501 35.0179C64.3178 34.6742 63.6857 34.7443 63.3713 35.1984C63.1045 35.5837 62.8557 35.9814 62.6261 36.3892C62.3553 36.8702 62.5684 37.4688 63.0662 37.7074L63.9986 38.1544Z" fill="#616F8A"/>
<path d="M91.0125 44.2859C91.021 44.008 90.796 43.7818 90.518 43.7793L88.9669 43.809C88.4222 43.8195 87.9904 44.2647 87.947 44.8078C87.9273 45.055 87.9001 45.3013 87.8655 45.5462C87.7885 46.0928 88.1219 46.6276 88.6601 46.7497L89.6697 46.9786C90.2079 47.1006 90.7467 46.7638 90.8327 46.2187C90.9323 45.5876 90.9923 44.944 91.0125 44.2859Z" fill="#616F8A"/>
<path d="M63.8303 42.1365C63.9064 41.5889 63.5719 41.0533 63.0325 40.9322L62.0247 40.7059C61.4862 40.5849 60.9449 40.9221 60.8491 41.4656C60.7365 42.1049 60.6798 42.696 60.6798 43.4577C60.6798 43.6776 60.8592 43.8553 61.0791 43.8532L62.7233 43.8376C63.2718 43.8324 63.7094 43.3855 63.7533 42.8387C63.7722 42.6036 63.7979 42.3694 63.8303 42.1365Z" fill="#616F8A"/>
<path d="M87.6901 49.5263C87.1924 49.2863 86.5979 49.498 86.3177 49.9742C86.1957 50.1816 86.0674 50.3855 85.9331 50.5854C85.6251 51.0441 85.6918 51.6715 86.1236 52.0162L86.9311 52.6605C87.3627 53.005 87.9949 52.936 88.3101 52.4826C88.5774 52.0982 88.8268 51.7015 89.0572 51.2946C89.3294 50.814 89.1176 50.2144 88.6201 49.9746L87.6901 49.5263Z" fill="#616F8A"/>
<path d="M82.0087 56.5971L81.5586 55.665C81.3185 55.1678 81.5292 54.5734 82.0047 54.2926C82.212 54.1701 82.4159 54.0413 82.616 53.9067C83.0735 53.5988 83.6992 53.6658 84.0435 54.0965L84.6905 54.9058C85.0355 55.3374 84.9669 55.9699 84.5136 56.2858C84.1301 56.553 83.7346 56.8025 83.3289 57.0329C82.8487 57.3057 82.2489 57.0944 82.0087 56.5971Z" fill="#616F8A"/>
<path d="M67.1574 31.3898C66.7055 31.7063 66.6387 32.338 66.984 32.7683L67.6322 33.5762C67.978 34.0071 68.6056 34.0722 69.0634 33.7629C69.263 33.628 69.4666 33.4991 69.6738 33.3764C70.1487 33.095 70.3582 32.5004 70.1171 32.0038L69.6649 31.0722C69.4235 30.575 68.8227 30.365 68.3426 30.6389C67.9364 30.8707 67.5407 31.1213 67.1574 31.3898Z" fill="#616F8A"/>
<path d="M89.655 40.6174C90.1927 40.4924 90.5305 39.9541 90.3704 39.4259C90.2346 38.9779 90.078 38.5363 89.9014 38.103C89.6929 37.5913 89.0907 37.3857 88.594 37.6278L87.6639 38.0811C87.1678 38.3228 86.9655 38.9195 87.1651 39.434C87.2523 39.6586 87.3328 39.8859 87.4066 40.1155C87.5755 40.6411 88.1089 40.9771 88.6466 40.852L89.655 40.6174Z" fill="#616F8A"/>
<path d="M78.7311 31.005L78.9569 29.9963C79.0776 29.4571 79.614 29.1147 80.144 29.2711C80.5933 29.4037 81.0364 29.557 81.4715 29.7307C81.9843 29.9354 82.1939 30.5356 81.9556 31.0337L81.5094 31.9667C81.2711 32.4651 80.6749 32.6715 80.1585 32.4753C79.9344 32.3902 79.7077 32.3117 79.479 32.2401C78.9516 32.0751 78.6104 31.5442 78.7311 31.005Z" fill="#616F8A"/>
<path d="M86.0304 32.5784C85.621 32.2074 84.9892 32.2824 84.6461 32.7155L84.0041 33.5257C83.6612 33.9584 83.737 34.5842 84.1401 34.9614C84.3162 35.1263 84.4874 35.2963 84.6535 35.4713C85.0337 35.8718 85.6603 35.9432 86.0906 35.597L86.8962 34.9489C87.327 34.6023 87.3971 33.9695 87.0226 33.5628C86.707 33.2199 86.3758 32.8912 86.0304 32.5784Z" fill="#616F8A"/>
<path d="M72.941 56.6443L72.7132 57.6523C72.5914 58.1912 72.0546 58.5324 71.525 58.375C71.0758 58.2413 70.6324 58.0867 70.197 57.9117C69.6848 57.7057 69.4767 57.1051 69.716 56.6076L70.1646 55.6749C70.404 55.1773 71.0001 54.9721 71.5157 55.1696C71.7399 55.2555 71.9666 55.3347 72.1954 55.4069C72.7225 55.5734 73.0628 56.1051 72.941 56.6443Z" fill="#616F8A"/>
<path d="M76.3415 59.0014C77.1036 59.0014 77.6508 58.944 78.2613 58.8303C78.8041 58.7291 79.1396 58.1857 79.0168 57.6473L78.7867 56.6389C78.6638 56.1001 78.1274 55.7675 77.5803 55.8454C77.3432 55.8792 77.1048 55.9059 76.8658 55.9256C76.3153 55.9709 75.8669 56.4144 75.8669 56.9666V58.5268C75.8669 58.7889 76.0794 59.0014 76.3415 59.0014Z" fill="#616F8A"/>
<path d="M34.9695 13.8843C34.789 14.423 34.9255 15.0193 35.3214 15.4259L39.3369 19.5425L38.3873 25.3753C38.2932 25.9488 38.5359 26.5254 39.0108 26.8608C39.4856 27.1961 40.1091 27.2295 40.6188 26.9488L45.5096 24.2433L50.4004 26.9473C50.6295 27.0732 50.8828 27.1369 51.1346 27.1369C51.441 27.1369 51.7475 27.0428 52.0084 26.8592C52.4832 26.5254 52.7259 25.9473 52.6319 25.3737L51.6823 19.541L55.6977 15.4244C56.0952 15.0178 56.2317 14.423 56.0497 13.8828C55.8677 13.3426 55.4019 12.9496 54.8406 12.8646L49.3521 12.027L46.884 6.76635C46.6337 6.23375 46.0982 5.89386 45.5096 5.89386C44.921 5.89386 44.3855 6.23375 44.1367 6.76635L41.6685 12.027L36.18 12.8646C35.6172 12.9511 35.15 13.3456 34.9695 13.8843ZM42.9261 14.9055C43.4268 14.8281 43.8561 14.5079 44.07 14.0497L45.5096 10.9831L46.9492 14.0497C47.1646 14.5079 47.5939 14.8281 48.093 14.9055L51.4638 15.4199L48.9744 17.9721C48.6376 18.3165 48.4859 18.8005 48.5633 19.2755L49.1337 22.7791L46.2423 21.1813C46.0147 21.0553 45.7614 20.9916 45.5081 20.9916C45.2547 20.9916 45.0029 21.0553 44.7738 21.1813L41.8824 22.7791L42.4528 19.2755C42.5302 18.8005 42.3785 18.3165 42.0417 17.9721L39.5523 15.4199L42.9261 14.9055Z" fill="#616F8A"/>
<path d="M7.81058 49.178C8.08819 49.6241 8.57515 49.8973 9.10155 49.8973H21.2375C21.7639 49.8973 22.2509 49.6241 22.5285 49.178C22.8046 48.7304 22.8304 48.172 22.5953 47.7016L16.5273 35.5628C16.013 34.534 14.3276 34.534 13.8133 35.5628L7.74535 47.7016C7.51021 48.172 7.53449 48.7304 7.81058 49.178ZM15.1695 39.6338L18.783 46.8625H11.556L15.1695 39.6338Z" fill="#616F8A"/>
<path d="M66.7477 43.8279C66.7477 48.8488 70.83 52.9321 75.8497 52.9321C80.8695 52.9321 84.9517 48.8488 84.9517 43.8279C84.9517 38.8069 80.8695 34.7237 75.8497 34.7237C70.83 34.7237 66.7477 38.8069 66.7477 43.8279ZM75.8497 37.7584C79.1962 37.7584 81.9177 40.4806 81.9177 43.8279C81.9177 47.1752 79.1962 49.8973 75.8497 49.8973C72.5032 49.8973 69.7817 47.1752 69.7817 43.8279C69.7817 40.4806 72.5032 37.7584 75.8497 37.7584Z" fill="#616F8A"/>
<path d="M59.1628 89.3487V65.0709C59.1628 64.2334 58.4831 63.5536 57.6458 63.5536H33.3738C32.5364 63.5536 31.8568 64.2334 31.8568 65.0709V89.3487C31.8568 90.1863 32.5364 90.8661 33.3738 90.8661H57.6458C58.4831 90.8661 59.1628 90.1863 59.1628 89.3487ZM43.9928 66.5883H47.0268V72.6578H43.9928V66.5883ZM56.1288 87.8314H34.8908V66.5883H40.9588V74.1751C40.9588 75.0127 41.6384 75.6925 42.4758 75.6925H48.5438C49.3811 75.6925 50.0608 75.0127 50.0608 74.1751V66.5883H56.1288V87.8314Z" fill="#616F8A"/>
<path d="M48.5438 40.7932H45.5098C45.5098 41.6444 45.1806 42.0086 44.4372 42.7521C43.6105 43.579 42.4758 44.7125 42.4758 46.8565C42.4758 49.0036 43.609 50.1371 44.4357 50.9656C45.1806 51.7091 45.5098 52.0747 45.5098 52.929C45.5098 53.7818 45.1806 54.1475 44.4357 54.8925C43.609 55.721 42.4758 56.8544 42.4758 59.0015H45.5098C45.5098 58.1487 45.839 57.7831 46.5838 57.038C47.4106 56.2096 48.5438 55.0761 48.5438 52.929C48.5438 50.782 47.4106 49.647 46.5823 48.82C45.839 48.075 45.5098 47.7093 45.5098 46.8565C45.5098 46.0053 45.839 45.6411 46.5823 44.8991C47.409 44.0707 48.5438 42.9387 48.5438 40.7932Z" fill="#616F8A"/>
</svg>
