<svg width="24" height="24" viewBox="0 0 24 24" fill="none" xmlns="http://www.w3.org/2000/svg">
<path fill-rule="evenodd" clip-rule="evenodd" d="M22 10.5859H5.41339L10.2925 5.70686C10.683 5.31634 10.683 4.68317 10.2925 4.29265C9.90193 3.90213 9.26876 3.90212 8.87824 4.29265L2.7159 10.455C2.64187 10.529 2.58188 10.6118 2.53592 10.6999C2.21732 10.8671 2 11.2011 2 11.5859C2 11.9736 2.22059 12.3097 2.54309 12.4757C2.58806 12.5588 2.64566 12.6369 2.7159 12.7071L8.87824 18.8694C9.26876 19.26 9.90193 19.26 10.2925 18.8694C10.683 18.4789 10.683 17.8457 10.2925 17.4552L5.42315 12.5859H22C22.5523 12.5859 23 12.1382 23 11.5859C23 11.0336 22.5523 10.5859 22 10.5859Z" fill="#1047D6"/>
</svg>
