<svg width="92" height="91" fill="none" xmlns="http://www.w3.org/2000/svg"><path d="M63.714 90.866h24.272c.837 0 1.517-.68 1.517-1.517V65.07c0-.838-.68-1.517-1.517-1.517H63.714c-.838 0-1.517.68-1.517 1.517v24.278c0 .837.68 1.517 1.517 1.517zm10.619-24.278h3.034v6.07h-3.034v-6.07zm-9.102 0h6.068v7.587c0 .838.68 1.517 1.517 1.517h6.068c.837 0 1.517-.68 1.517-1.517v-7.587h6.068v21.243H65.23V66.588zM3.034 90.866h24.272c.837 0 1.517-.68 1.517-1.517V65.07c0-.838-.68-1.517-1.517-1.517H3.034c-.838 0-1.517.68-1.517 1.517v24.278c0 .837.68 1.517 1.517 1.517zm10.619-24.278h3.034v6.07h-3.034v-6.07zm-9.102 0h6.068v7.587c0 .838.68 1.517 1.517 1.517h6.068c.837 0 1.517-.68 1.517-1.517v-7.587h6.068v21.243H4.55V66.588zm7.423-36.572c-.123-.539.212-1.079.757-1.167.46-.074.925-.128 1.392-.16.551-.037 1 .413 1.002.965l.002 1.034c.002.553-.446.997-.997 1.044-.24.02-.478.048-.716.082-.546.08-1.083-.252-1.207-.79l-.233-1.008zM18.8 32.24c-.527-.165-.868-.696-.747-1.235l.225-1.009c.121-.54.657-.881 1.188-.725.449.133.892.286 1.327.46.513.204.722.804.484 1.302l-.446.933c-.238.499-.835.705-1.351.51-.224-.086-.45-.164-.68-.236zm6.551.339c-.41-.371-1.041-.296-1.384.137l-.642.81c-.343.433-.267 1.058.136 1.436.176.165.347.335.513.51.38.4 1.007.471 1.437.125l.806-.648c.43-.346.5-.98.126-1.386a15.457 15.457 0 0 0-.992-.984zm4.34 6.847c.16.528-.177 1.066-.715 1.191l-1.007.235c-.538.125-1.072-.212-1.241-.738a12.065 12.065 0 0 0-.24-.68c-.2-.514.002-1.112.498-1.354l.929-.452c.497-.242 1.099-.037 1.307.475.177.433.334.875.47 1.323zM15.187 58c0 .552.448 1.004 1 .967.466-.03.93-.083 1.391-.156.545-.087.882-.627.759-1.165l-.23-1.008c-.123-.539-.66-.872-1.206-.794-.238.034-.476.06-.715.08-.55.046-.999.49-.999 1.042V58zm-3.672-2.594c.527.167.868.699.746 1.238l-.228 1.008c-.122.538-.659.88-1.188.722-.45-.133-.893-.288-1.328-.463-.512-.206-.72-.807-.481-1.304l.448-.933c.24-.497.836-.703 1.352-.505.224.086.45.165.68.237zm9.81-1.114c-.476.28-.687.875-.447 1.372l.45.932c.24.497.84.709 1.32.436.406-.23.802-.48 1.185-.747.453-.316.522-.949.177-1.38l-.647-.81c-.344-.43-.97-.497-1.427-.19-.2.135-.404.264-.612.387zM8.383 33.763c-.458.31-1.085.244-1.431-.187l-.648-.807c-.346-.43-.279-1.063.173-1.38.383-.267.779-.518 1.185-.75.48-.274 1.081-.064 1.322.433l.453.932c.24.497.031 1.091-.444 1.373-.207.122-.41.251-.61.386zM3.344 49.55c.496-.241.699-.838.5-1.353-.086-.224-.166-.45-.239-.679-.168-.526-.7-.864-1.239-.741l-1.006.23c-.539.123-.879.661-.72 1.19.135.45.291.892.467 1.327.208.512.81.718 1.306.477l.93-.451zM2.69 35.197c.315-.454.946-.523 1.378-.18l.81.644c.432.343.5.97.193 1.43-.134.2-.262.405-.383.613-.279.476-.873.689-1.37.45l-.933-.446c-.498-.239-.712-.838-.44-1.32.23-.408.478-.805.745-1.191zm2.274 19.858c.409.372 1.04.298 1.384-.133l.645-.81c.344-.431.27-1.058-.133-1.436a12.25 12.25 0 0 1-.513-.51c-.38-.402-1.006-.475-1.437-.13l-.806.646c-.432.346-.504.978-.13 1.386.315.344.645.674.99.987zM.03 43.857A.029.029 0 0 1 0 43.828c0-.791.061-1.582.183-2.36.085-.545.623-.883 1.162-.762l1.008.226c.54.121.874.657.798 1.205-.033.233-.059.467-.077.702-.044.547-.482.994-1.03.999l-2.015.019zm30.304.429a.495.495 0 0 0-.495-.507l-1.55.03c-.546.01-.977.456-1.02.999-.02.247-.048.493-.082.738-.077.547.256 1.082.794 1.204l1.01.228c.538.122 1.077-.214 1.163-.76.1-.63.16-1.274.18-1.932zm-2.703 8.197c-.316.453-.948.522-1.38.177l-.807-.644c-.432-.344-.498-.972-.19-1.43.134-.2.261-.403.383-.61.28-.477.875-.69 1.373-.45l.93.449c.498.24.71.84.438 1.32-.23.407-.48.803-.747 1.188zm.182-38.733c-.13.537.233 1.059.776 1.158l1.017.187c.543.099 1.061-.262 1.197-.797.065-.258.137-.515.216-.77.164-.528-.09-1.106-.606-1.305l-.964-.37c-.516-.2-1.097.057-1.266.582-.14.434-.264.872-.37 1.315zM54.453 2.17c-.48-.271-1.082-.066-1.326.429l-.459.927c-.245.495-.04 1.093.439 1.37.23.134.458.275.682.42.462.303 1.087.217 1.419-.225l.621-.828c.332-.442.244-1.071-.215-1.378a18.232 18.232 0 0 0-1.16-.715zm.982 27.337c-.417.362-.506.986-.173 1.427l.624.825c.333.44.963.53 1.384.172.347-.293.682-.6 1.006-.918.393-.387.362-1.021-.046-1.393l-.766-.698c-.408-.372-1.038-.34-1.436.043-.193.186-.39.367-.593.542zm-9.229 6.721c.553-.02.958-.511.907-1.062l-.096-1.031c-.05-.549-.536-.949-1.087-.934a15.127 15.127 0 0 1-.807-.002c-.55-.015-1.036.389-1.087.938l-.094 1.03a.956.956 0 0 0 .908 1.057c.22.008.446.013.684.017.225 0 .449-.005.672-.013zm14.368-16.394c-.065.548.29 1.07.833 1.17l1.017.189c.544.1 1.069-.258 1.14-.807.099-.774.15-1.552.15-2.306a.114.114 0 0 0-.117-.114l-1.94.044c-.544.013-.974.457-1.009 1-.017.275-.042.55-.074.824zm-.005-7.704c-.514.201-.764.78-.598 1.307.081.255.156.512.223.77.139.535.66.893 1.202.79l1.016-.194c.543-.103.901-.628.768-1.164-.11-.441-.236-.879-.378-1.31-.173-.525-.756-.777-1.27-.576l-.963.377zm-3.148-5.037c-.407.373-.431 1.004-.085 1.434.168.21.331.423.488.64.323.448.937.592 1.405.3l.878-.55c.468-.293.612-.911.294-1.362a18.217 18.217 0 0 0-.826-1.084c-.35-.427-.986-.452-1.392-.078l-.762.7zM37.86 33.45c-.246.494-.045 1.097.462 1.315.418.18.843.344 1.273.492.522.18 1.076-.132 1.226-.664l.282-.995c.15-.532-.161-1.081-.681-1.267-.252-.09-.501-.186-.747-.288-.51-.213-1.109-.015-1.355.48l-.46.927zM30.556 7.647c-.316.453-.168 1.07.302 1.36l.88.545c.47.29 1.084.142 1.404-.308.156-.218.317-.433.484-.643.344-.432.316-1.063-.093-1.434l-.766-.695c-.409-.371-1.044-.343-1.392.086-.286.352-.56.716-.82 1.089zm1.208 16.814c-.235-.5-.812-.757-1.327-.556l-.962.376c-.515.2-.771.781-.543 1.284.188.412.392.819.61 1.217.266.485.886.628 1.355.336l.877-.547c.469-.291.61-.906.349-1.393a15.15 15.15 0 0 1-.36-.717zm3.548-21.513c-.458.31-.541.94-.207 1.379l.627.824c.334.44.96.522 1.42.217.222-.147.45-.289.679-.424.476-.28.678-.879.43-1.372l-.463-.925c-.247-.494-.85-.696-1.33-.421-.393.226-.78.467-1.157.722zm-7.85 17.479c.072.547.597.904 1.14.802l1.017-.19c.543-.103.897-.625.831-1.174a15.34 15.34 0 0 1-.075-.8c-.037-.55-.482-.998-1.034-.997l-1.036.002c-.552.002-1 .45-.97 1 .025.454.068.907.127 1.357zm5.35 9.22c-.407.372-.436 1.007-.042 1.393.324.318.66.623 1.007.916.422.356 1.051.266 1.384-.175l.622-.826c.333-.441.242-1.066-.176-1.427a15.397 15.397 0 0 1-.595-.541c-.399-.383-1.03-.413-1.436-.04l-.764.7zm17.815 2.674c-.52.186-.83.736-.678 1.267l.284.996c.15.531.705.842 1.227.661.43-.148.854-.313 1.27-.494.508-.22.707-.823.46-1.317l-.462-.925c-.247-.494-.846-.69-1.356-.477-.246.103-.494.2-.745.289zm11.477-6.792c.228-.503-.03-1.084-.545-1.284l-.965-.373c-.514-.2-1.091.057-1.324.558-.113.243-.233.482-.358.718-.259.487-.118 1.101.35 1.392l.88.547c.47.291 1.089.148 1.354-.337.218-.4.42-.807.608-1.22zM50.163 1.46c.149-.531-.161-1.086-.7-1.205-.444-.099-.892-.18-1.341-.245-.547-.079-1.032.33-1.08.88l-.092 1.032c-.048.55.36 1.032.905 1.117.264.041.527.09.789.144.54.114 1.09-.193 1.24-.725l.279-.998zM43.87.902c-.052-.55-.54-.956-1.086-.874-.45.067-.897.152-1.34.253-.54.123-.846.68-.693 1.211l.286.994c.153.53.706.834 1.246.717.26-.056.523-.106.786-.148.545-.089.95-.573.898-1.123L43.87.902zm20.152 48.647c.496-.24.7-.838.5-1.353-.086-.224-.166-.45-.239-.678-.167-.527-.7-.865-1.238-.742l-1.007.23c-.538.124-.878.661-.72 1.19.136.45.291.893.468 1.327.207.512.809.719 1.306.477l.93-.45zm3.651 4.564l-.644.809c-.344.432-.976.505-1.384.134a15.38 15.38 0 0 1-.99-.988c-.374-.408-.302-1.04.129-1.386l.806-.645c.431-.346 1.058-.273 1.437.128.166.176.337.346.513.512.403.378.477 1.004.133 1.436zm8.13-24.459c0-.552-.45-1.002-1.001-.964-.467.032-.931.085-1.392.16-.545.087-.88.627-.757 1.166l.233 1.007c.124.539.66.87 1.207.791.238-.034.477-.062.716-.082.551-.046.999-.491.998-1.044l-.003-1.034zM64 38.154c.498.24 1.091.026 1.37-.45.122-.208.25-.413.385-.614.306-.459.238-1.085-.194-1.428l-.81-.644c-.432-.344-1.064-.274-1.379.18a15.14 15.14 0 0 0-.745 1.191c-.27.481-.058 1.08.44 1.318l.933.447zm27.014 6.132a.495.495 0 0 0-.495-.507l-1.551.03c-.545.01-.977.456-1.02.999-.02.247-.047.493-.082.738-.076.547.257 1.082.795 1.204l1.01.229c.538.122 1.077-.215 1.163-.76.1-.631.16-1.275.18-1.933zm-27.183-2.15c.076-.547-.258-1.083-.797-1.204l-1.008-.226c-.539-.121-1.08.216-1.176.76-.112.639-.17 1.23-.17 1.992 0 .22.18.397.4.395l1.644-.015c.549-.006.986-.453 1.03-1 .02-.234.045-.469.077-.702zm23.86 7.39c-.498-.24-1.092-.028-1.372.448-.122.208-.25.412-.385.611-.308.46-.241 1.087.19 1.431l.808.645c.432.344 1.064.275 1.38-.178a15.2 15.2 0 0 0 .746-1.188c.272-.481.06-1.08-.437-1.32l-.93-.449zm-5.681 7.071l-.45-.932c-.24-.497-.03-1.092.446-1.372.207-.123.41-.252.611-.386.457-.308 1.083-.241 1.427.19l.647.809c.346.431.277 1.064-.176 1.38-.384.267-.78.517-1.185.747-.48.273-1.08.061-1.32-.436zM67.157 31.39c-.451.316-.518.948-.173 1.378l.648.808c.346.431.974.496 1.431.187.2-.135.404-.264.61-.387.476-.281.685-.876.444-1.372l-.452-.932c-.242-.497-.842-.707-1.322-.433-.407.232-.802.482-1.186.75zm22.498 9.227c.538-.125.876-.663.715-1.191a15.15 15.15 0 0 0-.469-1.323c-.208-.512-.81-.717-1.307-.475l-.93.453c-.496.242-.698.838-.499 1.353.087.225.168.452.242.681.169.526.702.862 1.24.737l1.008-.235zm-10.924-9.612l.226-1.009c.12-.539.657-.881 1.187-.725.45.133.892.286 1.328.46.512.204.722.805.484 1.303l-.447.933c-.238.498-.834.705-1.35.508-.225-.085-.451-.163-.68-.235-.527-.165-.869-.696-.748-1.235zm7.3 1.573c-.41-.37-1.042-.296-1.385.137l-.642.81c-.343.433-.267 1.06.136 1.436.176.165.347.335.513.51.38.4 1.007.472 1.438.126l.805-.648c.431-.347.501-.98.127-1.386a15.382 15.382 0 0 0-.993-.985zM72.94 56.644l-.228 1.008c-.122.54-.658.88-1.188.723-.45-.134-.893-.288-1.328-.463-.512-.206-.72-.807-.481-1.304l.449-.933c.239-.498.835-.703 1.35-.505.225.085.452.165.68.237.528.166.868.698.746 1.237zm3.4 2.357c.763 0 1.31-.057 1.92-.17.543-.102.879-.645.756-1.184l-.23-1.008c-.123-.539-.66-.872-1.207-.794-.237.034-.475.06-.714.08-.55.046-1 .49-1 1.042v1.56c0 .262.213.474.475.474zM34.97 13.884a1.52 1.52 0 0 0 .351 1.542l4.016 4.117-.95 5.832a1.518 1.518 0 0 0 2.232 1.574l4.89-2.706 4.891 2.704a1.52 1.52 0 0 0 2.232-1.574l-.95-5.832 4.016-4.117a1.517 1.517 0 1 0-.857-2.56l-5.489-.837-2.468-5.26a1.518 1.518 0 0 0-2.747 0l-2.468 5.26-5.489.838a1.521 1.521 0 0 0-1.21 1.02zm7.956 1.021c.5-.077.93-.397 1.144-.855l1.44-3.067 1.44 3.067c.215.458.644.778 1.143.855l3.37.515-2.489 2.552a1.515 1.515 0 0 0-.41 1.303l.57 3.504-2.892-1.598a1.517 1.517 0 0 0-1.468 0l-2.892 1.598.57-3.503a1.515 1.515 0 0 0-.41-1.304l-2.49-2.552 3.374-.514zM7.811 49.178c.277.446.764.72 1.29.72h12.136a1.519 1.519 0 0 0 1.358-2.196l-6.068-12.14c-.514-1.028-2.2-1.028-2.714 0l-6.068 12.14c-.235.47-.21 1.028.066 1.476zm7.358-9.544l3.614 7.228h-7.227l3.614-7.228zm51.579 4.194c0 5.02 4.082 9.104 9.102 9.104 5.02 0 9.102-4.083 9.102-9.104 0-5.021-4.082-9.104-9.102-9.104-5.02 0-9.102 4.083-9.102 9.104zm9.102-6.07a6.075 6.075 0 0 1 6.068 6.07 6.075 6.075 0 0 1-6.068 6.07 6.075 6.075 0 0 1-6.068-6.07 6.075 6.075 0 0 1 6.068-6.07zm-16.687 51.59V65.072c0-.838-.68-1.517-1.517-1.517H33.374c-.838 0-1.517.68-1.517 1.517v24.278c0 .837.68 1.517 1.517 1.517h24.272c.837 0 1.517-.68 1.517-1.517zm-15.17-22.76h3.034v6.07h-3.034v-6.07zm12.136 21.243H34.89V66.588h6.068v7.587c0 .838.68 1.517 1.517 1.517h6.068c.837 0 1.517-.68 1.517-1.517v-7.587h6.068v21.243zm-7.585-47.038H45.51c0 .851-.33 1.216-1.073 1.96-.826.826-1.961 1.96-1.961 4.103 0 2.148 1.133 3.281 1.96 4.11.745.743 1.074 1.109 1.074 1.963 0 .853-.33 1.218-1.074 1.963-.827.829-1.96 1.962-1.96 4.11h3.034c0-.853.329-1.219 1.074-1.964.827-.828 1.96-1.962 1.96-4.109 0-2.147-1.133-3.282-1.962-4.109-.743-.745-1.072-1.11-1.072-1.964 0-.85.329-1.215 1.072-1.957.827-.828 1.962-1.96 1.962-4.106z" fill="#616F8A"/></svg>