<svg width="32" height="29" fill="none" xmlns="http://www.w3.org/2000/svg"><path fill-rule="evenodd" clip-rule="evenodd" d="M30.5 11.333h-29V26A1.5 1.5 0 0 0 3 27.5h26a1.5 1.5 0 0 0 1.5-1.5V11.333zm0-1.5h-29V6A1.5 1.5 0 0 1 3 4.5h26A1.5 1.5 0 0 1 30.5 6v3.833zM32 6a3 3 0 0 0-3-3H3a3 3 0 0 0-3 3v20a3 3 0 0 0 3 3h26a3 3 0 0 0 3-3V6z" fill="#E76060"/><path fill-rule="evenodd" clip-rule="evenodd" d="M8.25 7V0h1.5v7h-1.5zm7 0V0h1.5v7h-1.5zm7 0V0h1.5v7h-1.5zM10 17.5H6v-3h4v3zm0 6H6v-3h4v3zm16-6h-4v-3h4v3zm0 6h-4v-3h4v3zm-8-6h-4v-3h4v3zm0 6h-4v-3h4v3z" fill="#E76060"/></svg>