<svg width="100" height="100" fill="none" xmlns="http://www.w3.org/2000/svg"><path fill-rule="evenodd" clip-rule="evenodd" d="M39.779 79.03a5.735 5.735 0 0 1-3.187.966 5.744 5.744 0 0 1-5.734-5.735 5.736 5.736 0 1 1 8.92 4.77zm-1.736-6.94a2.61 2.61 0 1 0-2.898 4.343 2.61 2.61 0 0 0 2.898-4.344z" fill="#616F8A"/><path d="M32.42 57.833h8.345a1.563 1.563 0 0 0 1.562-1.562V34.373a1.563 1.563 0 0 0-3.125 0v19.335a1 1 0 0 1-1 1h-3.208a1 1 0 0 1-1-1V27.104a1 1 0 0 1 1-1h3.208a1 1 0 0 1 1 1v2.042a1.563 1.563 0 0 0 3.125 0v-4.604a1.562 1.562 0 0 0-1.562-1.563H32.42a1.563 1.563 0 0 0-1.563 1.563v31.74a1.563 1.563 0 0 0 1.563 1.551z" fill="#616F8A"/><path fill-rule="evenodd" clip-rule="evenodd" d="M62.592 79.996a5.735 5.735 0 1 0-5.734-5.735 5.744 5.744 0 0 0 5.734 5.735zm0-8.346a2.61 2.61 0 1 1 .004 5.222 2.61 2.61 0 0 1-.004-5.222z" fill="#616F8A"/><path d="M58.42 57.833h8.345a1.562 1.562 0 0 0 1.562-1.562v-3.898a1.563 1.563 0 0 0-3.125 0v1.335a1 1 0 0 1-1 1h-3.208a1 1 0 0 1-1-1V27.104a1 1 0 0 1 1-1h3.208a1 1 0 0 1 1 1v20.042a1.563 1.563 0 0 0 3.125 0V24.542a1.562 1.562 0 0 0-1.562-1.563H58.42a1.563 1.563 0 0 0-1.563 1.563v31.74a1.563 1.563 0 0 0 1.563 1.551z" fill="#616F8A"/><path fill-rule="evenodd" clip-rule="evenodd" d="M75.623 7h-52.06A1.562 1.562 0 0 0 22 8.562v82.854a1.564 1.564 0 0 0 1.563 1.573h52.06a1.563 1.563 0 0 0 1.563-1.562V8.562A1.563 1.563 0 0 0 75.623 7zM48 11.125a1 1 0 0 0-1-1H26.125a1 1 0 0 0-1 1v77.74a1 1 0 0 0 1 1H47a1 1 0 0 0 1-1v-77.74zm4.185 78.74a1 1 0 0 1-1-1v-77.74a1 1 0 0 1 1-1h20.876a1 1 0 0 1 1 1v77.74a1 1 0 0 1-1 1H52.184z" fill="#616F8A"/></svg>