<svg width="100" height="100" fill="none" xmlns="http://www.w3.org/2000/svg"><path fill-rule="evenodd" clip-rule="evenodd" d="M61.05 70.421a11.962 11.962 0 0 0-.386 3.095c0 3.095 1.117 5.996 3.003 8.24a12.53 12.53 0 0 0 7.508 4.372h.038c.385.077.693.31.924.58.193.31.308.696.231 1.083a1.547 1.547 0 0 1-.577.929c-.308.232-.693.31-1.04.27h-.038c-3.157-.58-5.968-2.05-8.124-4.139-2.156-2.05-3.657-4.72-4.389-7.66-.423.155-.847.271-1.27.387-.462.155-.924.271-1.386.387v5.377c0 1.006-.424 1.896-1.078 2.554a3.537 3.537 0 0 1-2.541 1.044h-6.314a3.604 3.604 0 0 1-2.54-1.044c-.617-.658-1.04-1.548-1.04-2.554v-5.377a30.257 30.257 0 0 1-4.582-1.509 27.892 27.892 0 0 1-4.273-2.205l-3.812 3.83a3.574 3.574 0 0 1-2.54 1.045 3.574 3.574 0 0 1-2.542-1.045l-4.466-4.487c-.693-.735-1.04-1.625-1.04-2.554a3.61 3.61 0 0 1 1.04-2.553l3.812-3.83a30.255 30.255 0 0 1-2.233-4.294 35.615 35.615 0 0 1-1.463-4.604H14.58c-1.002 0-1.887-.425-2.541-1.083-.655-.619-1.04-1.547-1.04-2.514v-6.383c0-.968.385-1.896 1.04-2.515.654-.658 1.54-1.083 2.54-1.083h5.352a35.62 35.62 0 0 1 1.463-4.604 30.26 30.26 0 0 1 2.233-4.294l-3.812-3.83a3.61 3.61 0 0 1-1.04-2.553c0-.929.347-1.818 1.04-2.553l4.466-4.488a3.574 3.574 0 0 1 2.541-1.045c.924 0 1.848.349 2.541 1.045l3.812 3.83a27.892 27.892 0 0 1 4.273-2.205 30.28 30.28 0 0 1 4.582-1.509v-5.377c0-1.006.423-1.896 1.04-2.554A3.604 3.604 0 0 1 45.61 11h6.314c1.001 0 1.925.387 2.54 1.044.655.658 1.079 1.548 1.079 2.554v5.377c1.578.387 3.08.89 4.581 1.509 1.463.619 2.926 1.354 4.274 2.205l3.811-3.83a3.574 3.574 0 0 1 2.541-1.045c.924 0 1.81.349 2.541 1.045l4.466 4.488c.693.735 1.04 1.624 1.04 2.553a3.61 3.61 0 0 1-1.04 2.553l-3.811 3.83c.847 1.354 1.578 2.824 2.194 4.294a32.12 32.12 0 0 1 1.502 4.604h5.351c1.001 0 1.887.425 2.541 1.083.654.619 1.04 1.547 1.04 2.514v.503c0 .387-.154.735-.424 1.006s-.616.426-1 .426c-.424 0-.77-.155-1.04-.426-.231-.27-.424-.619-.424-1.006v-.502c0-.194-.077-.349-.192-.503a.73.73 0 0 0-.5-.194h-6.16a1.8 1.8 0 0 1-1.194-.425 1.777 1.777 0 0 1-.655-1.084 25.572 25.572 0 0 0-1.501-4.874 23.118 23.118 0 0 0-2.387-4.526c-.231-.387-.347-.813-.308-1.238.077-.426.23-.813.539-1.122l4.389-4.41a.738.738 0 0 0 .192-.503c0-.155-.077-.348-.192-.503l-4.466-4.488c-.154-.116-.347-.193-.5-.193a.73.73 0 0 0-.501.193l-4.39 4.41c-.307.31-.692.465-1.116.542-.423.039-.847-.077-1.232-.31a22.926 22.926 0 0 0-4.504-2.398 26.144 26.144 0 0 0-4.851-1.509 1.766 1.766 0 0 1-1.078-.657 1.82 1.82 0 0 1-.423-1.2v-6.19a.737.737 0 0 0-.193-.502.832.832 0 0 0-.539-.194h-6.314c-.192 0-.346.078-.5.194a.737.737 0 0 0-.193.503v6.19c0 .464-.154.89-.423 1.199-.27.348-.655.58-1.078.657a25.27 25.27 0 0 0-4.851 1.51 22.93 22.93 0 0 0-4.505 2.398c-.385.232-.808.348-1.232.31-.423-.078-.808-.233-1.116-.542l-4.39-4.41a.73.73 0 0 0-.5-.194c-.192 0-.346.077-.5.193l-4.466 4.488a.696.696 0 0 0-.193.503c0 .193.039.387.193.503l4.35 4.41c.347.31.5.696.54 1.122.038.425-.04.85-.27 1.238a23.118 23.118 0 0 0-2.387 4.526 25.565 25.565 0 0 0-1.502 4.874c-.077.426-.346.813-.654 1.084a1.8 1.8 0 0 1-1.194.425h-6.16a.73.73 0 0 0-.5.194c-.116.154-.231.31-.231.502v6.384c0 .193.115.348.231.503a.73.73 0 0 0 .5.193h6.16a1.8 1.8 0 0 1 1.194.425c.308.271.577.658.654 1.084a25.565 25.565 0 0 0 1.502 4.874 23.119 23.119 0 0 0 2.387 4.526c.23.387.308.813.27 1.238-.04.426-.193.813-.54 1.122l-4.35 4.41c-.154.116-.193.31-.193.503 0 .155.039.348.193.503l4.466 4.488c.154.116.308.193.5.193a.73.73 0 0 0 .5-.193l4.39-4.41c.308-.31.693-.465 1.116-.503.424-.078.847.038 1.232.27a22.94 22.94 0 0 0 4.505 2.399 25.27 25.27 0 0 0 4.85 1.509c.424.077.81.31 1.079.657.27.31.423.735.423 1.2v6.19c0 .193.077.386.193.502.154.116.308.194.5.194h6.314a.832.832 0 0 0 .539-.194.737.737 0 0 0 .193-.503v-6.19c0-.464.154-.89.423-1.199.27-.348.654-.58 1.078-.657.654-.116 1.309-.31 1.963-.465.54-.193 1.117-.348 1.694-.58l-.038-.735c0-.735.077-1.47.154-2.166.115-.658.23-1.277.385-1.896a22.177 22.177 0 0 1-9.317 2.05c-12.397 0-22.445-10.097-22.445-22.515 0-12.456 10.048-22.553 22.445-22.553 12.358 0 22.407 10.097 22.407 22.553 0 3.327-.732 6.538-2.04 9.401.577-.193 1.231-.31 1.847-.387a13.951 13.951 0 0 1 2.195-.154h.616c.192-.542.346-1.084.5-1.625.193-.62.347-1.238.462-1.857.077-.426.308-.813.655-1.084a1.8 1.8 0 0 1 1.193-.425h6.16a.73.73 0 0 0 .5-.193c.116-.155.193-.31.193-.503v-.58c0-.388.193-.736.424-1.007.27-.27.616-.425 1.04-.425.384 0 .73.155 1 .425.27.271.424.62.424 1.006v.58c0 .968-.386 1.896-1.04 2.515-.654.658-1.54 1.083-2.54 1.083h-5.352l-.347 1.277c-.115.426-.23.813-.346 1.2a15.697 15.697 0 0 1 8.585 5.415A15.832 15.832 0 0 1 89 73.516c0 3.714-1.309 7.196-3.503 9.942a15.927 15.927 0 0 1-8.97 5.455c-.386.078-.77-.039-1.079-.232a1.348 1.348 0 0 1-.616-.928c-.077-.387 0-.774.193-1.084.23-.31.539-.541.924-.619 2.964-.58 5.505-2.205 7.315-4.448a12.714 12.714 0 0 0 2.887-8.086c0-3.52-1.463-6.731-3.734-9.052-2.31-2.283-5.506-3.753-9.01-3.753-1.077 0-2.117.155-3.08.387-1 .27-1.963.619-2.887 1.122-.192.116-.385.193-.577.31-1.27 1.663-2.734 3.172-4.39 4.41a4.235 4.235 0 0 0-.307.58 11.59 11.59 0 0 0-1.117 2.901zM61.241 64c.77-.85 1.54-1.624 2.348-2.282l.039-.039a19.43 19.43 0 0 0 4.697-12.689c0-10.754-8.663-19.458-19.327-19.458-10.703 0-19.365 8.704-19.365 19.458 0 10.716 8.662 19.42 19.365 19.42 4.658 0 8.932-1.663 12.243-4.41zm10.626 13.657c.154.116.308.232.5.309a1.589 1.589 0 0 0 1.194 0c.192-.077.346-.193.5-.31l5.852-5.725c.27-.27.424-.658.424-1.006 0-.387-.154-.774-.462-1.044a1.508 1.508 0 0 0-1.078-.426c-.385 0-.77.116-1.078.387l-4.736 4.642-2.964-2.94a1.466 1.466 0 0 0-1.117-.464c-.192-.039-.423 0-.616.077a1.464 1.464 0 0 0-.5.348c-.154.155-.27.31-.347.503a1.42 1.42 0 0 0-.115.58c0 .194.038.388.115.581.116.155.231.348.385.464l4.043 4.024z" fill="#616F8A"/></svg>