<svg width="96" height="96" fill="none" xmlns="http://www.w3.org/2000/svg"><path d="M18.386 63.711c5.632 4.234 12.398 6.516 19.583 6.602 17.834 0 32.344-14.51 32.344-32.344 0-17.835-14.51-32.344-32.344-32.344-8.607 0-16.702 3.369-22.794 9.486-6.067 6.09-9.458 14.203-9.55 22.843a31.612 31.612 0 0 0 8.137 21.526 1.406 1.406 0 0 0 2.092-1.881 28.805 28.805 0 0 1-7.416-19.615c.083-7.902 3.184-15.32 8.73-20.888 5.56-5.584 12.947-8.659 20.8-8.659C54.253 8.438 67.5 21.685 67.5 37.97 67.5 54.252 54.252 67.5 37.986 67.5c-6.566-.078-12.76-2.166-17.91-6.037a1.406 1.406 0 1 0-1.69 2.248z" fill="#616F8A"/><path d="M43.313 12.844h-9.75A2.159 2.159 0 0 0 31.406 15v4.969h-9.093a2.159 2.159 0 0 0-2.157 2.156v15.094h-1.882a1.406 1.406 0 1 0 0 2.812h40.327a1.406 1.406 0 1 0 0-2.812h-1.882V29.25a2.159 2.159 0 0 0-2.156-2.156h-9.094V15a2.159 2.159 0 0 0-2.156-2.156zM22.969 22.78h8.437V37.22H22.97V22.78zm11.25-7.125h8.437V37.22H34.22V15.656zm19.687 14.25v7.313H45.47v-7.313h8.437zm.282 22.041h-6.62L44.56 44.26a1.408 1.408 0 0 0-2.628.024l-4.11 11.083-2.873-8.142a1.406 1.406 0 0 0-2.554-.218l-2.759 4.941h-6.602a1.406 1.406 0 1 0 0 2.813h7.428c.51 0 .98-.276 1.228-.721l1.643-2.943 3.13 8.87c.197.56.722.934 1.314.94h.012c.587 0 1.114-.367 1.318-.918l4.178-11.267 2.013 5.145c.21.539.73.894 1.31.894h7.58a1.406 1.406 0 1 0 0-2.813z" fill="#616F8A"/><path fill-rule="evenodd" clip-rule="evenodd" d="M95.259 85.315l-1.37-1.37a1.406 1.406 0 1 0-1.989 1.989l1.17 1.17-5.965 5.967-10.143-10.143 5.966-5.966 4.732 4.732a1.407 1.407 0 0 0 1.989-1.989l-5.724-5.723-.002-.003L79.945 70l-.003-.003-3.51-3.51a2.514 2.514 0 0 0-1.79-.742c-.676 0-1.312.264-1.79.742l-.199.199-5.032-5.033a37.844 37.844 0 0 0 7.455-15.637l.499-2.813a37.96 37.96 0 0 0 .276-2.711l.084-2.813a39.19 39.19 0 0 0-.114-2.711l-.321-2.813c-.983-6.465-3.61-12.512-7.745-17.735a1.407 1.407 0 0 0-2.205 1.745c4.956 6.26 7.575 13.8 7.575 21.803 0 19.385-15.771 35.156-35.156 35.156-19.386 0-35.157-15.771-35.157-35.156 0-19.386 15.772-35.157 35.157-35.157a35.072 35.072 0 0 1 23.638 9.133 1.406 1.406 0 1 0 1.891-2.081A37.878 37.878 0 0 0 37.968 0C17.034 0 0 17.033 0 37.969 0 56.453 13.278 71.89 30.796 75.255l2.812.43c.895.103 1.8.175 2.712.215l2.812.018a38.193 38.193 0 0 0 2.712-.177l2.812-.393a37.82 37.82 0 0 0 16.998-7.727l5.033 5.032-.199.199a2.514 2.514 0 0 0-.741 1.79c0 .676.263 1.312.741 1.79L70 79.943l.002.002 3.977 3.978.003.002 11.333 11.333a2.513 2.513 0 0 0 1.79.742c.676 0 1.312-.263 1.79-.741l6.364-6.364a2.515 2.515 0 0 0 .741-1.79c0-.677-.263-1.312-.741-1.79zm-24.595-16.64L65.78 63.79a38.1 38.1 0 0 1-1.99 1.99l4.886 4.885 1.99-1.989zm2.32 10.276l1.99 1.989 5.965-5.966-1.988-1.99-5.966 5.967zm3.978-7.955l-2.32-2.32-5.966 5.966 2.32 2.32 5.966-5.966z" fill="#616F8A"/></svg>