<svg width="100" height="100" fill="none" xmlns="http://www.w3.org/2000/svg"><path fill-rule="evenodd" clip-rule="evenodd" d="M17.502 10C14.47 10 12 12.505 12 15.585c0 3.07 2.469 5.568 5.502 5.568 2.467 0 4.538-1.673 5.224-3.959l.058-.192 22.492.103.065.177.077.21c.123.345.266.743.41.982l.195.321-.364.08C35.51 21.132 27.886 30.319 27.886 41.29c0 7.83 3.874 15.038 10.363 19.282 1.988 1.3 3.212 3.685 3.212 6.22v1.556l-.172.066a4.109 4.109 0 0 0-2.523 2.878l-.05.204h-1.575c-.765 0-1.388.63-1.388 1.41 0 .779.623 1.41 1.388 1.41h1.496v2.43h-1.496c-.765 0-1.388.63-1.388 1.41 0 .779.623 1.409 1.388 1.409h1.575l.05.205a4.075 4.075 0 0 0 3.596 3.115l.202.017.036.202C43.312 87.032 46.592 90 50.514 90c3.909 0 7.177-2.967 7.887-6.896l.036-.202.202-.017a4.076 4.076 0 0 0 3.595-3.115l.05-.205h1.575c.765 0 1.388-.63 1.388-1.41 0-.779-.623-1.409-1.388-1.409h-1.496v-2.43h1.496c.765 0 1.388-.631 1.388-1.41 0-.78-.623-1.41-1.388-1.41h-1.575l-.05-.204a4.11 4.11 0 0 0-2.523-2.878l-.172-.065v-1.557c0-2.534 1.225-4.92 3.213-6.22 6.49-4.245 10.363-11.453 10.363-19.282 0-10.968-7.624-20.15-17.773-22.411l-.364-.08.194-.322c.092-.152.248-.443.385-.702a57.3 57.3 0 0 0 .174-.334l.053-.102.094-.183h22.38l.061.183c.732 2.21 2.773 3.814 5.195 3.814 3.024 0 5.486-2.497 5.486-5.568C89 12.504 86.537 10 83.514 10c-2.535 0-4.657 1.76-5.29 4.139l-.054.198H55.836l-.053-.199C55.151 11.76 53.035 10 50.508 10c-2.531 0-4.651 1.756-5.288 4.13l-.053.2-22.378-.147-.056-.19c-.68-2.304-2.757-3.993-5.23-3.993zm-2.726 5.585c0-1.548 1.199-2.766 2.726-2.766 1.498 0 2.71 1.243 2.71 2.766 0 1.516-1.214 2.75-2.71 2.75-1.503 0-2.726-1.233-2.726-2.75zm33.006 0c0-1.548 1.199-2.766 2.726-2.766 1.498 0 2.71 1.243 2.71 2.766 0 1.516-1.214 2.75-2.71 2.75-1.503 0-2.726-1.233-2.726-2.75zm33.005 0c0-1.548 1.2-2.766 2.727-2.766 1.497 0 2.71 1.243 2.71 2.766 0 1.516-1.214 2.75-2.71 2.75-1.503 0-2.727-1.233-2.727-2.75zm-33.469 5.85l.574-.094-8.166 13.376a1.426 1.426 0 0 0-.157 1.123l2.808 10.174-.232.085a3.079 3.079 0 0 0-2.02 2.894v3.356c0 1.703 1.366 3.087 3.042 3.087h14.666c1.677 0 3.042-1.384 3.042-3.087v-3.356a3.079 3.079 0 0 0-2.02-2.894l-.231-.084L61.43 35.84a1.43 1.43 0 0 0-.156-1.123L53.11 21.343l.574.095c9.428 1.557 16.655 9.853 16.655 19.852 0 6.866-3.399 13.189-9.09 16.913-2.805 1.834-4.486 5.043-4.486 8.589v1.34H44.237v-1.34c0-3.547-1.68-6.755-4.484-8.59-5.693-3.723-9.091-10.046-9.091-16.912 0-10.004 7.229-18.303 16.656-19.854zm4.579 3.27v9.385l.122.08a2.857 2.857 0 0 1 1.308 2.4c0 1.578-1.266 2.86-2.819 2.86s-2.819-1.282-2.819-2.86c0-1.009.523-1.893 1.31-2.402l.122-.079v-9.41l-6.714 10.997 2.823 10.23H55.77l2.822-10.23-6.696-10.97zM41.413 72.272c0-.723.58-1.312 1.294-1.312h15.585c.715 0 1.295.59 1.295 1.312v6.52c0 .722-.58 1.312-1.295 1.312H42.707c-.714 0-1.294-.59-1.294-1.312v-6.52zm4.07 11l-.105-.347h10.246l-.105.347c-.685 2.258-2.66 3.91-5.005 3.91-2.354 0-4.342-1.651-5.03-3.91zm-2.581-30.654v-3.892h15.197v3.892H42.902z" fill="#616F8A"/></svg>