<svg width="100" height="78" fill="none" xmlns="http://www.w3.org/2000/svg"><path d="M96.7 45.463l2.19 2.183a3.747 3.747 0 0 1 1.11 2.672c0 1.009-.394 1.958-1.11 2.671a3.805 3.805 0 0 1-3.329 1.052l-4.322-.747a4.591 4.591 0 0 1-3.825-4.528c0-.448-.175-.869-.492-1.185l-3.089-3.078a1.242 1.242 0 0 0-.882-.364c-.333 0-.646.129-.882.364a1.24 1.24 0 0 0-.315 1.229l.411 1.394a4.15 4.15 0 0 1-1.054 4.116l-1.182 1.178a2.949 2.949 0 0 0-.874 2.103 2.23 2.23 0 0 0 2.232 2.224h1.101a7.1 7.1 0 0 1 5.35 2.428l2.185 2.503a6.972 6.972 0 0 1 1.721 4.586v3.74c0 2.551-2.083 4.627-4.643 4.627-2.56 0-4.643-2.076-4.643-4.627v-2.42a.788.788 0 0 0-1.347-.557l-2.274 2.266a3.693 3.693 0 0 1-2.624 1.083h-.54a3.693 3.693 0 0 1-2.623-1.083l-3.286-3.273a.78.78 0 0 0-1.333.55v3.246c0 2.317-1.891 4.203-4.217 4.203h-1.62a4.43 4.43 0 0 1-3.147-1.3l-.261-.26a1.337 1.337 0 0 0-1.884 0l-2.463 2.454a4.284 4.284 0 0 1-3.044 1.257c-1.15 0-2.23-.447-3.043-1.257a1.368 1.368 0 0 0-.972-.401c-.368 0-.713.142-.972.401l-1.837 1.83A4.285 4.285 0 0 1 41.827 78c-2.537 0-4.6-2.056-4.6-4.584v-.737c-.008-1.48-1.424-2.495-2.593-2.407-1.874 0-3.4-1.52-3.4-3.388a.47.47 0 0 0-.469-.468h-1.657c-.727 0-1.318.589-1.318 1.313a3.397 3.397 0 0 1-3.4 3.388h-1.66a5.993 5.993 0 0 1-4.257-1.758l-2.574-2.564a1.725 1.725 0 0 0-1.225-.506h-1.02a.398.398 0 0 0-.398.396 4.485 4.485 0 0 1-1.329 3.197L9.7 72.102a3.944 3.944 0 0 1-5.558 0L1.55 69.52A5.233 5.233 0 0 1 0 65.79v-1.85a3.375 3.375 0 0 1 3.377-3.365c.247 0 .448-.2.448-.446v-3.55c0-.516-.202-1.002-.569-1.367l-1.3-1.296a5.193 5.193 0 0 1-.529-6.784l4.445-6.07a6.235 6.235 0 0 1 5.015-2.54c1.392.137 3.018-.58 3.607-1.266-2.993-5.31-4.506-10.456-4.506-15.37C9.944 10.286 18.418-.014 30.892 0c11.793-.018 20.934 9.55 20.903 21.886 0 3.466-.754 7.051-2.25 10.729 2.112-.095 3.883 1.709 3.87 3.667v.526a.7.7 0 0 0 .7.698h5.352a.697.697 0 0 0 .496-.205l4.905-4.888a5.593 5.593 0 0 1 3.974-1.64c.719 0 1.395-.28 1.903-.786l4.52-4.505a6.437 6.437 0 0 1 4.573-1.887 3.52 3.52 0 0 0 2.501-1.033l2.754-2.745a3.69 3.69 0 0 1 2.623-1.082 3.706 3.706 0 0 1 3.708 3.696v1.393c0 .854.334 1.657.94 2.26a6.067 6.067 0 0 1 1.798 4.326v.956c0 1.634-.638 3.17-1.798 4.325l-.758.755a3.171 3.171 0 0 0-.94 2.261c0 .48.188.932.53 1.271l.666.665c.573.57.573 1.494 0 2.065a1.463 1.463 0 0 1-1.035.427c-.375 0-.75-.142-1.036-.427l-.668-.666a4.678 4.678 0 0 1-1.386-3.335c0-1.634.638-3.17 1.797-4.325l.758-.755c.606-.604.94-1.407.94-2.261v-.956c0-.854-.334-1.657-.94-2.261a6.066 6.066 0 0 1-1.797-4.325V22.43a.778.778 0 0 0-1.33-.55l-2.754 2.746a6.435 6.435 0 0 1-4.573 1.887 3.52 3.52 0 0 0-2.5 1.032l-4.522 4.505a5.593 5.593 0 0 1-3.974 1.64c-.718 0-1.394.28-1.902.786l-4.905 4.889a3.612 3.612 0 0 1-2.567 1.06h-5.353a3.628 3.628 0 0 1-3.63-3.618v-.526a.75.75 0 0 0-.75-.748h-1.526c-1.4 2.766-3.209 5.579-5.422 8.429-5.25 6.761-10.687 10.983-10.74 11.024a1.886 1.886 0 0 1-2.31 0c-.938-.723-3.226-2.672-5.85-5.393a1.456 1.456 0 0 1 .042-2.063 1.468 1.468 0 0 1 2.07.04c2.198 2.279 3.982 3.833 4.887 4.587 3.26-2.75 17.98-15.971 17.98-30.272 0-10.813-7.728-18.967-17.974-18.967-10.247 0-17.974 8.154-17.974 18.967 0 7.977 4.722 15.638 8.684 20.66a1.462 1.462 0 1 1-1.15 2.362c-.435-.001-.865-.192-1.153-.559a59.466 59.466 0 0 1-3.26-4.54c-1.402 1.204-3.505 1.754-5.152 1.632a3.293 3.293 0 0 0-2.648 1.341l-4.446 6.07a2.295 2.295 0 0 0 .234 3l1.3 1.296a4.812 4.812 0 0 1 1.427 3.432v3.549a3.375 3.375 0 0 1-3.377 3.365c-.247 0-.447.2-.447.446v1.85c0 .629.246 1.22.692 1.666l2.591 2.581c.39.39 1.025.39 1.416 0l2.227-2.219c.303-.302.47-.705.47-1.133a3.325 3.325 0 0 1 3.328-3.316h1.02a4.64 4.64 0 0 1 3.297 1.361l2.574 2.565c.584.582 1.36.902 2.186.902h1.66a.47.47 0 0 0 .47-.468c0-2.334 1.905-4.232 4.247-4.232h1.657c1.875 0 3.4 1.52 3.4 3.387 0 .258.21.468.47.468 3.01-.09 5.538 2.424 5.522 5.327v.737c0 .918.75 1.665 1.67 1.665.367 0 .712-.143.972-.402l1.837-1.83a4.284 4.284 0 0 1 3.044-1.257c1.15 0 2.23.447 3.044 1.257.26.259.604.401.972.401.367 0 .712-.142.972-.401l2.463-2.454a4.277 4.277 0 0 1 6.026 0l.262.26c.287.286.669.444 1.075.444h1.62c.71 0 1.288-.576 1.288-1.283V66.57a3.708 3.708 0 0 1 3.71-3.698c.992 0 1.924.385 2.625 1.084l3.285 3.273a.778.778 0 0 0 .552.228h.54a.778.778 0 0 0 .552-.228l2.274-2.266a3.7 3.7 0 0 1 2.63-1.085 3.716 3.716 0 0 1 3.718 3.705v2.421a1.713 1.713 0 0 0 3.427 0v-3.74c0-.982-.356-1.93-1.002-2.67l-2.185-2.502a4.168 4.168 0 0 0-3.14-1.425h-1.1c-2.847 0-5.163-2.308-5.163-5.144 0-1.574.615-3.054 1.732-4.167l1.182-1.178c.323-.322.444-.793.315-1.23l-.41-1.394a4.15 4.15 0 0 1 1.053-4.116 4.157 4.157 0 0 1 2.954-1.219c1.116 0 2.165.433 2.954 1.22l3.088 3.077a4.557 4.557 0 0 1 1.351 3.25c0 .817.587 1.512 1.395 1.651l4.323.746a.865.865 0 0 0 .756-.239.851.851 0 0 0 .252-.607c0-.23-.09-.445-.252-.607l-2.19-2.182a1.456 1.456 0 0 1 0-2.065c.572-.57 1.5-.57 2.072 0z" fill="#616F8A"/><path fill-rule="evenodd" clip-rule="evenodd" d="M45.315 20.742c0-7.925-6.47-14.373-14.424-14.373-7.953 0-14.424 6.448-14.424 14.373 0 7.926 6.47 14.374 14.424 14.374s14.424-6.448 14.424-14.374zM30.891 9.288c4.233 0 7.936 2.294 9.93 5.697h-19.86a11.506 11.506 0 0 1 9.93-5.697zm-9.918 17.233H40.81a11.505 11.505 0 0 1-9.918 5.675c-4.224 0-7.92-2.283-9.918-5.675zM33 17.905h9.028a11.4 11.4 0 0 1 .357 2.837c0 .987-.126 1.945-.362 2.86H19.76a11.397 11.397 0 0 1-.363-2.86c0-.979.125-1.93.358-2.837H33z" fill="#616F8A"/></svg>