<svg width="100" height="100" fill="none" xmlns="http://www.w3.org/2000/svg"><path d="M13.71 86.29h2.903v2.904H13.71V86.29zm5.806 0h2.903v2.904h-2.903V86.29zm5.806 0h2.904v2.904h-2.904V86.29zm49.356 0H86.29v2.904H74.678V86.29z" fill="#616F8A"/><path d="M92.097 80.484V32.58c0-4.002-3.256-7.258-7.258-7.258h-4.355C80.484 14.116 71.368 5 60.16 5 48.955 5 39.84 14.116 39.84 25.323H15.16c-4.002 0-7.258 3.256-7.258 7.258v47.903H5v7.258C5 91.744 8.256 95 12.258 95h75.484C91.744 95 95 91.744 95 87.742v-7.258h-2.903zm-7.258-52.258a4.36 4.36 0 0 1 4.355 4.355v47.903H86.29V34.032a2.906 2.906 0 0 0-2.903-2.903h-3.76c.28-.94.483-1.912.624-2.903h4.588zm-41.254-8.238l15.407 6.42 5.276 15.824c-1.32.321-2.69.51-4.107.51-9.605 0-17.42-7.814-17.42-17.42 0-1.86.301-3.652.844-5.334zm23.441 21.339l-5.204-15.612 11.627-11.628a17.326 17.326 0 0 1 4.132 11.236c0 7.168-4.355 13.334-10.555 16.004zM60.161 7.903c4.281 0 8.2 1.56 11.237 4.13L59.823 23.608 44.71 17.312c2.905-5.582 8.735-9.409 15.451-9.409zM10.806 32.581a4.36 4.36 0 0 1 4.355-4.355h24.91c.142.991.343 1.963.624 2.903H16.613a2.906 2.906 0 0 0-2.903 2.903v46.452h-2.904V32.58zm81.29 55.16a4.36 4.36 0 0 1-4.354 4.356H12.258a4.36 4.36 0 0 1-4.355-4.355v-4.355H37.81a11.28 11.28 0 0 0 7.588 2.903h9.207c2.83 0 5.5-1.026 7.588-2.903h18.292v-2.903H61.012l-.425.425a8.404 8.404 0 0 1-5.984 2.478h-9.207c-2.26 0-4.386-.88-5.984-2.478l-.424-.425H16.613V34.032h25.215c3.27 6.855 10.247 11.613 18.333 11.613 8.087 0 15.064-4.758 18.334-11.613h4.892v49.355h8.71v4.355z" fill="#616F8A"/><path d="M76.13 60.968a4.33 4.33 0 0 0-2.412.732l-5.064-3.797c.129-.41.217-.839.217-1.29a4.36 4.36 0 0 0-4.354-4.355 4.36 4.36 0 0 0-4.355 4.355c0 .5.101.972.256 1.42l-8.13 6.504a4.309 4.309 0 0 0-2.287-.666c-.977 0-1.87.335-2.597.88l-6.26-4.174c.087-.341.147-.692.147-1.061a4.36 4.36 0 0 0-4.355-4.355 4.36 4.36 0 0 0-4.355 4.355c0 .369.06.72.147 1.06l-6.26 4.174a4.31 4.31 0 0 0-2.597-.88 4.36 4.36 0 0 0-4.354 4.356 4.36 4.36 0 0 0 4.354 4.354 4.36 4.36 0 0 0 4.355-4.354c0-.369-.06-.72-.146-1.061l6.259-4.174c.727.546 1.62.88 2.597.88.977 0 1.87-.334 2.597-.88l6.26 4.174c-.088.34-.147.693-.147 1.06A4.36 4.36 0 0 0 50 72.58a4.36 4.36 0 0 0 4.354-4.354c0-.5-.101-.973-.256-1.42l8.13-6.505a4.309 4.309 0 0 0 2.288.666 4.33 4.33 0 0 0 2.41-.732l5.065 3.797c-.129.41-.217.839-.217 1.29a4.36 4.36 0 0 0 4.354 4.355 4.36 4.36 0 0 0 4.355-4.355 4.36 4.36 0 0 0-4.355-4.355zm-52.259 8.71c-.8 0-1.451-.653-1.451-1.452 0-.8.652-1.452 1.451-1.452.8 0 1.452.652 1.452 1.452 0 .8-.652 1.451-1.452 1.451zm13.065-8.71c-.8 0-1.452-.653-1.452-1.452 0-.8.652-1.452 1.452-1.452.8 0 1.452.652 1.452 1.452 0 .8-.652 1.452-1.452 1.452zm13.065 8.71c-.8 0-1.452-.653-1.452-1.452 0-.8.652-1.452 1.452-1.452.799 0 1.451.652 1.451 1.452 0 .8-.652 1.451-1.451 1.451zm14.516-11.614c-.8 0-1.452-.652-1.452-1.451 0-.8.652-1.452 1.452-1.452.8 0 1.451.652 1.451 1.452 0 .8-.652 1.451-1.451 1.451zm11.612 8.71c-.799 0-1.451-.652-1.451-1.452 0-.8.652-1.451 1.451-1.451.8 0 1.452.652 1.452 1.451 0 .8-.652 1.452-1.452 1.452z" fill="#616F8A"/></svg>