<svg width="100" height="100" fill="none" xmlns="http://www.w3.org/2000/svg"><path d="M75.725 72.182a1.68 1.68 0 1 0 2.375-2.375 4.454 4.454 0 0 0-1.897-1.128v-.555a1.68 1.68 0 0 0-3.36 0v.888a4.484 4.484 0 0 0-1.078 7.13l3.14 3.138a1.12 1.12 0 0 1-1.584 1.584 1.68 1.68 0 0 0-2.376 2.376 4.45 4.45 0 0 0 1.898 1.127v.554a1.68 1.68 0 0 0 3.36 0v-.887a4.484 4.484 0 0 0 1.078-7.13l-3.14-3.138a1.12 1.12 0 0 1 1.584-1.584z" fill="#616F8A"/><path d="M74.523 58.046h-.061V16.904a7.86 7.86 0 0 0-2.342-5.613A7.8 7.8 0 0 0 66.596 9H34.564a1.68 1.68 0 0 0 0 3.36H66.584a4.47 4.47 0 0 1 3.168 1.313 4.523 4.523 0 0 1 1.35 3.23v41.462c-7.45 1.4-13.337 7.287-14.738 14.738h-22.79a1.68 1.68 0 0 0-1.68 1.68v6.223a4.55 4.55 0 0 1-4.544 4.544 4.549 4.549 0 0 1-4.544-4.544V16.903c0-1.698-.54-3.27-1.454-4.56A1.679 1.679 0 0 0 21.126 9h-6.223C10.545 9 7 12.545 7 16.903v6.224c0 .927.752 1.68 1.68 1.68h10.767v56.199c0 4.358 3.545 7.903 7.903 7.903h33.474C64.207 92.648 69.096 95 74.524 95 84.71 95 93 86.711 93 76.523s-8.289-18.477-18.477-18.477zM19.447 21.447H10.36v-4.544a4.549 4.549 0 0 1 4.542-4.544h.008a4.55 4.55 0 0 1 4.538 4.544v4.544zM33.813 85.55a7.861 7.861 0 0 0 1.44-4.544v-4.544h20.794l-.001.06c0 3.277.858 6.356 2.36 9.027H33.813zm40.71 6.09c-8.336 0-15.118-6.781-15.118-15.117 0-8.336 6.782-15.118 15.118-15.118s15.118 6.782 15.118 15.118-6.782 15.118-15.118 15.118z" fill="#616F8A"/><path d="M91.32 56.456h-6.718a1.68 1.68 0 0 1-1.68-1.68V19.079c0-.214.041-.426.12-.624l3.36-8.399a1.68 1.68 0 0 1 3.119 0l3.36 8.399c.079.198.12.41.12.624v35.697a1.68 1.68 0 0 1-1.68 1.68zm-1.679-3.36V22.438h-3.36v30.658h3.36zm-1.68-37.893l-1.55 3.876h3.1l-1.55-3.876zM53.32 24.807a1.68 1.68 0 0 0 0-3.36H40.59a1.68 1.68 0 0 0 0 3.36H53.32zM31.205 38.243h31.499a1.68 1.68 0 0 0 0-3.36h-31.5a1.68 1.68 0 0 0 0 3.36zm31.499 3.36h-31.5a1.68 1.68 0 0 0 0 3.359h31.5a1.68 1.68 0 0 0 0-3.36zm0 6.718h-31.5a1.68 1.68 0 0 0 0 3.36h31.5a1.68 1.68 0 0 0 0-3.36zM45.907 58.4a1.68 1.68 0 0 0 0-3.359H31.205a1.68 1.68 0 0 0 0 3.36h14.702zm16.797-3.359h-3.36a1.68 1.68 0 0 0 0 3.36h3.36a1.68 1.68 0 0 0 0-3.36zm-31.5 10.078h15.75a1.68 1.68 0 0 0 0-3.36h-15.75a1.68 1.68 0 0 0 0 3.36zm-3.358-52.76a1.68 1.68 0 0 0 0-3.359h-.001a1.68 1.68 0 1 0 .001 3.36zm24.779 42.682a1.68 1.68 0 1 0-.002 3.359 1.68 1.68 0 0 0 .003-3.359h-.001z" fill="#616F8A"/></svg>