<svg width="90" height="90" fill="none" xmlns="http://www.w3.org/2000/svg"><path d="M19.75 22.82h26.475c1.745 0 1.745-2.7 0-2.7H19.75c-1.744 0-1.744 2.7 0 2.7zm0 9.898h20.358c1.745 0 1.745-2.699 0-2.699H19.75c-1.744 0-1.744 2.699 0 2.699zm17.48 9.9H19.75c-1.745 0-1.745-2.699 0-2.699h17.48c1.744 0 1.744 2.699 0 2.699z" fill="#616F8A"/><path fill-rule="evenodd" clip-rule="evenodd" d="M44.61 75.675h-.894V62.488a1.35 1.35 0 0 0-1.35-1.35h-5.414v-4.756a1.35 1.35 0 0 0-1.35-1.35h-6.748a1.35 1.35 0 0 0-1.349 1.35v8.21h-5.404a1.35 1.35 0 0 0-1.35 1.35v9.733h-.894a1.35 1.35 0 1 0 0 2.699H44.61a1.35 1.35 0 0 0 0-2.699zm-21.16 0v-8.384h4.05v8.384h-4.05zm6.754 0V57.731h4.05v17.944h-4.05zm6.764 0V63.837h4.05v11.838h-4.05z" fill="#616F8A"/><path fill-rule="evenodd" clip-rule="evenodd" d="M83.475 24.862a22.182 22.182 0 0 1 6.514 15.05 22.172 22.172 0 0 1-5.501 15.353c-1.15 1.312-3.18-.467-2.03-1.779a19.376 19.376 0 0 0 3.793-6.577l-18.115-4.8-13.25 13.25c6.175 5.374 15.191 6.368 22.396 2.331 1.522-.852 2.84 1.502 1.319 2.355a22.388 22.388 0 0 1-11.449 2.819v13.377c0 .36-.143.703-.397.957l-12.468 12.41c-.25.248-.6.392-.952.392h-42.15a3.137 3.137 0 0 1-3.133-3.134v-1.677l-4.924-.008A3.136 3.136 0 0 1 0 82.047V3.134A3.137 3.137 0 0 1 3.134 0h12.384c1.744 0 1.744 2.699 0 2.699H3.133a.436.436 0 0 0-.435.435v78.913c0 .24.195.435.435.435l4.917.008V10.925a3.138 3.138 0 0 1 3.134-3.134h48.189V3.134a.436.436 0 0 0-.435-.435H23.074c-1.745 0-1.745-2.699 0-2.699h35.864a3.137 3.137 0 0 1 3.134 3.134V7.79h1.946a3.137 3.137 0 0 1 3.134 3.135v7.434a22.34 22.34 0 0 1 9.586 1.885 1.335 1.335 0 0 1 .253.114 22.155 22.155 0 0 1 6.484 4.504zm-8.967-2.609l-7.906 17.574-13.627 13.627c-6.694-7.678-6.388-19.376.92-26.684 5.564-5.564 13.672-7.069 20.613-4.517zM10.75 86.866V10.925c0-.24.195-.436.435-.436h52.833c.24 0 .435.195.435.436v7.667a22.149 22.149 0 0 0-12.466 6.27c-8.681 8.681-8.681 22.807 0 31.488 3.415 3.414 7.719 5.578 12.466 6.28v12.146H55.12a3.138 3.138 0 0 0-3.134 3.134v9.391h-40.8a.436.436 0 0 1-.435-.435zm43.934-1.484V77.91c0-.24.195-.435.435-.435h7.437l-7.872 7.907zm14.93-45.673l7.356-16.351a19.5 19.5 0 0 1 4.596 3.412c4.73 4.73 6.545 11.353 5.37 17.53l-17.322-4.591z" fill="#616F8A"/></svg>