<svg width="100" height="100" fill="none" xmlns="http://www.w3.org/2000/svg"><path d="M22.266 37.497c6.464 0 11.974-4.112 14.12-9.862l10.579 2.898c0 .025-.007.048-.007.073 0 3.04 2.46 5.513 5.487 5.513 2.86 0 5.188-2.218 5.437-5.026l6.018-1.008c.856 1.927 2.773 3.278 5.006 3.278 1.293 0 2.466-.47 3.406-1.226l15.155 11.42-5.069.849.45 2.719 9.583-1.606-1.596-9.627-2.707.453.81 4.877-14.964-11.274a5.48 5.48 0 0 0 .419-2.098c0-3.04-2.461-5.512-5.487-5.512-2.86 0-5.188 2.217-5.438 5.026L57.45 28.37c-.856-1.927-2.772-3.277-5.005-3.277-2.035 0-3.792 1.13-4.74 2.785l-10.593-2.902c.15-.859.244-1.738.244-2.64 0-8.358-6.77-15.159-15.09-15.159S7.177 13.98 7.177 22.338c0 8.358 6.77 15.159 15.09 15.159zm46.64-12.403a2.753 2.753 0 0 1 2.743 2.756c0 1.52-1.23 2.756-2.743 2.756a2.753 2.753 0 0 1-2.744-2.756c0-1.52 1.23-2.756 2.744-2.756zM52.445 27.85a2.753 2.753 0 0 1 2.743 2.756c0 1.52-1.23 2.757-2.743 2.757a2.753 2.753 0 0 1-2.744-2.757c0-1.52 1.23-2.756 2.744-2.756zM22.266 9.934c6.808 0 12.346 5.565 12.346 12.404 0 6.838-5.538 12.403-12.346 12.403-6.807 0-12.345-5.565-12.345-12.403 0-6.839 5.538-12.404 12.345-12.404zm12.785 78.057a1 1 0 0 0 1 1h11.717a1 1 0 0 0 1-1v-37.1a1 1 0 0 0-1-1H36.051a1 1 0 0 0-1 1v37.1zm2.743-34.344a1 1 0 0 1 1-1h6.23a1 1 0 0 1 1 1v31.587a1 1 0 0 1-1 1h-6.23a1 1 0 0 1-1-1V53.647z" fill="#616F8A"/><path d="M54.74 87.99a1 1 0 0 0 1 1h11.718a1 1 0 0 0 1-1V44a1 1 0 0 0-1-1H55.74a1 1 0 0 0-1 1v43.99zm2.744-41.234a1 1 0 0 1 1-1h6.23a1 1 0 0 1 1 1v38.478a1 1 0 0 1-1 1h-6.23a1 1 0 0 1-1-1V46.756zM15.36 87.991a1 1 0 0 0 1 1h11.717a1 1 0 0 0 1-1V44a1 1 0 0 0-1-1H16.361a1 1 0 0 0-1 1v43.99zm2.744-41.235a1 1 0 0 1 1-1h6.23a1 1 0 0 1 1 1v38.478a1 1 0 0 1-1 1h-6.23a1 1 0 0 1-1-1V46.756zM74.43 87.991a1 1 0 0 0 1 1h11.717a1 1 0 0 0 1-1V56.403a1 1 0 0 0-1-1H75.43a1 1 0 0 0-1 1v31.588zm2.743-28.832a1 1 0 0 1 1-1h6.23a1 1 0 0 1 1 1v26.075a1 1 0 0 1-1 1h-6.23a1 1 0 0 1-1-1V59.16zM23.295 13.6h-4.51a1.06 1.06 0 0 0-1.052 1.069v6.8h-1.32a1.06 1.06 0 0 0-1.052 1.068c0 .59.47 1.07 1.052 1.07h1.32v1.473h-1.32a1.06 1.06 0 0 0-1.052 1.069c0 .59.47 1.07 1.052 1.07h1.32v2.112c0 .59.471 1.07 1.052 1.07.582 0 1.053-.48 1.053-1.07v-2.113h5.768c.581 0 1.052-.478 1.052-1.069 0-.59-.47-1.07-1.052-1.07h-5.768v-1.472h3.458c1.757 0 3.24-.502 4.287-1.452a4.56 4.56 0 0 0 1.514-3.418c0-2.49-2.034-5.137-5.802-5.137zm2.886 6.96c-.655.594-1.653.908-2.886.908h-3.457v-5.73h3.457c2.427 0 3.697 1.508 3.697 2.998 0 .702-.288 1.35-.81 1.824z" fill="#616F8A"/></svg>